<svg id="svg" version="1.1" xmlns="http://www.w3.org/2000/svg" xmlns:xlink="http://www.w3.org/1999/xlink" width="400" height="503.7762237762238" viewBox="0, 0, 400,503.7762237762238"><g id="svgg"><path id="path0" d="M102.238 11.034 C 82.194 15.256,70.234 34.760,75.356 54.871 C 77.982 65.179,84.174 72.306,95.435 77.980 L 99.720 80.140 99.792 107.835 L 99.863 135.529 113.362 149.026 L 126.861 162.523 129.434 160.632 C 133.034 157.986,138.612 154.478,142.977 152.115 L 146.681 150.109 133.050 136.663 L 119.419 123.217 119.430 101.631 L 119.441 80.046 123.706 77.830 C 137.600 70.611,144.103 60.720,144.165 46.713 C 144.269 23.284,124.391 6.368,102.238 11.034 M284.615 10.781 C 253.446 16.502,244.858 57.513,271.189 74.895 C 272.266 75.606,274.941 77.054,277.133 78.113 L 281.119 80.039 281.119 101.629 L 281.119 123.219 267.692 136.643 C 260.308 144.027,254.266 150.140,254.266 150.229 C 254.266 150.318,255.430 151.001,256.853 151.748 C 261.281 154.070,266.794 157.555,271.499 161.005 L 273.488 162.464 287.234 148.708 L 300.979 134.952 300.979 107.393 L 300.979 79.833 304.406 78.172 C 318.521 71.326,325.590 60.777,325.594 46.553 C 325.599 23.793,306.162 6.826,284.615 10.781 M114.006 31.358 C 121.430 33.640,125.815 42.192,123.500 49.873 C 119.628 62.724,102.006 64.291,96.126 52.308 C 90.167 40.163,101.075 27.382,114.006 31.358 M292.813 30.780 C 310.831 33.704,308.947 60.346,290.714 60.454 C 277.162 60.535,270.628 43.454,280.758 34.425 C 284.066 31.477,288.621 30.100,292.813 30.780 M193.706 76.349 C 176.684 79.387,165.035 93.604,165.035 111.341 C 165.035 125.695,171.935 136.358,185.751 143.356 L 189.894 145.455 199.989 145.455 L 210.083 145.455 214.015 143.492 C 228.216 136.403,234.826 126.364,234.825 111.888 C 234.824 88.929,215.723 72.420,193.706 76.349 M204.196 96.709 C 211.637 98.766,216.334 106.981,214.400 114.557 C 210.921 128.181,192.833 130.191,186.745 117.630 C 181.003 105.783,191.499 93.200,204.196 96.709 M39.478 109.378 C 15.818 111.814,0.979 137.801,11.068 159.133 C 19.144 176.207,37.219 183.609,56.026 177.543 L 59.604 176.389 75.385 192.168 C 84.065 200.847,91.216 207.890,91.276 207.820 C 91.337 207.750,92.339 205.741,93.502 203.357 C 95.965 198.309,97.713 195.222,100.613 190.795 L 102.704 187.603 96.177 181.004 C 92.588 177.375,86.407 171.129,82.441 167.125 L 75.232 159.844 76.340 156.470 C 84.510 131.590,65.062 106.744,39.478 109.378 M353.147 109.385 C 331.026 111.857,317.392 132.661,323.120 155.203 L 323.998 158.658 310.219 172.439 L 296.439 186.220 298.000 188.448 C 300.487 191.996,303.754 197.563,305.988 202.056 L 308.054 206.210 323.468 190.797 C 331.946 182.320,339.024 175.385,339.196 175.385 C 339.368 175.385,340.815 176.007,342.412 176.768 C 366.720 188.356,395.745 166.526,391.773 139.642 C 389.040 121.145,371.421 107.343,353.147 109.385 M46.646 129.932 C 61.666 133.473,61.620 155.176,46.585 159.015 C 37.000 161.462,27.773 153.571,28.315 143.392 C 28.798 134.337,37.677 127.817,46.646 129.932 M361.690 130.315 C 371.786 133.520,374.964 146.857,367.527 154.808 C 359.316 163.586,344.777 159.233,342.235 147.237 C 339.891 136.175,350.656 126.812,361.690 130.315 M307.133 300.632 C 305.028 305.094,302.468 309.660,299.659 313.963 L 297.300 317.576 305.812 326.131 C 316.841 337.215,322.197 342.850,323.493 344.733 L 324.538 346.249 323.677 349.698 C 314.961 384.603,347.935 409.767,377.063 390.440 C 395.213 378.397,397.027 352.870,380.913 336.257 C 371.390 326.438,358.795 323.727,344.313 328.380 L 340.839 329.496 324.755 313.433 L 308.671 297.370 307.133 300.632 M76.579 314.889 L 60.991 330.477 60.076 330.112 C 43.991 323.692,29.972 325.773,18.937 336.219 C 2.425 351.849,4.243 376.853,22.862 390.207 C 49.855 409.566,87.110 382.354,76.934 350.711 L 76.105 348.134 77.196 346.690 C 78.826 344.531,86.200 336.821,95.498 327.554 C 100.051 323.017,103.776 319.212,103.776 319.100 C 103.776 318.987,102.850 317.539,101.718 315.881 C 99.038 311.957,95.478 305.777,93.820 302.168 C 93.096 300.591,92.427 299.301,92.335 299.301 C 92.243 299.301,85.153 306.315,76.579 314.889 M271.888 343.527 C 270.096 345.078,262.293 350.131,258.085 352.465 L 253.932 354.769 267.526 368.365 L 281.119 381.960 281.119 403.244 L 281.119 424.528 276.570 426.779 C 241.617 444.067,252.824 494.426,291.608 494.354 C 310.766 494.319,325.500 478.442,325.437 457.902 C 325.392 443.465,319.128 433.989,304.822 426.719 L 300.979 424.766 300.979 397.487 L 300.979 370.208 287.202 356.433 C 279.624 348.856,273.299 342.662,273.146 342.669 C 272.993 342.675,272.427 343.061,271.888 343.527 M113.634 356.923 L 99.860 370.859 99.860 397.677 L 99.860 424.495 95.734 426.489 C 81.413 433.410,74.240 444.336,74.284 459.161 C 74.392 495.196,121.414 507.924,139.285 476.755 C 150.214 457.695,143.638 436.951,123.438 426.769 L 119.443 424.755 119.442 403.637 L 119.441 382.520 133.190 368.768 L 146.939 355.017 145.148 354.115 C 140.522 351.785,132.613 346.890,128.529 343.828 L 127.407 342.987 113.634 356.923 M47.273 347.039 C 58.059 350.005,61.560 363.832,53.573 371.919 C 45.374 380.218,31.654 376.322,28.695 364.855 C 25.861 353.869,36.167 343.986,47.273 347.039 M360.420 346.902 C 369.734 348.877,374.462 359.865,369.777 368.653 C 364.609 378.349,350.819 378.974,344.645 369.790 C 336.901 358.271,346.736 344.001,360.420 346.902 M189.650 359.711 C 189.650 359.860,187.762 360.938,185.453 362.108 C 154.318 377.878,159.428 421.418,193.287 428.844 C 214.470 433.490,234.015 417.351,234.884 394.498 C 235.432 380.065,228.814 369.567,214.451 362.088 C 212.198 360.915,210.284 359.840,210.196 359.698 C 209.977 359.343,189.650 359.356,189.650 359.711 M204.395 379.862 C 211.630 381.847,216.308 390.157,214.400 397.634 C 210.924 411.247,192.717 413.265,186.728 400.699 C 181.001 388.681,191.481 376.320,204.395 379.862 M112.389 444.360 C 120.398 446.007,125.476 453.855,123.775 461.958 C 120.825 476.008,102.003 478.256,95.896 465.288 C 90.586 454.013,100.173 441.847,112.389 444.360 M293.846 444.339 C 307.237 447.163,309.792 466.043,297.609 472.141 C 288.745 476.578,278.770 472.025,276.218 462.378 C 273.458 451.946,283.106 442.074,293.846 444.339 " stroke="none" fill="#040404" fill-rule="evenodd"></path><path id="path1" d="M194.266 145.638 C 126.336 151.054,80.046 208.644,92.338 272.448 C 108.834 358.072,219.375 389.082,280.291 325.175 C 335.913 266.823,309.092 172.138,230.645 149.908 C 219.076 146.629,204.009 144.861,194.266 145.638 M212.556 164.887 C 276.847 173.880,310.998 243.217,277.965 297.690 C 250.622 342.781,187.987 354.643,145.338 322.808 C 96.789 286.568,97.684 215.726,147.133 180.786 C 165.332 167.926,190.521 161.805,212.556 164.887 " stroke="none" fill="#fc0404" fill-rule="evenodd"></path><path id="path2" d="M0.559 252.448 L 0.559 503.776 200.140 503.776 L 399.720 503.776 399.720 252.448 L 399.720 1.119 200.140 1.119 L 0.559 1.119 0.559 252.448 M113.846 10.347 C 137.039 13.007,151.415 40.507,140.826 61.958 C 137.471 68.756,132.174 73.625,123.295 78.073 L 119.441 80.004 119.441 101.469 L 119.441 122.935 133.042 136.539 L 146.644 150.143 144.721 151.192 C 138.360 154.663,132.440 158.384,128.572 161.343 L 126.934 162.596 113.257 148.921 L 99.580 135.247 99.580 107.666 L 99.580 80.086 96.409 78.622 C 85.235 73.466,78.644 66.303,75.668 56.082 C 68.390 31.083,88.158 7.401,113.846 10.347 M297.902 10.759 C 314.139 14.174,325.665 29.147,325.686 46.853 C 325.702 60.707,319.131 70.595,305.029 77.939 L 300.979 80.047 300.979 107.507 L 300.979 134.967 287.143 148.801 L 273.307 162.634 272.668 162.044 C 270.689 160.218,260.709 153.860,256.514 151.754 C 255.124 151.055,253.986 150.390,253.986 150.276 C 253.986 150.161,260.091 143.964,267.552 136.503 L 281.119 122.939 281.108 101.540 L 281.098 80.140 277.056 78.205 C 259.174 69.644,251.419 52.068,257.499 33.882 C 263.021 17.365,280.835 7.170,297.902 10.759 M104.615 31.408 C 94.386 34.923,91.113 48.084,98.563 55.749 C 108.068 65.529,123.930 59.018,123.983 45.315 C 124.021 35.413,113.969 28.195,104.615 31.408 M287.273 30.967 C 281.453 31.982,275.804 39.096,275.804 45.411 C 275.804 59.212,293.960 65.874,302.052 55.042 C 310.697 43.472,301.498 28.487,287.273 30.967 M204.232 75.806 C 232.842 79.084,245.608 116.975,224.686 136.514 C 221.898 139.118,219.405 140.786,214.444 143.369 L 210.440 145.455 207.947 145.505 C 206.532 145.534,206.059 145.595,206.853 145.648 C 256.977 148.968,297.929 183.931,307.701 231.748 C 320.622 294.977,273.338 354.955,207.273 359.137 L 203.776 359.359 207.040 359.400 C 208.834 359.422,210.345 359.545,210.396 359.672 C 210.448 359.799,212.398 360.884,214.730 362.082 C 232.653 371.296,239.603 389.249,232.306 407.481 C 221.128 435.409,182.176 437.428,168.864 410.769 C 159.349 391.716,166.350 371.691,186.021 361.691 C 187.940 360.716,189.552 359.810,189.604 359.679 C 189.655 359.548,191.354 359.416,193.380 359.387 C 195.406 359.357,196.245 359.295,195.245 359.248 C 136.024 356.491,90.301 309.691,90.355 251.888 C 90.407 197.467,133.507 151.453,189.510 146.029 C 194.303 145.565,194.412 145.541,191.940 145.496 C 187.872 145.423,179.484 140.704,174.672 135.781 C 161.431 122.236,161.629 99.400,175.105 85.871 C 182.349 78.598,193.867 74.618,204.232 75.806 M195.804 96.751 C 179.314 102.083,182.983 125.734,200.301 125.734 L 203.819 125.734 206.228 124.541 C 215.583 119.904,217.669 107.595,210.323 100.378 C 206.688 96.806,200.452 95.248,195.804 96.751 M49.738 109.790 C 70.926 113.870,83.407 135.819,76.399 156.678 L 75.308 159.925 88.983 173.598 C 96.504 181.118,102.657 187.434,102.657 187.634 C 102.657 187.834,102.002 188.967,101.201 190.152 C 98.735 193.803,96.132 198.349,93.734 203.195 C 92.472 205.745,91.352 207.832,91.245 207.832 C 91.138 207.832,83.976 200.758,75.329 192.112 L 59.608 176.393 55.888 177.576 C 34.337 184.430,14.136 173.787,8.771 152.751 C 3.852 133.464,17.676 112.564,37.265 109.673 C 38.384 109.508,39.615 109.317,40.000 109.250 C 41.363 109.012,47.446 109.349,49.738 109.790 M362.937 109.654 C 386.729 114.019,399.646 141.367,387.601 161.871 C 378.159 177.943,357.562 184.550,341.714 176.591 L 339.213 175.335 323.801 190.744 C 315.325 199.220,308.305 206.154,308.201 206.154 C 308.098 206.154,307.006 204.153,305.775 201.708 C 303.467 197.122,301.049 193.019,298.118 188.712 L 296.432 186.234 299.473 183.117 C 301.146 181.403,307.332 175.151,313.220 169.225 L 323.925 158.450 322.940 154.539 C 317.304 132.172,330.846 112.153,353.566 109.266 C 355.118 109.068,361.095 109.316,362.937 109.654 M40.140 129.838 C 36.212 130.581,31.836 133.942,30.004 137.622 C 22.547 152.595,41.555 166.871,53.310 155.126 C 63.841 144.605,54.713 127.079,40.140 129.838 M353.055 130.060 C 341.797 133.110,338.256 147.397,346.802 155.289 C 356.605 164.341,371.720 157.387,371.524 143.915 C 371.386 134.515,362.160 127.593,353.055 130.060 M194.126 164.363 C 166.581 166.785,144.647 178.231,128.249 198.741 C 110.387 221.082,104.730 253.134,113.932 279.860 C 130.973 329.353,187.754 354.226,236.236 333.434 C 293.772 308.760,308.957 236.271,265.881 191.922 C 247.379 172.875,219.426 162.139,194.126 164.363 M206.154 192.686 C 206.154 196.048,206.232 199.547,206.328 200.462 L 206.501 202.125 209.335 202.463 C 218.254 203.527,228.168 207.818,232.977 212.695 L 234.486 214.225 228.229 220.844 C 224.788 224.485,221.655 227.624,221.266 227.822 C 220.396 228.263,220.269 228.212,217.309 226.229 C 208.620 220.404,190.734 221.030,189.068 227.216 C 187.995 231.201,191.217 233.290,204.304 237.092 C 226.878 243.651,233.231 247.423,237.291 256.679 C 239.827 262.460,240.189 271.880,238.129 278.455 C 234.533 289.927,221.824 300.174,209.091 301.868 C 207.860 302.032,206.696 302.210,206.503 302.263 C 206.235 302.338,206.154 304.083,206.154 309.781 L 206.154 317.203 199.301 317.203 L 192.448 317.203 192.447 309.441 L 192.446 301.678 187.901 300.791 C 175.792 298.427,164.447 292.488,162.560 287.525 C 162.101 286.316,162.336 286.064,172.217 277.210 L 177.467 272.506 179.620 274.532 C 188.375 282.768,210.958 284.401,214.622 277.063 C 218.047 270.202,214.299 265.529,202.754 262.265 C 179.608 255.722,168.559 248.845,166.523 239.712 C 165.765 236.313,165.835 227.183,166.643 223.985 C 169.605 212.273,177.425 205.195,189.929 202.907 L 192.448 202.446 192.448 194.510 L 192.448 186.573 199.301 186.573 L 206.154 186.573 206.154 192.686 M344.619 328.274 C 360.427 323.162,374.595 327.161,383.757 339.320 C 399.664 360.430,391.885 387.028,367.413 395.202 C 339.311 404.587,314.990 378.278,323.940 348.175 L 324.503 346.279 323.880 345.377 C 322.427 343.274,319.539 340.216,308.751 329.354 C 302.476 323.038,297.343 317.715,297.343 317.527 C 297.343 317.338,298.204 315.898,299.256 314.326 C 301.832 310.478,304.230 306.273,306.640 301.380 L 308.641 297.314 324.740 313.405 L 340.839 329.496 344.619 328.274 M94.298 303.007 C 96.714 307.834,98.687 311.240,101.588 315.586 C 102.792 317.389,103.776 318.962,103.776 319.081 C 103.776 319.200,100.271 322.822,95.986 327.131 C 81.432 341.768,76.364 347.277,76.364 348.457 C 76.364 348.767,76.560 349.571,76.800 350.245 C 83.488 368.986,72.270 389.571,52.209 395.367 C 21.469 404.249,-4.296 369.350,13.301 342.666 C 23.253 327.576,41.529 322.454,59.464 329.728 L 60.886 330.305 76.526 314.663 C 85.128 306.060,92.197 299.021,92.235 299.021 C 92.273 299.021,93.201 300.815,94.298 303.007 M287.202 356.153 L 300.979 369.928 300.979 397.262 L 300.979 424.595 304.620 426.446 C 322.642 435.611,329.838 452.010,323.780 470.115 C 312.554 503.667,265.564 502.141,256.677 467.934 C 252.164 450.566,259.684 435.134,276.806 426.626 L 281.119 424.483 281.115 403.360 L 281.111 382.238 267.541 368.478 L 253.970 354.718 255.167 354.046 C 255.825 353.676,257.559 352.709,259.021 351.899 C 262.170 350.151,269.766 345.164,271.748 343.542 C 272.517 342.913,273.209 342.393,273.286 342.388 C 273.362 342.382,279.624 348.576,287.202 356.153 M129.182 344.143 C 132.869 346.944,141.210 352.000,145.389 353.968 C 146.348 354.419,147.133 354.860,147.133 354.948 C 147.133 355.035,140.902 361.337,133.287 368.951 L 119.441 382.795 119.441 403.703 L 119.441 424.611 123.147 426.466 C 137.652 433.725,144.196 443.628,144.196 458.322 C 144.196 483.859,120.921 500.656,97.150 492.274 C 74.550 484.305,66.752 455.428,82.063 436.400 C 85.097 432.628,89.396 429.487,95.594 426.512 L 99.580 424.599 99.580 397.685 L 99.580 370.771 113.495 356.854 C 121.149 349.200,127.452 342.937,127.503 342.937 C 127.553 342.937,128.309 343.480,129.182 344.143 M38.881 347.101 C 28.105 350.585,24.784 363.852,32.704 371.781 C 42.201 381.288,57.867 374.651,57.898 361.108 C 57.920 351.570,47.895 344.187,38.881 347.101 M353.171 346.872 C 344.967 348.905,339.909 358.531,342.903 366.411 C 347.929 379.638,366.073 379.465,370.772 366.146 C 374.607 355.276,364.393 344.091,353.171 346.872 M195.804 379.828 C 178.937 385.282,183.413 409.761,201.118 408.888 C 214.065 408.250,219.631 390.999,209.552 382.747 C 205.758 379.641,200.100 378.439,195.804 379.828 M106.882 444.236 C 98.208 445.502,92.322 455.200,95.201 463.480 C 99.622 476.192,116.522 477.498,122.410 465.584 C 127.830 454.618,118.992 442.467,106.882 444.236 M288.504 444.187 C 276.458 446.021,271.672 460.685,280.277 469.395 C 288.526 477.745,302.102 473.826,305.033 462.249 C 307.548 452.310,298.696 442.636,288.504 444.187 " stroke="none" fill="#fbfbfb" fill-rule="evenodd"></path><path id="path3" d="M108.890 10.276 C 109.625 10.334,110.758 10.333,111.407 10.274 C 112.056 10.216,111.455 10.168,110.070 10.169 C 108.685 10.170,108.154 10.218,108.890 10.276 M290.140 10.276 C 290.871 10.333,292.066 10.333,292.797 10.276 C 293.528 10.218,292.930 10.171,291.469 10.171 C 290.007 10.171,289.409 10.218,290.140 10.276 M314.406 19.720 C 315.241 20.566,315.988 21.259,316.065 21.259 C 316.142 21.259,315.521 20.566,314.685 19.720 C 313.850 18.874,313.103 18.182,313.026 18.182 C 312.949 18.182,313.570 18.874,314.406 19.720 M265.581 20.490 L 264.476 21.678 265.664 20.573 C 266.770 19.544,266.982 19.301,266.770 19.301 C 266.724 19.301,266.189 19.836,265.581 20.490 M108.745 30.687 C 109.092 30.754,109.596 30.752,109.863 30.682 C 110.131 30.612,109.846 30.557,109.231 30.560 C 108.615 30.563,108.397 30.620,108.745 30.687 M290.283 30.687 C 290.631 30.754,291.134 30.752,291.402 30.682 C 291.669 30.612,291.385 30.557,290.769 30.560 C 290.154 30.563,289.935 30.620,290.283 30.687 M325.688 46.993 C 325.688 48.147,325.738 48.619,325.798 48.042 C 325.859 47.465,325.859 46.521,325.798 45.944 C 325.738 45.367,325.688 45.839,325.688 46.993 M119.426 56.434 L 118.462 57.483 119.510 56.519 C 120.087 55.988,120.559 55.516,120.559 55.470 C 120.559 55.256,120.323 55.457,119.426 56.434 M321.818 62.378 C 321.428 63.147,321.172 63.776,321.249 63.776 C 321.326 63.776,321.708 63.147,322.098 62.378 C 322.488 61.608,322.744 60.979,322.667 60.979 C 322.590 60.979,322.208 61.608,321.818 62.378 M140.420 62.378 C 140.106 62.993,139.912 63.497,139.989 63.497 C 140.066 63.497,140.385 62.993,140.699 62.378 C 141.013 61.762,141.207 61.259,141.130 61.259 C 141.053 61.259,140.734 61.762,140.420 62.378 M83.916 70.350 C 84.752 71.196,85.498 71.888,85.575 71.888 C 85.652 71.888,85.031 71.196,84.196 70.350 C 83.360 69.503,82.614 68.811,82.537 68.811 C 82.460 68.811,83.080 69.503,83.916 70.350 M134.675 70.280 L 133.287 71.748 134.755 70.360 C 135.563 69.597,136.224 68.936,136.224 68.892 C 136.224 68.683,135.965 68.915,134.675 70.280 M199.658 75.730 C 200.316 75.789,201.323 75.788,201.896 75.728 C 202.468 75.668,201.930 75.619,200.699 75.620 C 199.469 75.621,199.000 75.671,199.658 75.730 M91.748 76.209 C 91.748 76.286,92.126 76.545,92.587 76.783 C 93.049 77.022,93.427 77.154,93.427 77.077 C 93.427 77.000,93.049 76.742,92.587 76.503 C 92.126 76.265,91.748 76.132,91.748 76.209 M95.385 78.182 C 95.769 78.402,96.210 78.582,96.364 78.582 C 96.517 78.582,96.329 78.402,95.944 78.182 C 95.559 77.962,95.119 77.782,94.965 77.782 C 94.811 77.782,95.000 77.962,95.385 78.182 M99.715 107.832 C 99.715 123.063,99.749 129.253,99.790 121.587 C 99.832 113.922,99.832 101.460,99.790 93.895 C 99.749 86.330,99.715 92.601,99.715 107.832 M174.955 85.944 L 173.566 87.413 175.035 86.025 C 176.400 84.735,176.632 84.476,176.423 84.476 C 176.379 84.476,175.718 85.136,174.955 85.944 M164.853 111.049 C 164.853 112.357,164.901 112.892,164.960 112.238 C 165.019 111.584,165.019 110.514,164.960 109.860 C 164.901 109.206,164.853 109.741,164.853 111.049 M67.692 119.580 C 68.683 120.580,69.557 121.399,69.634 121.399 C 69.711 121.399,68.963 120.580,67.972 119.580 C 66.981 118.580,66.107 117.762,66.030 117.762 C 65.953 117.762,66.701 118.580,67.692 119.580 M331.739 119.650 L 330.210 121.259 331.818 119.730 C 332.703 118.889,333.427 118.165,333.427 118.121 C 333.427 117.914,333.159 118.156,331.739 119.650 M17.752 120.070 L 16.364 121.538 17.832 120.150 C 18.640 119.387,19.301 118.726,19.301 118.682 C 19.301 118.473,19.042 118.705,17.752 120.070 M126.014 129.790 C 129.704 133.483,132.786 136.503,132.863 136.503 C 132.940 136.503,129.984 133.483,126.294 129.790 C 122.604 126.098,119.522 123.077,119.445 123.077 C 119.368 123.077,122.324 126.098,126.014 129.790 M267.481 136.574 C 252.674 151.384,253.625 150.300,254.895 150.915 C 255.663 151.287,255.722 151.290,255.275 150.933 C 254.984 150.700,254.606 150.456,254.436 150.390 C 254.265 150.324,260.230 144.152,267.691 136.674 C 275.152 129.195,281.194 123.077,281.117 123.077 C 281.040 123.077,274.904 129.151,267.481 136.574 M199.510 126.067 C 199.780 126.137,200.220 126.137,200.490 126.067 C 200.759 125.997,200.538 125.939,200.000 125.939 C 199.462 125.939,199.241 125.997,199.510 126.067 M346.141 134.056 L 345.035 135.245 346.224 134.139 C 347.329 133.111,347.541 132.867,347.329 132.867 C 347.284 132.867,346.749 133.402,346.141 134.056 M226.416 134.615 L 225.594 135.524 226.503 134.703 C 227.003 134.251,227.413 133.842,227.413 133.794 C 227.413 133.578,227.182 133.768,226.416 134.615 M174.825 136.084 C 175.347 136.622,175.837 137.063,175.914 137.063 C 175.991 137.063,175.627 136.622,175.105 136.084 C 174.583 135.545,174.093 135.105,174.016 135.105 C 173.939 135.105,174.303 135.545,174.825 136.084 M321.469 143.916 C 321.472 144.531,321.530 144.750,321.596 144.402 C 321.663 144.054,321.661 143.551,321.591 143.283 C 321.521 143.016,321.466 143.301,321.469 143.916 M204.266 145.647 C 204.535 145.718,204.976 145.718,205.245 145.647 C 205.514 145.577,205.294 145.519,204.755 145.519 C 204.217 145.519,203.997 145.577,204.266 145.647 M53.274 155.315 L 52.168 156.503 53.357 155.398 C 54.462 154.369,54.674 154.126,54.462 154.126 C 54.417 154.126,53.882 154.661,53.274 155.315 M345.734 154.493 C 345.734 154.541,346.143 154.950,346.643 155.402 L 347.552 156.224 346.731 155.315 C 345.965 154.467,345.734 154.277,345.734 154.493 M35.524 157.340 C 35.524 157.531,37.237 158.381,37.365 158.253 C 37.426 158.192,37.037 157.933,36.500 157.677 C 35.963 157.421,35.524 157.270,35.524 157.340 M252.308 158.447 C 252.308 158.524,252.685 158.782,253.147 159.021 C 253.608 159.260,253.986 159.392,253.986 159.315 C 253.986 159.238,253.608 158.980,253.147 158.741 C 252.685 158.503,252.308 158.370,252.308 158.447 M313.006 169.441 L 302.238 180.280 313.077 169.512 C 323.151 159.504,324.042 158.601,323.845 158.601 C 323.806 158.601,318.928 163.479,313.006 169.441 M381.809 169.161 L 380.280 170.769 381.888 169.240 C 383.382 167.820,383.625 167.552,383.417 167.552 C 383.373 167.552,382.650 168.276,381.809 169.161 M240.000 173.287 C 240.385 173.507,240.825 173.686,240.979 173.686 C 241.133 173.686,240.944 173.507,240.559 173.287 C 240.175 173.067,239.734 172.887,239.580 172.887 C 239.427 172.887,239.615 173.067,240.000 173.287 M241.399 173.832 C 241.399 173.909,241.776 174.167,242.238 174.406 C 242.699 174.644,243.077 174.777,243.077 174.700 C 243.077 174.623,242.699 174.365,242.238 174.126 C 241.776 173.887,241.399 173.755,241.399 173.832 M124.598 174.895 L 123.776 175.804 124.685 174.983 C 125.533 174.217,125.723 173.986,125.507 173.986 C 125.459 173.986,125.050 174.395,124.598 174.895 M96.084 180.979 C 99.620 184.517,102.576 187.413,102.653 187.413 C 102.730 187.413,99.900 184.517,96.364 180.979 C 92.828 177.441,89.872 174.545,89.795 174.545 C 89.718 174.545,92.548 177.441,96.084 180.979 M25.734 175.243 C 25.734 175.431,28.566 176.842,28.691 176.717 C 28.749 176.659,28.107 176.275,27.265 175.862 C 26.423 175.449,25.734 175.170,25.734 175.243 M323.496 190.839 L 308.112 206.294 323.566 190.910 C 332.066 182.449,339.021 175.494,339.021 175.455 C 339.021 175.259,337.795 176.474,323.496 190.839 M355.594 180.060 C 356.017 180.125,356.710 180.125,357.133 180.060 C 357.556 179.996,357.210 179.944,356.364 179.944 C 355.517 179.944,355.171 179.996,355.594 180.060 M118.042 181.399 C 117.363 182.091,116.870 182.657,116.946 182.657 C 117.023 182.657,117.642 182.091,118.322 181.399 C 119.001 180.706,119.494 180.140,119.417 180.140 C 119.340 180.140,118.721 180.706,118.042 181.399 M192.448 194.510 L 192.448 202.446 189.929 202.907 C 177.425 205.195,169.605 212.273,166.643 223.985 C 165.835 227.183,165.765 236.313,166.523 239.712 C 168.559 248.845,179.608 255.722,202.754 262.265 C 214.299 265.529,218.047 270.202,214.622 277.063 C 210.958 284.401,188.375 282.768,179.620 274.532 L 177.467 272.506 172.217 277.210 C 162.336 286.064,162.101 286.316,162.560 287.525 C 164.447 292.488,175.792 298.427,187.901 300.791 L 192.446 301.678 192.447 309.441 L 192.448 317.203 199.301 317.203 L 206.154 317.203 206.154 309.781 C 206.154 304.083,206.235 302.338,206.503 302.263 C 206.696 302.210,207.860 302.032,209.091 301.868 C 221.824 300.174,234.533 289.927,238.129 278.455 C 240.189 271.880,239.827 262.460,237.291 256.679 C 233.231 247.423,226.878 243.651,204.304 237.092 C 191.217 233.290,187.995 231.201,189.068 227.216 C 190.734 221.030,208.620 220.404,217.309 226.229 C 220.269 228.212,220.396 228.263,221.266 227.822 C 221.655 227.624,224.788 224.485,228.229 220.844 L 234.486 214.225 232.977 212.695 C 228.168 207.818,218.254 203.527,209.335 202.463 L 206.501 202.125 206.328 200.462 C 206.232 199.547,206.154 196.048,206.154 192.686 L 206.154 186.573 199.301 186.573 L 192.448 186.573 192.448 194.510 M137.607 188.462 L 136.643 189.510 137.692 188.547 C 138.669 187.649,138.870 187.413,138.656 187.413 C 138.610 187.413,138.137 187.885,137.607 188.462 M264.755 190.769 C 265.979 192.000,267.043 193.007,267.120 193.007 C 267.197 193.007,266.259 192.000,265.035 190.769 C 263.811 189.538,262.747 188.531,262.670 188.531 C 262.594 188.531,263.532 189.538,264.755 190.769 M132.572 193.497 L 131.608 194.545 132.657 193.581 C 133.634 192.684,133.835 192.448,133.621 192.448 C 133.575 192.448,133.103 192.920,132.572 193.497 M94.965 200.280 C 94.726 200.741,94.594 201.119,94.671 201.119 C 94.748 201.119,95.006 200.741,95.245 200.280 C 95.483 199.818,95.616 199.441,95.539 199.441 C 95.462 199.441,95.204 199.818,94.965 200.280 M90.415 246.154 C 90.415 246.692,90.472 246.913,90.542 246.643 C 90.613 246.374,90.613 245.934,90.542 245.664 C 90.472 245.395,90.415 245.615,90.415 246.154 M109.479 252.168 C 109.480 254.168,109.524 254.949,109.578 253.904 C 109.632 252.860,109.632 251.223,109.577 250.268 C 109.523 249.313,109.479 250.168,109.479 252.168 M309.737 251.329 C 309.739 252.252,309.791 252.596,309.853 252.093 C 309.915 251.590,309.914 250.835,309.850 250.415 C 309.786 249.994,309.735 250.406,309.737 251.329 M290.723 252.028 C 290.723 253.182,290.773 253.654,290.833 253.077 C 290.893 252.500,290.893 251.556,290.833 250.979 C 290.773 250.402,290.723 250.874,290.723 252.028 M309.721 254.685 C 309.724 255.301,309.781 255.520,309.848 255.172 C 309.915 254.824,309.913 254.320,309.843 254.053 C 309.773 253.785,309.718 254.070,309.721 254.685 M298.938 298.616 C 298.368 299.767,297.908 300.801,297.916 300.914 C 297.924 301.027,298.435 300.130,299.053 298.922 C 299.670 297.714,300.130 296.680,300.074 296.624 C 300.019 296.569,299.507 297.465,298.938 298.616 M76.503 314.755 L 60.839 330.490 76.573 314.826 C 91.199 300.266,92.433 299.021,92.237 299.021 C 92.198 299.021,85.117 306.101,76.503 314.755 M265.028 313.916 L 262.797 316.224 265.105 313.993 C 266.374 312.765,267.413 311.727,267.413 311.685 C 267.413 311.481,267.101 311.773,265.028 313.916 M135.664 314.545 C 136.965 315.853,138.093 316.923,138.169 316.923 C 138.246 316.923,137.245 315.853,135.944 314.545 C 134.643 313.238,133.516 312.168,133.439 312.168 C 133.362 312.168,134.363 313.238,135.664 314.545 M305.874 326.434 C 310.641 331.203,314.605 335.105,314.682 335.105 C 314.759 335.105,310.921 331.203,306.154 326.434 C 301.386 321.664,297.423 317.762,297.346 317.762 C 297.269 317.762,301.107 321.664,305.874 326.434 M279.992 325.524 L 278.182 327.413 280.070 325.602 C 281.824 323.921,282.086 323.636,281.880 323.636 C 281.837 323.636,280.987 324.486,279.992 325.524 M356.581 326.079 C 357.239 326.138,358.246 326.138,358.819 326.077 C 359.391 326.017,358.853 325.969,357.622 325.970 C 356.392 325.971,355.923 326.020,356.581 326.079 M275.931 329.580 L 274.825 330.769 276.014 329.664 C 276.668 329.055,277.203 328.520,277.203 328.475 C 277.203 328.263,276.959 328.475,275.931 329.580 M124.196 329.930 C 124.718 330.469,125.208 330.909,125.285 330.909 C 125.361 330.909,124.997 330.469,124.476 329.930 C 123.954 329.392,123.464 328.951,123.387 328.951 C 123.310 328.951,123.674 329.392,124.196 329.930 M85.309 337.832 L 82.937 340.280 85.385 337.908 C 87.658 335.706,87.960 335.385,87.756 335.385 C 87.714 335.385,86.613 336.486,85.309 337.832 M17.902 336.923 C 17.223 337.615,16.730 338.182,16.807 338.182 C 16.884 338.182,17.502 337.615,18.182 336.923 C 18.861 336.231,19.354 335.664,19.277 335.664 C 19.200 335.664,18.582 336.231,17.902 336.923 M381.399 336.783 C 382.000 337.399,382.554 337.902,382.631 337.902 C 382.708 337.902,382.279 337.399,381.678 336.783 C 381.077 336.168,380.523 335.664,380.446 335.664 C 380.369 335.664,380.798 336.168,381.399 336.783 M319.720 340.559 C 320.242 341.098,320.732 341.538,320.809 341.538 C 320.886 341.538,320.522 341.098,320.000 340.559 C 319.478 340.021,318.988 339.580,318.911 339.580 C 318.834 339.580,319.198 340.021,319.720 340.559 M79.985 343.427 L 79.021 344.476 80.070 343.512 C 81.046 342.614,81.247 342.378,81.034 342.378 C 80.987 342.378,80.515 342.850,79.985 343.427 M273.041 342.448 C 273.112 342.486,279.458 348.748,287.144 356.364 L 301.119 370.210 287.274 356.294 C 279.659 348.640,273.313 342.378,273.171 342.378 C 273.030 342.378,272.971 342.409,273.041 342.448 M32.295 351.119 L 31.189 352.308 32.378 351.202 C 33.483 350.174,33.695 349.930,33.483 349.930 C 33.438 349.930,32.903 350.465,32.295 351.119 M109.857 360.492 L 99.578 370.775 99.650 397.765 L 99.723 424.755 99.792 397.764 L 99.860 370.772 110.138 360.491 C 115.792 354.836,120.354 350.210,120.277 350.210 C 120.200 350.210,115.511 354.837,109.857 360.492 M145.288 354.165 L 146.939 355.017 133.120 368.907 L 119.301 382.797 133.217 368.952 C 140.871 361.337,147.133 355.038,147.133 354.954 C 147.133 354.779,144.148 353.280,143.840 353.300 C 143.728 353.308,144.379 353.697,145.288 354.165 M322.050 360.699 C 322.051 361.776,322.102 362.183,322.162 361.602 C 322.223 361.022,322.222 360.141,322.160 359.644 C 322.098 359.148,322.049 359.622,322.050 360.699 M198.683 359.369 C 199.728 359.422,201.364 359.422,202.319 359.368 C 203.274 359.313,202.420 359.269,200.420 359.270 C 198.420 359.270,197.638 359.315,198.683 359.369 M366.978 372.238 L 366.014 373.287 367.063 372.323 C 367.640 371.793,368.112 371.321,368.112 371.274 C 368.112 371.060,367.875 371.261,366.978 372.238 M275.804 376.923 C 278.647 379.769,281.036 382.098,281.113 382.098 C 281.190 382.098,278.927 379.769,276.084 376.923 C 273.241 374.077,270.852 371.748,270.775 371.748 C 270.698 371.748,272.961 374.077,275.804 376.923 M35.804 374.403 C 35.804 374.594,37.517 375.443,37.645 375.316 C 37.706 375.255,37.316 374.996,36.780 374.740 C 36.243 374.484,35.804 374.332,35.804 374.403 M168.518 377.928 C 168.272 378.404,168.120 378.843,168.181 378.904 C 168.242 378.964,168.501 378.575,168.757 378.038 C 169.332 376.832,169.132 376.740,168.518 377.928 M18.182 386.434 C 19.017 387.280,19.764 387.972,19.841 387.972 C 19.918 387.972,19.297 387.280,18.462 386.434 C 17.626 385.587,16.879 384.895,16.802 384.895 C 16.725 384.895,17.346 385.587,18.182 386.434 M68.374 385.804 L 67.552 386.713 68.462 385.892 C 68.962 385.440,69.371 385.031,69.371 384.983 C 69.371 384.767,69.140 384.957,68.374 385.804 M41.613 396.846 C 42.116 396.908,42.871 396.907,43.292 396.843 C 43.712 396.779,43.301 396.728,42.378 396.730 C 41.455 396.732,41.111 396.784,41.613 396.846 M199.510 409.144 C 199.780 409.214,200.220 409.214,200.490 409.144 C 200.759 409.074,200.538 409.016,200.000 409.016 C 199.462 409.016,199.241 409.074,199.510 409.144 M83.763 434.476 L 82.657 435.664 83.846 434.559 C 84.500 433.950,85.035 433.416,85.035 433.370 C 85.035 433.158,84.791 433.370,83.763 434.476 M316.783 435.245 C 317.384 435.860,317.939 436.364,318.016 436.364 C 318.093 436.364,317.664 435.860,317.063 435.245 C 316.462 434.629,315.907 434.126,315.831 434.126 C 315.754 434.126,316.182 434.629,316.783 435.245 M77.889 442.543 C 77.643 443.019,77.491 443.458,77.552 443.519 C 77.612 443.580,77.871 443.190,78.127 442.654 C 78.702 441.447,78.503 441.355,77.889 442.543 M300.979 448.252 C 301.501 448.790,301.991 449.231,302.068 449.231 C 302.145 449.231,301.781 448.790,301.259 448.252 C 300.737 447.713,300.247 447.273,300.170 447.273 C 300.093 447.273,300.457 447.713,300.979 448.252 M98.446 448.601 L 97.483 449.650 98.531 448.686 C 99.508 447.789,99.709 447.552,99.495 447.552 C 99.449 447.552,98.977 448.024,98.446 448.601 M325.688 457.902 C 325.688 459.056,325.738 459.528,325.798 458.951 C 325.859 458.374,325.859 457.430,325.798 456.853 C 325.738 456.276,325.688 456.748,325.688 457.902 M255.474 458.741 C 255.474 459.741,255.525 460.150,255.587 459.650 C 255.649 459.150,255.649 458.332,255.587 457.832 C 255.525 457.332,255.474 457.741,255.474 458.741 M264.895 483.444 C 264.895 483.492,265.304 483.901,265.804 484.353 L 266.713 485.175 265.892 484.266 C 265.126 483.418,264.895 483.228,264.895 483.444 M133.274 484.825 L 132.168 486.014 133.357 484.908 C 134.462 483.880,134.674 483.636,134.462 483.636 C 134.417 483.636,133.882 484.171,133.274 484.825 " stroke="none" fill="#74ac44" fill-rule="evenodd"></path></g></svg>