<svg xmlns="http://www.w3.org/2000/svg" xmlns:xlink="http://www.w3.org/1999/xlink" width="500" zoomAndPan="magnify" viewBox="0 0 375 187.499995" height="250" preserveAspectRatio="xMidYMid meet" version="1.0"><defs><g/><clipPath id="id1"><path d="M 158.835938 30 L 216.429688 30 L 216.429688 85.3125 L 158.835938 85.3125 Z M 158.835938 30 " clip-rule="nonzero"/></clipPath></defs><g clip-path="url(#id1)"><path fill="rgb(0%, 0%, 0%)" d="M 184.671875 30.085938 C 184.289062 30.117188 183.960938 30.160156 183.945312 30.183594 C 183.929688 30.203125 183.628906 30.253906 183.273438 30.289062 C 182.921875 30.328125 182.429688 30.40625 182.183594 30.460938 C 181.9375 30.519531 181.605469 30.582031 181.445312 30.601562 C 181.285156 30.621094 181.152344 30.65625 181.152344 30.679688 C 181.152344 30.699219 180.9375 30.75 180.675781 30.789062 C 180.414062 30.832031 180.203125 30.882812 180.203125 30.90625 C 180.203125 30.925781 180.039062 30.976562 179.839844 31.011719 C 179.636719 31.050781 179.476562 31.097656 179.476562 31.117188 C 179.476562 31.140625 179.320312 31.1875 179.128906 31.226562 C 178.9375 31.265625 178.71875 31.332031 178.640625 31.371094 C 178.5625 31.410156 178.367188 31.472656 178.203125 31.507812 C 178.042969 31.546875 177.910156 31.597656 177.910156 31.621094 C 177.910156 31.640625 177.761719 31.691406 177.574219 31.730469 C 177.390625 31.769531 177.242188 31.820312 177.242188 31.84375 C 177.242188 31.867188 177.128906 31.914062 176.988281 31.949219 C 176.851562 31.980469 176.738281 32.03125 176.738281 32.054688 C 176.738281 32.082031 176.597656 32.136719 176.421875 32.175781 C 176.25 32.21875 176.078125 32.28125 176.042969 32.316406 C 176.007812 32.351562 175.917969 32.398438 175.839844 32.421875 C 175.652344 32.480469 175.09375 32.738281 175.0625 32.785156 C 175.046875 32.804688 174.9375 32.851562 174.824219 32.890625 C 174.707031 32.929688 174.613281 32.980469 174.613281 33.007812 C 174.613281 33.039062 174.582031 33.0625 174.546875 33.0625 C 174.507812 33.0625 174.265625 33.167969 174.011719 33.296875 C 173.351562 33.625 173.25 33.679688 173.21875 33.722656 C 173.203125 33.742188 173.109375 33.792969 173.007812 33.832031 C 172.90625 33.871094 172.824219 33.925781 172.824219 33.949219 C 172.824219 33.972656 172.769531 34.011719 172.699219 34.03125 C 172.632812 34.054688 172.5 34.125 172.40625 34.195312 C 172.316406 34.261719 172.183594 34.335938 172.113281 34.355469 C 172.042969 34.378906 171.988281 34.417969 171.988281 34.441406 C 171.988281 34.464844 171.914062 34.515625 171.820312 34.554688 C 171.726562 34.59375 171.652344 34.644531 171.652344 34.664062 C 171.652344 34.6875 171.578125 34.738281 171.484375 34.777344 C 171.394531 34.8125 171.316406 34.867188 171.316406 34.890625 C 171.316406 34.917969 171.222656 34.980469 171.109375 35.035156 C 170.992188 35.085938 170.878906 35.164062 170.855469 35.203125 C 170.828125 35.242188 170.773438 35.273438 170.726562 35.273438 C 170.679688 35.273438 170.628906 35.3125 170.613281 35.359375 C 170.59375 35.402344 170.546875 35.441406 170.503906 35.441406 C 170.464844 35.441406 170.394531 35.488281 170.355469 35.546875 C 170.3125 35.605469 170.210938 35.683594 170.128906 35.722656 C 170.042969 35.761719 169.976562 35.8125 169.976562 35.839844 C 169.976562 35.863281 169.914062 35.910156 169.835938 35.941406 C 169.757812 35.96875 169.679688 36.03125 169.660156 36.078125 C 169.644531 36.121094 169.597656 36.160156 169.554688 36.160156 C 169.515625 36.160156 169.445312 36.207031 169.40625 36.261719 C 169.367188 36.320312 169.28125 36.394531 169.214844 36.425781 C 169.148438 36.460938 168.984375 36.589844 168.851562 36.714844 C 168.71875 36.835938 168.511719 37.023438 168.398438 37.128906 C 168.28125 37.234375 168.171875 37.324219 168.15625 37.324219 C 168.101562 37.324219 165.898438 39.519531 165.898438 39.570312 C 165.898438 39.59375 165.835938 39.679688 165.757812 39.757812 C 165.464844 40.042969 165.117188 40.449219 165.117188 40.496094 C 165.117188 40.523438 165.054688 40.59375 164.976562 40.652344 C 164.898438 40.714844 164.835938 40.785156 164.835938 40.8125 C 164.835938 40.84375 164.796875 40.910156 164.75 40.960938 C 164.539062 41.191406 164.390625 41.394531 164.390625 41.449219 C 164.390625 41.476562 164.339844 41.535156 164.277344 41.574219 C 164.214844 41.609375 164.164062 41.675781 164.164062 41.71875 C 164.164062 41.761719 164.128906 41.808594 164.082031 41.828125 C 164.035156 41.84375 163.972656 41.921875 163.941406 42 C 163.914062 42.074219 163.867188 42.140625 163.84375 42.140625 C 163.816406 42.140625 163.761719 42.226562 163.71875 42.332031 C 163.675781 42.4375 163.621094 42.527344 163.59375 42.527344 C 163.570312 42.527344 163.523438 42.589844 163.496094 42.664062 C 163.464844 42.742188 163.421875 42.804688 163.394531 42.804688 C 163.371094 42.804688 163.3125 42.890625 163.273438 42.996094 C 163.230469 43.101562 163.164062 43.199219 163.125 43.214844 C 163.085938 43.226562 163.023438 43.339844 162.988281 43.464844 C 162.949219 43.585938 162.894531 43.6875 162.867188 43.6875 C 162.839844 43.6875 162.792969 43.761719 162.761719 43.855469 C 162.726562 43.945312 162.679688 44.019531 162.65625 44.019531 C 162.628906 44.019531 162.578125 44.109375 162.539062 44.214844 C 162.5 44.320312 162.449219 44.410156 162.425781 44.410156 C 162.378906 44.410156 161.988281 45.199219 161.988281 45.289062 C 161.988281 45.324219 161.964844 45.347656 161.9375 45.347656 C 161.910156 45.347656 161.859375 45.425781 161.828125 45.515625 C 161.796875 45.605469 161.742188 45.679688 161.710938 45.679688 C 161.679688 45.679688 161.652344 45.726562 161.652344 45.777344 C 161.652344 45.832031 161.574219 46.023438 161.484375 46.207031 C 161.390625 46.390625 161.316406 46.574219 161.316406 46.613281 C 161.316406 46.652344 161.28125 46.71875 161.238281 46.761719 C 161.199219 46.804688 161.128906 46.953125 161.085938 47.089844 C 161.046875 47.230469 160.996094 47.34375 160.972656 47.34375 C 160.953125 47.34375 160.90625 47.46875 160.871094 47.617188 C 160.832031 47.769531 160.78125 47.894531 160.757812 47.894531 C 160.730469 47.894531 160.679688 48.019531 160.640625 48.171875 C 160.601562 48.324219 160.550781 48.449219 160.53125 48.449219 C 160.511719 48.449219 160.460938 48.597656 160.421875 48.78125 C 160.382812 48.964844 160.332031 49.113281 160.3125 49.113281 C 160.292969 49.113281 160.230469 49.300781 160.175781 49.527344 C 160.121094 49.757812 160.058594 49.945312 160.039062 49.945312 C 160.015625 49.945312 159.964844 50.132812 159.925781 50.359375 C 159.886719 50.585938 159.835938 50.773438 159.8125 50.773438 C 159.785156 50.773438 159.730469 50.972656 159.691406 51.21875 C 159.652344 51.460938 159.601562 51.660156 159.582031 51.660156 C 159.5625 51.660156 159.515625 51.878906 159.476562 52.144531 C 159.441406 52.410156 159.375 52.753906 159.332031 52.90625 C 159.289062 53.058594 159.226562 53.507812 159.1875 53.902344 C 159.148438 54.296875 159.089844 54.640625 159.058594 54.660156 C 158.972656 54.71875 158.972656 60.617188 159.058594 60.671875 C 159.09375 60.691406 159.152344 61.023438 159.1875 61.402344 C 159.226562 61.785156 159.292969 62.21875 159.332031 62.371094 C 159.375 62.523438 159.441406 62.867188 159.476562 63.132812 C 159.515625 63.398438 159.5625 63.617188 159.582031 63.617188 C 159.601562 63.617188 159.652344 63.816406 159.691406 64.058594 C 159.730469 64.304688 159.78125 64.503906 159.804688 64.503906 C 159.828125 64.503906 159.878906 64.683594 159.921875 64.902344 C 159.960938 65.125 160.011719 65.316406 160.03125 65.332031 C 160.050781 65.347656 160.097656 65.503906 160.136719 65.683594 C 160.175781 65.859375 160.253906 66.109375 160.3125 66.238281 C 160.367188 66.363281 160.429688 66.5625 160.453125 66.675781 C 160.472656 66.789062 160.507812 66.882812 160.53125 66.882812 C 160.550781 66.882812 160.601562 67.011719 160.644531 67.171875 C 160.683594 67.332031 160.75 67.492188 160.789062 67.53125 C 160.828125 67.570312 160.875 67.699219 160.898438 67.824219 C 160.917969 67.945312 160.953125 68.046875 160.976562 68.046875 C 161 68.046875 161.050781 68.152344 161.09375 68.28125 C 161.132812 68.410156 161.199219 68.566406 161.238281 68.632812 C 161.277344 68.695312 161.335938 68.851562 161.371094 68.976562 C 161.402344 69.105469 161.453125 69.207031 161.476562 69.207031 C 161.5 69.207031 161.554688 69.308594 161.59375 69.429688 C 161.636719 69.550781 161.6875 69.652344 161.707031 69.652344 C 161.726562 69.652344 161.777344 69.75 161.820312 69.871094 C 161.859375 69.992188 161.910156 70.09375 161.933594 70.09375 C 161.957031 70.09375 162.019531 70.21875 162.070312 70.371094 C 162.121094 70.523438 162.183594 70.648438 162.203125 70.648438 C 162.226562 70.648438 162.28125 70.734375 162.320312 70.839844 C 162.363281 70.949219 162.417969 71.035156 162.4375 71.035156 C 162.460938 71.035156 162.503906 71.109375 162.535156 71.199219 C 162.570312 71.292969 162.621094 71.367188 162.648438 71.367188 C 162.679688 71.367188 162.71875 71.441406 162.742188 71.53125 C 162.761719 71.625 162.808594 71.71875 162.84375 71.738281 C 162.878906 71.761719 162.960938 71.886719 163.019531 72.015625 C 163.082031 72.144531 163.152344 72.25 163.175781 72.25 C 163.195312 72.253906 163.214844 72.28125 163.214844 72.316406 C 163.214844 72.351562 163.277344 72.460938 163.355469 72.5625 C 163.433594 72.660156 163.496094 72.769531 163.496094 72.804688 C 163.496094 72.835938 163.53125 72.878906 163.574219 72.894531 C 163.617188 72.910156 163.683594 72.996094 163.71875 73.085938 C 163.757812 73.175781 163.808594 73.25 163.832031 73.25 C 163.855469 73.25 163.914062 73.335938 163.964844 73.441406 C 164.015625 73.550781 164.082031 73.636719 164.113281 73.636719 C 164.140625 73.636719 164.164062 73.671875 164.164062 73.710938 C 164.164062 73.753906 164.265625 73.894531 164.390625 74.023438 C 164.511719 74.152344 164.613281 74.273438 164.613281 74.296875 C 164.613281 74.328125 164.730469 74.476562 165.03125 74.8125 C 165.078125 74.867188 165.117188 74.925781 165.117188 74.949219 C 165.117188 74.972656 165.164062 75.039062 165.222656 75.101562 C 165.28125 75.164062 165.445312 75.339844 165.589844 75.492188 C 165.734375 75.644531 165.90625 75.839844 165.972656 75.925781 C 166.132812 76.132812 168.070312 78.066406 168.121094 78.066406 C 168.144531 78.066406 168.246094 78.152344 168.351562 78.257812 C 168.453125 78.367188 168.5625 78.453125 168.589844 78.453125 C 168.617188 78.453125 168.730469 78.550781 168.84375 78.671875 C 168.957031 78.796875 169.070312 78.894531 169.097656 78.894531 C 169.121094 78.894531 169.210938 78.964844 169.296875 79.046875 C 169.457031 79.203125 169.605469 79.308594 169.753906 79.375 C 169.800781 79.398438 169.871094 79.457031 169.910156 79.515625 C 169.949219 79.570312 170.007812 79.613281 170.035156 79.613281 C 170.066406 79.613281 170.136719 79.660156 170.195312 79.710938 C 170.363281 79.863281 170.429688 79.914062 170.761719 80.132812 C 170.929688 80.242188 171.117188 80.375 171.179688 80.421875 C 171.238281 80.46875 171.347656 80.519531 171.414062 80.535156 C 171.484375 80.554688 171.542969 80.589844 171.542969 80.617188 C 171.542969 80.644531 171.605469 80.691406 171.679688 80.722656 C 171.757812 80.75 171.820312 80.796875 171.820312 80.820312 C 171.820312 80.847656 171.90625 80.902344 172.015625 80.941406 C 172.121094 80.984375 172.21875 81.050781 172.234375 81.089844 C 172.25 81.125 172.363281 81.1875 172.488281 81.226562 C 172.613281 81.261719 172.714844 81.316406 172.714844 81.34375 C 172.714844 81.371094 172.789062 81.417969 172.882812 81.449219 C 172.972656 81.480469 173.050781 81.527344 173.050781 81.546875 C 173.050781 81.570312 173.136719 81.621094 173.246094 81.664062 C 173.351562 81.703125 173.441406 81.757812 173.441406 81.78125 C 173.441406 81.804688 173.542969 81.855469 173.664062 81.890625 C 173.789062 81.925781 173.886719 81.976562 173.886719 82 C 173.886719 82.019531 174.011719 82.085938 174.167969 82.140625 C 174.320312 82.195312 174.445312 82.253906 174.445312 82.273438 C 174.445312 82.292969 174.546875 82.34375 174.671875 82.382812 C 174.792969 82.421875 174.894531 82.472656 174.894531 82.492188 C 174.894531 82.515625 174.992188 82.5625 175.117188 82.605469 C 175.238281 82.644531 175.339844 82.699219 175.339844 82.722656 C 175.339844 82.746094 175.453125 82.796875 175.59375 82.832031 C 175.730469 82.867188 175.84375 82.914062 175.84375 82.9375 C 175.84375 82.957031 176.007812 83.023438 176.207031 83.082031 C 176.40625 83.136719 176.570312 83.199219 176.570312 83.21875 C 176.570312 83.238281 176.683594 83.289062 176.820312 83.328125 C 176.960938 83.371094 177.074219 83.417969 177.074219 83.4375 C 177.074219 83.457031 177.210938 83.503906 177.378906 83.546875 C 177.550781 83.585938 177.6875 83.632812 177.6875 83.652344 C 177.6875 83.675781 177.816406 83.722656 177.972656 83.761719 C 178.132812 83.804688 178.324219 83.867188 178.398438 83.90625 C 178.476562 83.945312 178.699219 84.011719 178.894531 84.046875 C 179.089844 84.085938 179.25 84.136719 179.25 84.15625 C 179.25 84.179688 179.414062 84.226562 179.613281 84.265625 C 179.816406 84.300781 179.976562 84.351562 179.976562 84.371094 C 179.976562 84.394531 180.179688 84.441406 180.425781 84.484375 C 180.671875 84.523438 180.871094 84.570312 180.871094 84.59375 C 180.871094 84.613281 181.097656 84.664062 181.375 84.703125 C 181.652344 84.738281 181.890625 84.789062 181.902344 84.8125 C 181.917969 84.835938 182.277344 84.898438 182.699219 84.953125 C 183.125 85.007812 183.519531 85.070312 183.582031 85.097656 C 184.191406 85.355469 191.878906 85.347656 191.878906 85.085938 C 191.878906 85.0625 191.964844 85.039062 192.074219 85.039062 C 192.351562 85.039062 193.453125 84.878906 193.582031 84.816406 C 193.644531 84.789062 193.902344 84.738281 194.15625 84.703125 C 194.410156 84.667969 194.617188 84.621094 194.617188 84.597656 C 194.617188 84.578125 194.800781 84.527344 195.023438 84.488281 C 195.246094 84.449219 195.457031 84.394531 195.492188 84.367188 C 195.527344 84.339844 195.707031 84.289062 195.894531 84.257812 C 196.082031 84.222656 196.238281 84.179688 196.238281 84.15625 C 196.238281 84.132812 196.394531 84.082031 196.585938 84.046875 C 196.777344 84.007812 197.042969 83.929688 197.171875 83.871094 C 197.304688 83.8125 197.484375 83.75 197.578125 83.730469 C 197.671875 83.710938 197.746094 83.679688 197.746094 83.660156 C 197.746094 83.636719 197.871094 83.589844 198.023438 83.550781 C 198.179688 83.511719 198.304688 83.460938 198.304688 83.441406 C 198.304688 83.417969 198.429688 83.367188 198.585938 83.328125 C 198.738281 83.289062 198.863281 83.242188 198.863281 83.21875 C 198.863281 83.199219 198.984375 83.148438 199.128906 83.105469 C 199.273438 83.0625 199.503906 82.96875 199.640625 82.898438 C 199.773438 82.828125 199.917969 82.769531 199.960938 82.769531 C 200.003906 82.769531 200.035156 82.75 200.035156 82.722656 C 200.035156 82.695312 200.148438 82.640625 200.289062 82.605469 C 200.425781 82.566406 200.539062 82.511719 200.539062 82.488281 C 200.539062 82.464844 200.640625 82.414062 200.761719 82.375 C 200.886719 82.339844 200.988281 82.292969 200.988281 82.273438 C 200.988281 82.253906 201.09375 82.191406 201.222656 82.136719 C 201.355469 82.078125 201.472656 82.015625 201.488281 81.992188 C 201.503906 81.96875 201.605469 81.914062 201.714844 81.867188 C 201.921875 81.773438 202.226562 81.601562 202.273438 81.546875 C 202.285156 81.53125 202.382812 81.480469 202.480469 81.4375 C 202.582031 81.394531 202.664062 81.34375 202.664062 81.324219 C 202.664062 81.308594 202.769531 81.246094 202.898438 81.1875 C 203.03125 81.132812 203.15625 81.054688 203.183594 81.015625 C 203.207031 80.976562 203.265625 80.941406 203.308594 80.941406 C 203.355469 80.941406 203.40625 80.90625 203.425781 80.859375 C 203.441406 80.816406 203.480469 80.777344 203.511719 80.777344 C 203.558594 80.777344 203.933594 80.535156 204.140625 80.371094 C 204.195312 80.332031 204.460938 80.160156 204.671875 80.03125 C 204.78125 79.960938 204.925781 79.847656 205.085938 79.695312 C 205.152344 79.628906 205.25 79.5625 205.304688 79.542969 C 205.355469 79.523438 205.402344 79.484375 205.402344 79.457031 C 205.402344 79.429688 205.476562 79.375 205.570312 79.335938 C 205.664062 79.300781 205.765625 79.222656 205.796875 79.164062 C 205.828125 79.109375 205.878906 79.0625 205.914062 79.0625 C 205.945312 79.0625 206.058594 78.972656 206.160156 78.867188 C 206.261719 78.761719 206.367188 78.671875 206.398438 78.671875 C 206.429688 78.671875 206.488281 78.628906 206.527344 78.578125 C 206.570312 78.523438 206.726562 78.378906 206.878906 78.257812 C 207.167969 78.03125 207.578125 77.621094 207.578125 77.5625 C 207.578125 77.542969 207.648438 77.496094 207.734375 77.453125 C 207.894531 77.367188 208.195312 77.101562 208.195312 77.039062 C 208.195312 76.996094 208.441406 76.71875 208.632812 76.550781 C 208.9375 76.277344 209.367188 75.835938 209.367188 75.792969 C 209.367188 75.765625 209.480469 75.625 209.617188 75.480469 C 209.757812 75.332031 209.957031 75.121094 210.066406 75.007812 C 210.171875 74.890625 210.261719 74.777344 210.261719 74.746094 C 210.261719 74.71875 210.324219 74.648438 210.402344 74.585938 C 210.476562 74.527344 210.542969 74.457031 210.542969 74.429688 C 210.542969 74.40625 210.601562 74.308594 210.679688 74.21875 C 210.753906 74.125 210.859375 73.992188 210.914062 73.921875 C 210.972656 73.847656 211.054688 73.746094 211.101562 73.695312 C 211.222656 73.554688 211.320312 73.398438 211.359375 73.289062 C 211.378906 73.238281 211.414062 73.195312 211.441406 73.195312 C 211.472656 73.195312 211.519531 73.132812 211.546875 73.054688 C 211.574219 72.980469 211.621094 72.917969 211.644531 72.917969 C 211.671875 72.917969 211.722656 72.828125 211.761719 72.722656 C 211.800781 72.617188 211.855469 72.527344 211.878906 72.527344 C 211.902344 72.527344 211.957031 72.453125 211.992188 72.363281 C 212.03125 72.273438 212.078125 72.195312 212.097656 72.195312 C 212.121094 72.195312 212.183594 72.105469 212.246094 71.988281 C 212.304688 71.875 212.367188 71.769531 212.382812 71.753906 C 212.398438 71.738281 212.449219 71.652344 212.496094 71.5625 C 212.542969 71.46875 212.613281 71.363281 212.648438 71.320312 C 212.6875 71.28125 212.71875 71.214844 212.71875 71.171875 C 212.71875 71.128906 212.753906 71.074219 212.792969 71.050781 C 212.832031 71.027344 212.902344 70.917969 212.945312 70.8125 C 212.988281 70.707031 213.050781 70.59375 213.089844 70.5625 C 213.125 70.535156 213.183594 70.414062 213.222656 70.300781 C 213.257812 70.1875 213.308594 70.09375 213.332031 70.09375 C 213.355469 70.09375 213.40625 69.992188 213.445312 69.871094 C 213.488281 69.75 213.539062 69.652344 213.558594 69.652344 C 213.578125 69.652344 213.628906 69.550781 213.671875 69.429688 C 213.710938 69.308594 213.757812 69.207031 213.777344 69.207031 C 213.796875 69.207031 213.847656 69.097656 213.886719 68.957031 C 213.929688 68.820312 213.980469 68.710938 214 68.710938 C 214.023438 68.710938 214.085938 68.558594 214.140625 68.378906 C 214.195312 68.195312 214.257812 68.046875 214.28125 68.046875 C 214.300781 68.046875 214.355469 67.921875 214.394531 67.769531 C 214.4375 67.617188 214.492188 67.492188 214.515625 67.492188 C 214.539062 67.492188 214.585938 67.355469 214.625 67.1875 C 214.664062 67.019531 214.710938 66.882812 214.734375 66.882812 C 214.757812 66.882812 214.792969 66.78125 214.816406 66.660156 C 214.835938 66.539062 214.886719 66.40625 214.925781 66.363281 C 214.96875 66.324219 215.046875 66.085938 215.101562 65.839844 C 215.152344 65.589844 215.214844 65.386719 215.234375 65.386719 C 215.253906 65.386719 215.304688 65.207031 215.347656 64.988281 C 215.390625 64.765625 215.445312 64.570312 215.46875 64.554688 C 215.496094 64.535156 215.546875 64.347656 215.578125 64.136719 C 215.609375 63.925781 215.65625 63.742188 215.675781 63.726562 C 215.699219 63.710938 215.75 63.488281 215.789062 63.230469 C 215.832031 62.972656 215.886719 62.722656 215.910156 62.675781 C 215.960938 62.574219 216.128906 61.234375 216.128906 60.921875 C 216.128906 60.792969 216.152344 60.683594 216.179688 60.671875 C 216.351562 60.613281 216.359375 54.765625 216.1875 54.648438 C 216.167969 54.632812 216.105469 54.222656 216.050781 53.738281 C 216 53.253906 215.933594 52.828125 215.90625 52.796875 C 215.882812 52.765625 215.828125 52.507812 215.792969 52.226562 C 215.753906 51.945312 215.699219 51.714844 215.671875 51.714844 C 215.648438 51.714844 215.625 51.660156 215.625 51.59375 C 215.625 51.40625 215.496094 50.828125 215.453125 50.828125 C 215.433594 50.828125 215.382812 50.628906 215.34375 50.386719 C 215.304688 50.144531 215.25 49.945312 215.230469 49.945312 C 215.207031 49.945312 215.144531 49.757812 215.089844 49.527344 C 215.035156 49.300781 214.972656 49.113281 214.953125 49.113281 C 214.929688 49.113281 214.882812 48.964844 214.84375 48.78125 C 214.804688 48.597656 214.753906 48.449219 214.734375 48.449219 C 214.714844 48.449219 214.664062 48.324219 214.625 48.171875 C 214.585938 48.019531 214.53125 47.894531 214.507812 47.894531 C 214.480469 47.894531 214.429688 47.757812 214.390625 47.589844 C 214.355469 47.425781 214.304688 47.285156 214.285156 47.285156 C 214.265625 47.285156 214.210938 47.179688 214.171875 47.050781 C 214.128906 46.921875 214.011719 46.660156 213.914062 46.472656 C 213.816406 46.28125 213.703125 46.03125 213.667969 45.917969 C 213.628906 45.804688 213.582031 45.695312 213.5625 45.679688 C 213.542969 45.667969 213.425781 45.453125 213.304688 45.210938 C 213.183594 44.96875 213.070312 44.753906 213.054688 44.742188 C 213.035156 44.726562 212.9375 44.542969 212.835938 44.339844 C 212.738281 44.132812 212.632812 43.964844 212.609375 43.964844 C 212.585938 43.964844 212.550781 43.90625 212.53125 43.832031 C 212.511719 43.757812 212.460938 43.660156 212.417969 43.621094 C 212.375 43.578125 212.28125 43.4375 212.210938 43.304688 C 211.949219 42.835938 211.828125 42.648438 211.679688 42.503906 C 211.648438 42.46875 211.585938 42.382812 211.546875 42.308594 C 211.507812 42.234375 211.453125 42.148438 211.425781 42.113281 C 211.402344 42.082031 211.285156 41.917969 211.171875 41.753906 C 210.929688 41.390625 210.886719 41.335938 210.722656 41.171875 C 210.652344 41.101562 210.597656 41.019531 210.597656 40.988281 C 210.597656 40.953125 210.5625 40.90625 210.523438 40.882812 C 210.480469 40.859375 210.398438 40.761719 210.339844 40.671875 C 210.285156 40.582031 210.203125 40.484375 210.164062 40.460938 C 210.125 40.4375 210.09375 40.386719 210.09375 40.351562 C 210.09375 40.3125 209.992188 40.199219 209.871094 40.089844 C 209.75 39.984375 209.648438 39.875 209.648438 39.851562 C 209.648438 39.828125 209.519531 39.679688 209.367188 39.527344 C 209.214844 39.371094 209.089844 39.222656 209.089844 39.195312 C 209.089844 39.167969 208.984375 39.054688 208.855469 38.941406 C 208.730469 38.828125 208.570312 38.675781 208.507812 38.601562 C 208.441406 38.53125 208.230469 38.316406 208.035156 38.132812 C 207.839844 37.945312 207.628906 37.738281 207.5625 37.667969 C 207.5 37.601562 207.429688 37.542969 207.40625 37.542969 C 207.386719 37.542969 207.207031 37.394531 207.011719 37.210938 C 206.382812 36.621094 206.238281 36.492188 206.191406 36.492188 C 206.167969 36.492188 206.09375 36.4375 206.03125 36.367188 C 205.964844 36.300781 205.820312 36.179688 205.707031 36.105469 C 205.59375 36.027344 205.441406 35.910156 205.375 35.84375 C 205.304688 35.773438 205.222656 35.71875 205.1875 35.71875 C 205.152344 35.71875 205.105469 35.6875 205.082031 35.648438 C 205.023438 35.558594 204.535156 35.21875 204.460938 35.21875 C 204.429688 35.21875 204.390625 35.183594 204.375 35.136719 C 204.355469 35.089844 204.308594 35.054688 204.269531 35.054688 C 204.230469 35.054688 204.113281 34.976562 204.003906 34.886719 C 203.894531 34.796875 203.78125 34.722656 203.746094 34.722656 C 203.710938 34.722656 203.667969 34.6875 203.648438 34.644531 C 203.632812 34.601562 203.542969 34.550781 203.449219 34.527344 C 203.355469 34.507812 203.277344 34.464844 203.277344 34.4375 C 203.277344 34.40625 203.203125 34.355469 203.109375 34.324219 C 203.019531 34.292969 202.941406 34.246094 202.941406 34.21875 C 202.941406 34.195312 202.847656 34.128906 202.734375 34.074219 C 202.617188 34.023438 202.511719 33.964844 202.496094 33.945312 C 202.480469 33.925781 202.386719 33.875 202.285156 33.832031 C 202.1875 33.789062 202.105469 33.734375 202.105469 33.714844 C 202.105469 33.695312 202.015625 33.648438 201.910156 33.613281 C 201.800781 33.578125 201.714844 33.527344 201.714844 33.503906 C 201.714844 33.476562 201.636719 33.441406 201.546875 33.421875 C 201.453125 33.398438 201.359375 33.351562 201.335938 33.3125 C 201.3125 33.273438 201.175781 33.199219 201.027344 33.144531 C 200.882812 33.089844 200.761719 33.027344 200.761719 33.007812 C 200.761719 32.984375 200.664062 32.9375 200.539062 32.902344 C 200.417969 32.863281 200.316406 32.816406 200.316406 32.789062 C 200.316406 32.765625 200.214844 32.714844 200.09375 32.671875 C 199.96875 32.632812 199.871094 32.578125 199.871094 32.554688 C 199.871094 32.527344 199.828125 32.507812 199.777344 32.507812 C 199.726562 32.507812 199.554688 32.445312 199.398438 32.371094 C 199.238281 32.296875 199.003906 32.207031 198.875 32.164062 C 198.746094 32.125 198.640625 32.078125 198.640625 32.054688 C 198.640625 32.035156 198.507812 31.988281 198.347656 31.949219 C 198.1875 31.914062 198.023438 31.851562 197.984375 31.8125 C 197.949219 31.773438 197.816406 31.726562 197.691406 31.703125 C 197.566406 31.683594 197.464844 31.648438 197.464844 31.625 C 197.464844 31.601562 197.328125 31.554688 197.160156 31.515625 C 196.992188 31.476562 196.785156 31.414062 196.699219 31.371094 C 196.613281 31.332031 196.386719 31.269531 196.195312 31.230469 C 196.003906 31.195312 195.847656 31.144531 195.847656 31.125 C 195.847656 31.101562 195.671875 31.050781 195.457031 31.011719 C 195.238281 30.972656 195.0625 30.921875 195.0625 30.902344 C 195.0625 30.882812 194.863281 30.832031 194.617188 30.792969 C 194.371094 30.753906 194.171875 30.703125 194.171875 30.683594 C 194.171875 30.660156 193.925781 30.613281 193.625 30.570312 C 193.324219 30.53125 192.980469 30.46875 192.855469 30.429688 C 192.734375 30.386719 192.332031 30.324219 191.964844 30.289062 C 191.59375 30.25 191.28125 30.203125 191.265625 30.179688 C 191.15625 30.03125 186.269531 29.964844 184.671875 30.085938 M 190.59375 35.054688 C 190.976562 35.09375 191.304688 35.140625 191.320312 35.160156 C 191.335938 35.179688 191.613281 35.230469 191.933594 35.269531 C 192.257812 35.308594 192.535156 35.355469 192.550781 35.378906 C 192.566406 35.398438 192.777344 35.449219 193.023438 35.492188 C 193.269531 35.53125 193.484375 35.582031 193.5 35.605469 C 193.515625 35.628906 193.710938 35.679688 193.933594 35.714844 C 194.15625 35.753906 194.335938 35.800781 194.335938 35.820312 C 194.335938 35.839844 194.550781 35.90625 194.8125 35.960938 C 195.074219 36.019531 195.289062 36.082031 195.289062 36.105469 C 195.289062 36.125 195.425781 36.175781 195.59375 36.214844 C 195.765625 36.257812 195.902344 36.308594 195.902344 36.328125 C 195.902344 36.351562 196.035156 36.402344 196.195312 36.441406 C 196.355469 36.476562 196.519531 36.542969 196.558594 36.582031 C 196.597656 36.621094 196.71875 36.671875 196.824219 36.691406 C 196.933594 36.710938 197.019531 36.746094 197.019531 36.769531 C 197.019531 36.792969 197.171875 36.859375 197.355469 36.914062 C 197.539062 36.96875 197.691406 37.03125 197.691406 37.054688 C 197.691406 37.078125 197.789062 37.125 197.914062 37.164062 C 198.035156 37.199219 198.136719 37.25 198.136719 37.273438 C 198.136719 37.296875 198.226562 37.34375 198.332031 37.378906 C 198.441406 37.414062 198.527344 37.464844 198.527344 37.488281 C 198.527344 37.515625 198.605469 37.550781 198.695312 37.570312 C 198.789062 37.59375 198.894531 37.636719 198.933594 37.675781 C 198.972656 37.710938 199.109375 37.785156 199.242188 37.84375 C 199.371094 37.902344 199.476562 37.964844 199.476562 37.984375 C 199.476562 38.003906 199.566406 38.054688 199.671875 38.097656 C 199.78125 38.140625 199.871094 38.195312 199.871094 38.21875 C 199.871094 38.242188 199.902344 38.265625 199.941406 38.265625 C 199.984375 38.265625 200.117188 38.339844 200.238281 38.429688 C 200.355469 38.519531 200.488281 38.59375 200.527344 38.59375 C 200.5625 38.59375 200.59375 38.621094 200.59375 38.648438 C 200.59375 38.679688 200.691406 38.746094 200.804688 38.796875 C 200.921875 38.851562 201.035156 38.925781 201.058594 38.964844 C 201.082031 39.007812 201.140625 39.039062 201.183594 39.039062 C 201.226562 39.039062 201.28125 39.070312 201.304688 39.109375 C 201.328125 39.144531 201.425781 39.214844 201.515625 39.261719 C 201.609375 39.304688 201.71875 39.386719 201.757812 39.441406 C 201.796875 39.492188 201.855469 39.535156 201.882812 39.535156 C 201.910156 39.535156 201.992188 39.59375 202.066406 39.660156 C 202.257812 39.839844 202.515625 40.035156 202.5625 40.035156 C 202.582031 40.035156 202.707031 40.136719 202.839844 40.261719 C 202.972656 40.382812 203.1875 40.582031 203.316406 40.703125 C 203.445312 40.824219 203.566406 40.921875 203.585938 40.921875 C 203.632812 40.921875 205.402344 42.667969 205.402344 42.714844 C 205.402344 42.730469 205.496094 42.84375 205.609375 42.964844 C 205.976562 43.34375 206.238281 43.648438 206.238281 43.691406 C 206.238281 43.714844 206.300781 43.792969 206.378906 43.863281 C 206.453125 43.933594 206.515625 44.023438 206.515625 44.058594 C 206.519531 44.097656 206.570312 44.15625 206.628906 44.1875 C 206.691406 44.21875 206.742188 44.28125 206.742188 44.328125 C 206.742188 44.371094 206.792969 44.4375 206.851562 44.476562 C 206.914062 44.515625 206.964844 44.570312 206.964844 44.601562 C 206.964844 44.632812 207.027344 44.730469 207.101562 44.816406 C 207.179688 44.902344 207.253906 45.019531 207.273438 45.074219 C 207.289062 45.128906 207.339844 45.1875 207.386719 45.203125 C 207.429688 45.222656 207.46875 45.261719 207.46875 45.296875 C 207.46875 45.328125 207.53125 45.4375 207.609375 45.539062 C 207.683594 45.636719 207.746094 45.742188 207.746094 45.765625 C 207.746094 45.816406 208.011719 46.21875 208.121094 46.332031 C 208.15625 46.371094 208.203125 46.476562 208.222656 46.566406 C 208.242188 46.660156 208.277344 46.734375 208.304688 46.734375 C 208.328125 46.734375 208.492188 47.027344 208.671875 47.382812 C 208.851562 47.742188 209.015625 48.046875 209.035156 48.0625 C 209.054688 48.078125 209.101562 48.183594 209.140625 48.296875 C 209.179688 48.410156 209.230469 48.503906 209.257812 48.503906 C 209.28125 48.503906 209.320312 48.585938 209.339844 48.683594 C 209.363281 48.785156 209.425781 48.953125 209.480469 49.058594 C 209.539062 49.164062 209.613281 49.351562 209.652344 49.472656 C 209.6875 49.59375 209.753906 49.746094 209.792969 49.804688 C 209.832031 49.867188 209.878906 50.007812 209.902344 50.125 C 209.921875 50.238281 209.957031 50.332031 209.980469 50.332031 C 210.003906 50.332031 210.054688 50.480469 210.09375 50.664062 C 210.132812 50.847656 210.183594 50.996094 210.207031 50.996094 C 210.230469 50.996094 210.292969 51.214844 210.347656 51.480469 C 210.40625 51.746094 210.46875 51.976562 210.492188 51.996094 C 210.519531 52.011719 210.570312 52.210938 210.605469 52.4375 C 210.644531 52.664062 210.691406 52.863281 210.710938 52.878906 C 210.75 52.914062 210.875 53.589844 210.875 53.777344 C 210.875 53.855469 210.898438 53.929688 210.929688 53.9375 C 210.957031 53.949219 211.011719 54.320312 211.046875 54.761719 C 211.085938 55.203125 211.144531 55.578125 211.175781 55.601562 C 211.261719 55.65625 211.265625 59.730469 211.179688 59.785156 C 211.148438 59.808594 211.085938 60.171875 211.046875 60.601562 C 211.007812 61.027344 210.957031 61.386719 210.933594 61.402344 C 210.910156 61.417969 210.859375 61.671875 210.820312 61.96875 C 210.777344 62.265625 210.726562 62.511719 210.707031 62.511719 C 210.6875 62.511719 210.636719 62.691406 210.597656 62.910156 C 210.558594 63.132812 210.511719 63.335938 210.488281 63.367188 C 210.464844 63.398438 210.402344 63.640625 210.347656 63.90625 C 210.292969 64.175781 210.230469 64.390625 210.207031 64.390625 C 210.1875 64.390625 210.132812 64.527344 210.09375 64.695312 C 210.054688 64.863281 210.003906 65 209.980469 65 C 209.960938 65 209.910156 65.136719 209.871094 65.304688 C 209.828125 65.472656 209.78125 65.609375 209.761719 65.609375 C 209.742188 65.609375 209.691406 65.726562 209.648438 65.871094 C 209.605469 66.015625 209.527344 66.210938 209.472656 66.300781 C 209.421875 66.394531 209.363281 66.546875 209.339844 66.648438 C 209.320312 66.746094 209.285156 66.828125 209.261719 66.828125 C 209.238281 66.828125 209.183594 66.925781 209.144531 67.050781 C 209.105469 67.171875 209.050781 67.269531 209.03125 67.269531 C 209.007812 67.269531 208.976562 67.339844 208.960938 67.421875 C 208.941406 67.507812 208.878906 67.632812 208.816406 67.703125 C 208.753906 67.773438 208.6875 67.90625 208.667969 67.996094 C 208.648438 68.082031 208.613281 68.15625 208.589844 68.15625 C 208.5625 68.15625 208.5 68.269531 208.449219 68.40625 C 208.394531 68.542969 208.332031 68.652344 208.308594 68.652344 C 208.28125 68.652344 208.234375 68.730469 208.203125 68.820312 C 208.171875 68.910156 208.121094 68.988281 208.097656 68.988281 C 208.070312 68.988281 208.015625 69.074219 207.976562 69.179688 C 207.941406 69.285156 207.886719 69.375 207.859375 69.375 C 207.832031 69.375 207.792969 69.429688 207.773438 69.5 C 207.75 69.566406 207.675781 69.703125 207.601562 69.800781 C 207.527344 69.894531 207.46875 70 207.46875 70.03125 C 207.46875 70.0625 207.4375 70.109375 207.398438 70.132812 C 207.359375 70.15625 207.289062 70.25 207.246094 70.34375 C 207.199219 70.433594 207.128906 70.527344 207.089844 70.554688 C 207.050781 70.578125 207.019531 70.625 207.019531 70.65625 C 207.019531 70.691406 206.964844 70.777344 206.894531 70.847656 C 206.683594 71.066406 206.585938 71.1875 206.515625 71.320312 C 206.476562 71.390625 206.410156 71.46875 206.371094 71.496094 C 206.328125 71.519531 206.292969 71.5625 206.292969 71.59375 C 206.292969 71.625 206.207031 71.742188 206.101562 71.855469 C 205.75 72.222656 205.511719 72.496094 205.511719 72.53125 C 205.511719 72.582031 203.492188 74.578125 203.445312 74.578125 C 203.40625 74.578125 203.191406 74.757812 202.820312 75.105469 C 202.707031 75.210938 202.59375 75.296875 202.566406 75.296875 C 202.542969 75.296875 202.480469 75.34375 202.433594 75.398438 C 202.382812 75.453125 202.214844 75.582031 202.058594 75.683594 C 201.898438 75.785156 201.769531 75.890625 201.769531 75.914062 C 201.769531 75.941406 201.734375 75.960938 201.6875 75.960938 C 201.644531 75.960938 201.574219 76.003906 201.535156 76.058594 C 201.496094 76.113281 201.386719 76.191406 201.292969 76.238281 C 201.203125 76.285156 201.105469 76.351562 201.082031 76.390625 C 201.058594 76.429688 201.007812 76.460938 200.976562 76.460938 C 200.941406 76.460938 200.835938 76.515625 200.742188 76.589844 C 200.644531 76.660156 200.523438 76.734375 200.46875 76.753906 C 200.417969 76.773438 200.371094 76.8125 200.371094 76.84375 C 200.371094 76.875 200.335938 76.902344 200.289062 76.902344 C 200.242188 76.902344 200.15625 76.953125 200.09375 77.011719 C 200.035156 77.070312 199.917969 77.136719 199.839844 77.15625 C 199.757812 77.175781 199.679688 77.222656 199.667969 77.261719 C 199.652344 77.300781 199.539062 77.363281 199.414062 77.402344 C 199.289062 77.445312 199.175781 77.507812 199.160156 77.542969 C 199.148438 77.578125 199.039062 77.640625 198.917969 77.679688 C 198.796875 77.71875 198.695312 77.765625 198.695312 77.789062 C 198.695312 77.808594 198.59375 77.859375 198.472656 77.898438 C 198.347656 77.9375 198.25 77.992188 198.25 78.015625 C 198.25 78.039062 198.148438 78.089844 198.023438 78.125 C 197.902344 78.164062 197.800781 78.210938 197.800781 78.234375 C 197.800781 78.257812 197.664062 78.316406 197.496094 78.367188 C 197.324219 78.414062 197.1875 78.476562 197.1875 78.503906 C 197.1875 78.53125 197.105469 78.570312 197.003906 78.59375 C 196.90625 78.617188 196.738281 78.679688 196.628906 78.738281 C 196.523438 78.792969 196.351562 78.855469 196.253906 78.875 C 196.152344 78.890625 196.070312 78.925781 196.070312 78.945312 C 196.070312 78.96875 195.945312 79.015625 195.789062 79.054688 C 195.636719 79.09375 195.511719 79.144531 195.511719 79.167969 C 195.511719 79.191406 195.296875 79.257812 195.035156 79.316406 C 194.773438 79.371094 194.5625 79.433594 194.5625 79.453125 C 194.5625 79.472656 194.402344 79.519531 194.210938 79.558594 C 194.019531 79.597656 193.835938 79.648438 193.808594 79.671875 C 193.777344 79.695312 193.570312 79.746094 193.347656 79.785156 C 193.125 79.820312 192.941406 79.871094 192.941406 79.890625 C 192.941406 79.910156 192.695312 79.960938 192.394531 80 C 192.097656 80.039062 191.839844 80.089844 191.824219 80.113281 C 191.789062 80.160156 190.167969 80.335938 189.746094 80.335938 C 189.570312 80.335938 189.421875 80.359375 189.410156 80.390625 C 189.386719 80.464844 185.863281 80.472656 185.769531 80.398438 C 185.734375 80.371094 185.464844 80.332031 185.175781 80.3125 C 184.3125 80.253906 183.441406 80.152344 183.441406 80.113281 C 183.441406 80.09375 183.191406 80.042969 182.882812 80.003906 C 182.574219 79.960938 182.324219 79.910156 182.324219 79.890625 C 182.324219 79.871094 182.140625 79.820312 181.917969 79.785156 C 181.695312 79.746094 181.488281 79.695312 181.457031 79.671875 C 181.429688 79.648438 181.234375 79.597656 181.027344 79.554688 C 180.816406 79.515625 180.648438 79.46875 180.648438 79.449219 C 180.648438 79.425781 180.449219 79.367188 180.203125 79.308594 C 179.957031 79.253906 179.753906 79.191406 179.753906 79.167969 C 179.753906 79.144531 179.628906 79.097656 179.476562 79.0625 C 179.320312 79.023438 179.195312 78.972656 179.195312 78.949219 C 179.195312 78.925781 179.09375 78.886719 178.972656 78.867188 C 178.847656 78.847656 178.710938 78.796875 178.671875 78.753906 C 178.628906 78.710938 178.476562 78.648438 178.335938 78.613281 C 178.195312 78.578125 178.078125 78.53125 178.078125 78.503906 C 178.078125 78.480469 177.941406 78.421875 177.769531 78.371094 C 177.601562 78.324219 177.464844 78.261719 177.464844 78.238281 C 177.464844 78.214844 177.363281 78.164062 177.242188 78.125 C 177.117188 78.089844 177.015625 78.039062 177.015625 78.015625 C 177.015625 77.992188 176.917969 77.9375 176.792969 77.898438 C 176.671875 77.859375 176.570312 77.808594 176.570312 77.789062 C 176.570312 77.765625 176.46875 77.71875 176.347656 77.679688 C 176.226562 77.640625 176.117188 77.578125 176.105469 77.542969 C 176.089844 77.507812 175.976562 77.445312 175.851562 77.402344 C 175.726562 77.363281 175.613281 77.300781 175.597656 77.261719 C 175.585938 77.222656 175.507812 77.175781 175.425781 77.15625 C 175.347656 77.136719 175.230469 77.070312 175.171875 77.011719 C 175.109375 76.953125 175.027344 76.902344 174.984375 76.902344 C 174.941406 76.902344 174.890625 76.863281 174.875 76.820312 C 174.855469 76.773438 174.804688 76.734375 174.761719 76.734375 C 174.71875 76.734375 174.65625 76.703125 174.617188 76.660156 C 174.582031 76.617188 174.464844 76.539062 174.359375 76.488281 C 174.253906 76.441406 174.167969 76.375 174.167969 76.347656 C 174.167969 76.316406 174.132812 76.292969 174.085938 76.292969 C 174.042969 76.292969 173.972656 76.25 173.933594 76.195312 C 173.894531 76.144531 173.785156 76.0625 173.695312 76.015625 C 173.535156 75.9375 173.476562 75.894531 173.222656 75.675781 C 173.164062 75.625 173.054688 75.550781 172.984375 75.515625 C 172.914062 75.476562 172.820312 75.398438 172.78125 75.34375 C 172.742188 75.289062 172.683594 75.242188 172.652344 75.242188 C 172.621094 75.242188 172.511719 75.15625 172.410156 75.046875 C 172.308594 74.941406 172.203125 74.855469 172.175781 74.851562 C 172.148438 74.851562 172.007812 74.726562 171.855469 74.578125 C 171.707031 74.425781 171.566406 74.300781 171.542969 74.300781 C 171.488281 74.300781 170.3125 73.132812 170.3125 73.078125 C 170.3125 73.054688 170.125 72.851562 169.894531 72.625 C 169.664062 72.398438 169.472656 72.191406 169.472656 72.167969 C 169.472656 72.140625 169.410156 72.054688 169.332031 71.976562 C 169.070312 71.714844 168.804688 71.414062 168.804688 71.375 C 168.804688 71.355469 168.726562 71.253906 168.636719 71.144531 C 168.542969 71.039062 168.46875 70.9375 168.46875 70.917969 C 168.46875 70.902344 168.40625 70.8125 168.328125 70.726562 C 168.25 70.636719 168.1875 70.53125 168.1875 70.496094 C 168.1875 70.457031 168.164062 70.425781 168.132812 70.425781 C 168.101562 70.425781 168.050781 70.363281 168.019531 70.289062 C 167.992188 70.210938 167.945312 70.148438 167.917969 70.148438 C 167.890625 70.148438 167.824219 70.050781 167.769531 69.925781 C 167.714844 69.804688 167.652344 69.707031 167.628906 69.707031 C 167.605469 69.707031 167.554688 69.632812 167.519531 69.539062 C 167.480469 69.449219 167.429688 69.375 167.410156 69.375 C 167.390625 69.375 167.335938 69.285156 167.292969 69.179688 C 167.253906 69.074219 167.199219 68.988281 167.179688 68.988281 C 167.15625 68.988281 167.109375 68.910156 167.070312 68.820312 C 167.03125 68.730469 166.980469 68.652344 166.957031 68.652344 C 166.933594 68.652344 166.894531 68.578125 166.875 68.484375 C 166.851562 68.386719 166.792969 68.265625 166.738281 68.210938 C 166.683594 68.15625 166.605469 68.023438 166.570312 67.914062 C 166.535156 67.804688 166.484375 67.714844 166.460938 67.714844 C 166.4375 67.714844 166.386719 67.613281 166.351562 67.492188 C 166.316406 67.371094 166.261719 67.269531 166.238281 67.269531 C 166.210938 67.269531 166.160156 67.160156 166.128906 67.019531 C 166.09375 66.882812 166.042969 66.773438 166.019531 66.773438 C 165.992188 66.773438 165.925781 66.628906 165.867188 66.453125 C 165.808594 66.277344 165.742188 66.125 165.722656 66.109375 C 165.703125 66.09375 165.65625 65.972656 165.621094 65.84375 C 165.585938 65.714844 165.539062 65.609375 165.511719 65.609375 C 165.488281 65.609375 165.433594 65.460938 165.394531 65.277344 C 165.355469 65.09375 165.308594 64.945312 165.289062 64.945312 C 165.242188 64.945312 165.117188 64.535156 165.117188 64.394531 C 165.117188 64.332031 165.09375 64.28125 165.066406 64.28125 C 165.039062 64.28125 164.96875 64.058594 164.914062 63.78125 C 164.859375 63.507812 164.796875 63.285156 164.773438 63.285156 C 164.753906 63.285156 164.707031 63.085938 164.664062 62.84375 C 164.625 62.597656 164.574219 62.398438 164.554688 62.398438 C 164.53125 62.398438 164.480469 62.144531 164.441406 61.832031 C 164.402344 61.519531 164.351562 61.25 164.332031 61.238281 C 164.289062 61.207031 164.164062 60.054688 164.164062 59.699219 C 164.164062 59.570312 164.140625 59.464844 164.109375 59.464844 C 164.074219 59.464844 164.054688 58.839844 164.054688 57.695312 C 164.054688 56.71875 164.074219 55.921875 164.097656 55.921875 C 164.121094 55.921875 164.175781 55.519531 164.214844 55.023438 C 164.253906 54.53125 164.304688 54.113281 164.328125 54.097656 C 164.351562 54.082031 164.402344 53.8125 164.445312 53.5 C 164.484375 53.1875 164.535156 52.933594 164.558594 52.933594 C 164.578125 52.933594 164.628906 52.742188 164.667969 52.503906 C 164.710938 52.269531 164.757812 52.0625 164.78125 52.046875 C 164.800781 52.03125 164.859375 51.800781 164.917969 51.535156 C 164.972656 51.269531 165.035156 51.050781 165.058594 51.050781 C 165.082031 51.050781 165.128906 50.902344 165.167969 50.71875 C 165.203125 50.535156 165.253906 50.386719 165.28125 50.386719 C 165.308594 50.386719 165.347656 50.285156 165.367188 50.164062 C 165.386719 50.042969 165.4375 49.910156 165.476562 49.871094 C 165.515625 49.835938 165.578125 49.671875 165.617188 49.515625 C 165.652344 49.355469 165.703125 49.222656 165.722656 49.222656 C 165.746094 49.222656 165.796875 49.109375 165.835938 48.972656 C 165.878906 48.832031 165.941406 48.691406 165.976562 48.652344 C 166.015625 48.617188 166.078125 48.46875 166.117188 48.324219 C 166.160156 48.179688 166.210938 48.0625 166.234375 48.0625 C 166.261719 48.0625 166.308594 47.976562 166.34375 47.867188 C 166.378906 47.761719 166.429688 47.675781 166.457031 47.675781 C 166.484375 47.675781 166.519531 47.597656 166.539062 47.507812 C 166.5625 47.417969 166.605469 47.308594 166.644531 47.273438 C 166.679688 47.234375 166.757812 47.097656 166.816406 46.96875 C 166.875 46.839844 166.941406 46.734375 166.964844 46.734375 C 166.988281 46.734375 167.023438 46.65625 167.042969 46.5625 C 167.066406 46.46875 167.117188 46.378906 167.160156 46.363281 C 167.203125 46.347656 167.238281 46.300781 167.238281 46.257812 C 167.238281 46.214844 167.28125 46.136719 167.335938 46.082031 C 167.390625 46.027344 167.472656 45.910156 167.519531 45.816406 C 167.5625 45.726562 167.628906 45.636719 167.664062 45.613281 C 167.699219 45.589844 167.746094 45.503906 167.769531 45.417969 C 167.789062 45.335938 167.839844 45.230469 167.882812 45.183594 C 168.109375 44.9375 168.167969 44.859375 168.246094 44.710938 C 168.289062 44.621094 168.371094 44.515625 168.425781 44.472656 C 168.480469 44.433594 168.523438 44.367188 168.523438 44.324219 C 168.523438 44.28125 168.574219 44.21875 168.636719 44.1875 C 168.695312 44.15625 168.746094 44.097656 168.75 44.058594 C 168.75 44.023438 168.8125 43.933594 168.886719 43.863281 C 168.964844 43.792969 169.027344 43.710938 169.027344 43.6875 C 169.027344 43.664062 169.128906 43.535156 169.25 43.402344 C 169.375 43.269531 169.5625 43.070312 169.671875 42.957031 C 169.777344 42.839844 169.863281 42.730469 169.863281 42.714844 C 169.863281 42.667969 171.632812 40.921875 171.679688 40.921875 C 171.699219 40.921875 171.820312 40.820312 171.949219 40.699219 C 172.296875 40.371094 172.566406 40.144531 172.609375 40.144531 C 172.632812 40.144531 172.738281 40.058594 172.851562 39.953125 C 172.960938 39.847656 173.070312 39.757812 173.09375 39.757812 C 173.113281 39.757812 173.222656 39.683594 173.328125 39.59375 C 173.4375 39.5 173.554688 39.425781 173.59375 39.425781 C 173.632812 39.425781 173.664062 39.402344 173.664062 39.371094 C 173.664062 39.339844 173.726562 39.289062 173.804688 39.261719 C 173.878906 39.230469 173.945312 39.183594 173.945312 39.152344 C 173.945312 39.121094 173.980469 39.09375 174.023438 39.09375 C 174.070312 39.09375 174.136719 39.050781 174.179688 38.996094 C 174.21875 38.941406 174.34375 38.851562 174.460938 38.796875 C 174.574219 38.746094 174.671875 38.679688 174.671875 38.65625 C 174.671875 38.628906 174.726562 38.59375 174.800781 38.574219 C 174.871094 38.558594 174.988281 38.492188 175.058594 38.429688 C 175.132812 38.371094 175.222656 38.320312 175.261719 38.320312 C 175.300781 38.320312 175.355469 38.285156 175.378906 38.246094 C 175.402344 38.207031 175.507812 38.140625 175.605469 38.101562 C 175.707031 38.0625 175.789062 38.011719 175.789062 37.988281 C 175.789062 37.964844 175.90625 37.902344 176.054688 37.847656 C 176.199219 37.792969 176.332031 37.734375 176.347656 37.714844 C 176.363281 37.699219 176.449219 37.644531 176.542969 37.601562 C 176.632812 37.554688 176.742188 37.488281 176.78125 37.449219 C 176.820312 37.414062 176.941406 37.367188 177.046875 37.347656 C 177.152344 37.328125 177.242188 37.289062 177.242188 37.265625 C 177.242188 37.238281 177.339844 37.1875 177.464844 37.148438 C 177.585938 37.113281 177.6875 37.0625 177.6875 37.039062 C 177.6875 37.015625 177.824219 36.953125 177.996094 36.90625 C 178.164062 36.855469 178.300781 36.796875 178.300781 36.773438 C 178.300781 36.746094 178.390625 36.710938 178.496094 36.691406 C 178.601562 36.671875 178.722656 36.621094 178.761719 36.582031 C 178.804688 36.542969 178.96875 36.476562 179.128906 36.433594 C 179.289062 36.394531 179.417969 36.34375 179.417969 36.324219 C 179.417969 36.304688 179.570312 36.253906 179.753906 36.214844 C 179.9375 36.175781 180.089844 36.128906 180.089844 36.105469 C 180.089844 36.085938 180.285156 36.023438 180.519531 35.972656 C 180.753906 35.921875 180.976562 35.859375 181.007812 35.835938 C 181.039062 35.808594 181.230469 35.757812 181.429688 35.714844 C 181.628906 35.675781 181.804688 35.628906 181.820312 35.609375 C 181.835938 35.589844 182.050781 35.542969 182.296875 35.5 C 182.542969 35.460938 182.757812 35.410156 182.773438 35.386719 C 182.785156 35.363281 183.089844 35.3125 183.441406 35.273438 C 183.796875 35.234375 184.097656 35.183594 184.113281 35.160156 C 184.128906 35.136719 184.53125 35.089844 185.007812 35.054688 C 185.484375 35.019531 185.9375 34.980469 186.011719 34.972656 C 186.328125 34.925781 189.945312 34.996094 190.59375 35.054688 " fill-opacity="1" fill-rule="evenodd"/></g><path fill="rgb(98.429871%, 1.568604%, 1.568604%)" d="M 185.621094 42.710938 L 185.621094 44.722656 L 185.496094 44.78125 C 185.425781 44.816406 185.148438 44.875 184.882812 44.910156 C 184.613281 44.945312 184.390625 44.992188 184.390625 45.011719 C 184.390625 45.035156 184.222656 45.085938 184.015625 45.125 C 183.808594 45.164062 183.53125 45.246094 183.402344 45.300781 C 183.273438 45.359375 183.152344 45.40625 183.132812 45.40625 C 183.078125 45.40625 182.464844 45.695312 182.4375 45.738281 C 182.421875 45.761719 182.347656 45.796875 182.277344 45.820312 C 181.574219 46.035156 179.773438 47.832031 179.609375 48.476562 C 179.589844 48.554688 179.554688 48.617188 179.527344 48.617188 C 179.5 48.617188 179.449219 48.722656 179.410156 48.851562 C 179.371094 48.980469 179.308594 49.117188 179.273438 49.152344 C 179.238281 49.1875 179.191406 49.3125 179.167969 49.429688 C 179.148438 49.542969 179.105469 49.667969 179.078125 49.703125 C 179.046875 49.738281 178.972656 50.011719 178.914062 50.3125 C 178.464844 52.507812 178.742188 55.058594 179.53125 56 C 179.703125 56.203125 180.46875 56.949219 180.613281 57.058594 C 180.695312 57.117188 180.832031 57.222656 180.910156 57.292969 C 180.992188 57.359375 181.074219 57.417969 181.101562 57.417969 C 181.125 57.417969 181.175781 57.449219 181.21875 57.488281 C 181.257812 57.527344 181.441406 57.644531 181.625 57.746094 C 181.8125 57.847656 182 57.960938 182.046875 58 C 182.089844 58.035156 182.222656 58.097656 182.339844 58.132812 C 182.453125 58.171875 182.546875 58.21875 182.546875 58.242188 C 182.546875 58.265625 182.648438 58.316406 182.773438 58.359375 C 182.894531 58.398438 182.996094 58.453125 182.996094 58.476562 C 182.996094 58.503906 183.019531 58.523438 183.050781 58.523438 C 183.078125 58.523438 183.238281 58.582031 183.398438 58.65625 C 184.085938 58.964844 184.207031 59.015625 184.433594 59.082031 C 184.566406 59.121094 184.671875 59.167969 184.671875 59.191406 C 184.671875 59.214844 184.765625 59.25 184.882812 59.269531 C 184.996094 59.292969 185.191406 59.355469 185.316406 59.410156 C 185.441406 59.464844 185.617188 59.53125 185.707031 59.550781 C 185.796875 59.574219 185.898438 59.609375 185.929688 59.636719 C 185.960938 59.660156 186.109375 59.707031 186.265625 59.746094 C 186.417969 59.78125 186.570312 59.832031 186.601562 59.855469 C 186.632812 59.882812 186.847656 59.941406 187.074219 59.996094 C 187.304688 60.046875 187.503906 60.105469 187.519531 60.128906 C 187.535156 60.148438 187.710938 60.199219 187.914062 60.238281 C 188.113281 60.277344 188.300781 60.332031 188.332031 60.355469 C 188.363281 60.378906 188.558594 60.429688 188.765625 60.46875 C 188.972656 60.503906 189.140625 60.554688 189.140625 60.574219 C 189.140625 60.597656 189.246094 60.628906 189.375 60.652344 C 189.59375 60.683594 190.308594 60.980469 190.371094 61.0625 C 190.386719 61.082031 190.472656 61.136719 190.5625 61.179688 C 190.753906 61.277344 191.304688 61.828125 191.351562 61.96875 C 191.371094 62.023438 191.40625 62.066406 191.429688 62.066406 C 191.492188 62.066406 191.601562 62.375 191.601562 62.546875 C 191.601562 62.617188 191.625 62.675781 191.65625 62.675781 C 191.726562 62.675781 191.730469 63.03125 191.660156 63.160156 C 191.632812 63.214844 191.582031 63.417969 191.542969 63.617188 C 191.507812 63.816406 191.457031 63.988281 191.433594 64.003906 C 191.410156 64.019531 191.375 64.085938 191.351562 64.152344 C 191.296875 64.335938 190.953125 64.652344 190.730469 64.726562 C 190.625 64.757812 190.539062 64.808594 190.539062 64.832031 C 190.539062 64.855469 190.367188 64.910156 190.160156 64.945312 C 189.953125 64.984375 189.757812 65.039062 189.722656 65.0625 C 189.503906 65.234375 186.292969 65.230469 186.179688 65.0625 C 186.164062 65.035156 185.953125 64.988281 185.710938 64.953125 C 185.464844 64.917969 185.238281 64.867188 185.207031 64.839844 C 185.171875 64.816406 185.007812 64.761719 184.839844 64.722656 C 184.671875 64.683594 184.445312 64.609375 184.335938 64.558594 C 184.230469 64.503906 184.058594 64.441406 183.960938 64.421875 C 183.859375 64.402344 183.777344 64.363281 183.777344 64.335938 C 183.777344 64.3125 183.707031 64.265625 183.617188 64.238281 C 183.332031 64.136719 182.695312 63.667969 182.285156 63.25 C 181.816406 62.773438 181.816406 62.773438 181.480469 63.078125 C 181.335938 63.207031 181.050781 63.460938 180.84375 63.644531 C 180.636719 63.828125 180.371094 64.066406 180.253906 64.175781 C 180.136719 64.285156 179.957031 64.445312 179.855469 64.53125 C 178.613281 65.5625 177.800781 66.40625 177.800781 66.660156 C 177.800781 66.785156 177.816406 66.882812 177.839844 66.882812 C 177.863281 66.882812 177.917969 66.957031 177.957031 67.050781 C 178.054688 67.265625 178.976562 68.179688 179.195312 68.277344 C 179.289062 68.316406 179.363281 68.371094 179.363281 68.394531 C 179.363281 68.417969 179.4375 68.464844 179.53125 68.496094 C 179.625 68.527344 179.699219 68.574219 179.699219 68.597656 C 179.699219 68.621094 179.78125 68.671875 179.878906 68.714844 C 179.980469 68.753906 180.074219 68.800781 180.089844 68.820312 C 180.132812 68.875 181.328125 69.429688 181.402344 69.429688 C 181.421875 69.429688 181.542969 69.476562 181.671875 69.535156 C 181.804688 69.59375 181.984375 69.660156 182.074219 69.683594 C 182.167969 69.703125 182.265625 69.738281 182.296875 69.761719 C 182.328125 69.785156 182.492188 69.832031 182.660156 69.871094 C 182.828125 69.910156 182.992188 69.960938 183.023438 69.988281 C 183.054688 70.011719 183.320312 70.074219 183.613281 70.125 C 183.902344 70.175781 184.164062 70.238281 184.195312 70.261719 C 184.226562 70.285156 184.492188 70.332031 184.78125 70.371094 C 185.074219 70.40625 185.382812 70.464844 185.46875 70.5 L 185.621094 70.5625 L 185.621094 74.523438 L 189.363281 74.523438 L 189.363281 70.667969 L 189.976562 70.605469 C 190.3125 70.570312 190.632812 70.515625 190.6875 70.488281 C 190.746094 70.460938 190.941406 70.40625 191.125 70.367188 C 191.308594 70.332031 191.484375 70.285156 191.515625 70.261719 C 191.546875 70.242188 191.722656 70.175781 191.90625 70.121094 C 192.089844 70.066406 192.253906 70.003906 192.269531 69.984375 C 192.285156 69.964844 192.40625 69.917969 192.535156 69.875 C 192.667969 69.832031 192.773438 69.78125 192.773438 69.761719 C 192.773438 69.742188 192.875 69.691406 192.996094 69.652344 C 193.121094 69.609375 193.21875 69.5625 193.21875 69.542969 C 193.21875 69.523438 193.308594 69.476562 193.414062 69.4375 C 193.523438 69.398438 193.609375 69.34375 193.609375 69.320312 C 193.609375 69.292969 193.664062 69.253906 193.730469 69.234375 C 193.878906 69.1875 194.351562 68.871094 194.410156 68.777344 C 194.433594 68.742188 194.492188 68.710938 194.535156 68.710938 C 194.578125 68.710938 194.640625 68.660156 194.671875 68.597656 C 194.707031 68.539062 194.757812 68.488281 194.792969 68.488281 C 194.824219 68.488281 194.941406 68.40625 195.054688 68.304688 C 195.714844 67.707031 195.902344 67.527344 195.902344 67.484375 C 195.902344 67.457031 196.003906 67.347656 196.125 67.234375 C 196.25 67.125 196.347656 67.003906 196.347656 66.964844 C 196.347656 66.925781 196.386719 66.878906 196.433594 66.863281 C 196.480469 66.84375 196.542969 66.765625 196.570312 66.691406 C 196.601562 66.613281 196.648438 66.550781 196.671875 66.550781 C 196.699219 66.550781 196.753906 66.464844 196.796875 66.359375 C 196.835938 66.253906 196.90625 66.15625 196.945312 66.140625 C 196.984375 66.125 197.019531 66.074219 197.019531 66.03125 C 197.019531 65.984375 197.050781 65.917969 197.089844 65.875 C 197.132812 65.835938 197.210938 65.679688 197.269531 65.527344 C 197.328125 65.375 197.40625 65.21875 197.445312 65.183594 C 197.480469 65.144531 197.53125 65.011719 197.550781 64.890625 C 197.570312 64.769531 197.609375 64.667969 197.632812 64.667969 C 197.660156 64.667969 197.710938 64.488281 197.75 64.265625 C 197.789062 64.046875 197.839844 63.851562 197.863281 63.835938 C 198.0625 63.703125 198.058594 60.019531 197.859375 60.019531 C 197.835938 60.019531 197.789062 59.84375 197.75 59.632812 C 197.710938 59.417969 197.660156 59.242188 197.636719 59.242188 C 197.613281 59.242188 197.578125 59.167969 197.558594 59.078125 C 197.511719 58.84375 197.035156 57.890625 196.925781 57.8125 C 196.902344 57.792969 196.84375 57.707031 196.796875 57.617188 C 196.632812 57.300781 195.371094 56.144531 195.191406 56.144531 C 195.15625 56.144531 195.117188 56.109375 195.101562 56.066406 C 195.085938 56.023438 194.996094 55.972656 194.898438 55.949219 C 194.804688 55.929688 194.730469 55.890625 194.730469 55.859375 C 194.730469 55.832031 194.652344 55.78125 194.5625 55.75 C 194.46875 55.714844 194.394531 55.667969 194.394531 55.640625 C 194.394531 55.613281 194.367188 55.589844 194.335938 55.589844 C 194.308594 55.589844 194.125 55.515625 193.933594 55.429688 C 193.742188 55.339844 193.515625 55.25 193.429688 55.226562 C 193.34375 55.207031 193.277344 55.171875 193.277344 55.152344 C 193.277344 55.128906 193.148438 55.078125 192.996094 55.035156 C 192.84375 54.996094 192.71875 54.941406 192.71875 54.921875 C 192.71875 54.898438 192.578125 54.847656 192.410156 54.808594 C 192.242188 54.773438 192.101562 54.726562 192.101562 54.707031 C 192.101562 54.6875 191.96875 54.636719 191.808594 54.597656 C 191.648438 54.558594 191.453125 54.492188 191.375 54.453125 C 191.296875 54.414062 191.074219 54.351562 190.886719 54.3125 C 190.695312 54.273438 190.539062 54.222656 190.539062 54.203125 C 190.539062 54.183594 190.382812 54.132812 190.1875 54.09375 C 189.996094 54.054688 189.816406 54.003906 189.785156 53.984375 C 189.753906 53.960938 189.578125 53.910156 189.394531 53.875 C 189.214844 53.835938 189.023438 53.785156 188.976562 53.757812 C 188.929688 53.730469 188.75 53.671875 188.582031 53.628906 C 187.734375 53.402344 187.378906 53.296875 187.351562 53.261719 C 187.339844 53.242188 187.195312 53.191406 187.03125 53.152344 C 186.871094 53.113281 186.738281 53.0625 186.738281 53.039062 C 186.738281 53.019531 186.632812 52.976562 186.5 52.941406 C 186.371094 52.910156 186.164062 52.832031 186.042969 52.769531 C 185.921875 52.707031 185.789062 52.65625 185.746094 52.65625 C 185.707031 52.65625 185.660156 52.617188 185.640625 52.574219 C 185.625 52.527344 185.574219 52.492188 185.535156 52.492188 C 185.375 52.492188 184.945312 52.011719 184.890625 51.777344 C 184.792969 51.34375 185.175781 50.554688 185.484375 50.554688 C 185.519531 50.554688 185.582031 50.519531 185.617188 50.476562 C 185.652344 50.433594 185.796875 50.367188 185.945312 50.328125 C 186.089844 50.289062 186.234375 50.242188 186.265625 50.21875 C 186.542969 50.011719 190.007812 50.011719 190.285156 50.21875 C 190.316406 50.242188 190.5 50.292969 190.691406 50.332031 C 190.882812 50.371094 191.042969 50.417969 191.042969 50.441406 C 191.042969 50.460938 191.144531 50.511719 191.265625 50.554688 C 191.390625 50.59375 191.507812 50.648438 191.523438 50.675781 C 191.539062 50.699219 191.636719 50.757812 191.742188 50.800781 C 191.847656 50.84375 191.964844 50.90625 192.003906 50.9375 C 193.0625 51.847656 192.976562 51.882812 195.09375 49.648438 C 195.367188 49.355469 195.851562 48.851562 196.167969 48.53125 C 196.824219 47.859375 196.828125 47.851562 196.480469 47.542969 C 196.335938 47.417969 196.117188 47.214844 195.988281 47.09375 C 195.859375 46.972656 195.6875 46.835938 195.605469 46.792969 C 195.523438 46.75 195.457031 46.695312 195.457031 46.675781 C 195.457031 46.652344 195.378906 46.605469 195.289062 46.566406 C 195.195312 46.53125 195.121094 46.480469 195.121094 46.460938 C 195.121094 46.4375 195.03125 46.386719 194.925781 46.347656 C 194.816406 46.304688 194.730469 46.253906 194.730469 46.230469 C 194.730469 46.207031 194.601562 46.144531 194.449219 46.089844 C 194.296875 46.035156 194.171875 45.972656 194.171875 45.949219 C 194.171875 45.921875 194.144531 45.902344 194.117188 45.902344 C 194.085938 45.902344 193.894531 45.828125 193.695312 45.738281 C 193.492188 45.644531 193.292969 45.570312 193.25 45.570312 C 193.207031 45.570312 193.15625 45.550781 193.140625 45.523438 C 193.125 45.496094 192.992188 45.441406 192.84375 45.402344 C 192.699219 45.363281 192.550781 45.3125 192.519531 45.289062 C 192.484375 45.261719 192.257812 45.199219 192.015625 45.148438 C 191.773438 45.09375 191.558594 45.035156 191.542969 45.011719 C 191.527344 44.992188 191.269531 44.941406 190.972656 44.898438 C 190.671875 44.859375 190.425781 44.8125 190.425781 44.792969 C 190.425781 44.769531 190.203125 44.738281 189.929688 44.714844 L 189.433594 44.679688 L 189.398438 44.472656 C 189.382812 44.363281 189.367188 43.464844 189.367188 42.484375 L 189.363281 40.699219 L 185.621094 40.699219 L 185.621094 42.710938 " fill-opacity="1" fill-rule="evenodd"/><g fill="rgb(98.429871%, 1.568604%, 1.568604%)" fill-opacity="1"><g transform="translate(14.951802, 128.124519)"><g><path d="M 10.863281 0 L 19.921875 0 L 19.921875 -23.121094 L 29.519531 -23.121094 L 29.519531 -31.546875 L 1.261719 -31.546875 L 1.261719 -23.121094 L 10.863281 -23.121094 Z M 10.863281 0 "/></g></g></g><g fill="rgb(98.429871%, 1.568604%, 1.568604%)" fill-opacity="1"><g transform="translate(45.727181, 128.124519)"><g><path d="M 3.335938 0 L 25.464844 0 L 25.464844 -7.4375 L 12.347656 -7.4375 L 12.347656 -12.304688 L 23.75 -12.304688 L 23.75 -19.605469 L 12.347656 -19.605469 L 12.347656 -24.203125 L 24.96875 -24.203125 L 24.96875 -31.546875 L 3.335938 -31.546875 Z M 3.335938 0 "/></g></g></g><g fill="rgb(98.429871%, 1.568604%, 1.568604%)" fill-opacity="1"><g transform="translate(73.213238, 128.124519)"><g><path d="M 3.335938 0 L 12.4375 0 L 12.4375 -8.96875 L 15.863281 -8.96875 L 20.371094 0 L 30.691406 0 L 24.878906 -10.636719 C 28.214844 -12.484375 30.105469 -15.820312 30.105469 -20.234375 C 30.105469 -27.222656 25.375 -31.546875 17.710938 -31.546875 L 3.335938 -31.546875 Z M 12.257812 -16.226562 L 12.257812 -24.113281 L 16.496094 -24.113281 C 19.378906 -24.113281 20.957031 -22.714844 20.957031 -20.191406 C 20.957031 -17.667969 19.378906 -16.226562 16.496094 -16.226562 Z M 12.257812 -16.226562 "/></g></g></g><g fill="rgb(98.429871%, 1.568604%, 1.568604%)" fill-opacity="1"><g transform="translate(105.655808, 128.124519)"><g><path d="M 18.074219 0.675781 C 26.769531 0.675781 33.351562 -4.597656 34.703125 -12.621094 L 25.464844 -12.621094 C 24.335938 -9.644531 21.679688 -7.753906 18.253906 -7.753906 C 13.835938 -7.753906 10.773438 -11.042969 10.773438 -15.773438 C 10.773438 -20.550781 13.882812 -23.796875 18.34375 -23.796875 C 21.632812 -23.796875 24.382812 -21.949219 25.328125 -19.109375 L 34.523438 -19.109375 C 32.902344 -27.085938 26.410156 -32.226562 17.984375 -32.226562 C 8.246094 -32.226562 1.53125 -25.507812 1.53125 -15.773438 C 1.53125 -6.039062 8.246094 0.675781 18.074219 0.675781 Z M 18.074219 0.675781 "/></g></g></g><g fill="rgb(100%, 8.628845%, 8.628845%)" fill-opacity="1"><g transform="translate(141.787333, 128.124519)"><g/></g></g><g fill="rgb(0%, 0%, 0%)" fill-opacity="1"><g transform="translate(152.190205, 128.124519)"><g><path d="M 18.074219 0.675781 C 26.769531 0.675781 33.351562 -4.597656 34.703125 -12.621094 L 25.464844 -12.621094 C 24.335938 -9.644531 21.679688 -7.753906 18.253906 -7.753906 C 13.835938 -7.753906 10.773438 -11.042969 10.773438 -15.773438 C 10.773438 -20.550781 13.882812 -23.796875 18.34375 -23.796875 C 21.632812 -23.796875 24.382812 -21.949219 25.328125 -19.109375 L 34.523438 -19.109375 C 32.902344 -27.085938 26.410156 -32.226562 17.984375 -32.226562 C 8.246094 -32.226562 1.53125 -25.507812 1.53125 -15.773438 C 1.53125 -6.039062 8.246094 0.675781 18.074219 0.675781 Z M 18.074219 0.675781 "/></g></g></g><g fill="rgb(0%, 0%, 0%)" fill-opacity="1"><g transform="translate(188.327611, 128.124519)"><g><path d="M 0.226562 0 L 9.871094 0 L 11.582031 -4.460938 L 22.355469 -4.460938 L 24.066406 0 L 33.757812 0 L 21.5 -31.546875 L 12.484375 -31.546875 Z M 13.476562 -11.132812 L 16.992188 -20.914062 L 20.507812 -11.132812 Z M 13.476562 -11.132812 "/></g></g></g><g fill="rgb(0%, 0%, 0%)" fill-opacity="1"><g transform="translate(222.302187, 128.124519)"><g><path d="M 3.335938 0 L 12.4375 0 L 12.4375 -7.796875 L 16.628906 -7.796875 C 24.652344 -7.796875 29.746094 -12.4375 29.746094 -19.695312 C 29.746094 -26.953125 24.652344 -31.546875 16.628906 -31.546875 L 3.335938 -31.546875 Z M 12.347656 -15.414062 L 12.347656 -23.886719 L 15.773438 -23.886719 C 18.792969 -23.886719 20.550781 -22.265625 20.550781 -19.648438 C 20.550781 -16.992188 18.792969 -15.414062 15.773438 -15.414062 Z M 12.347656 -15.414062 "/></g></g></g><g fill="rgb(0%, 0%, 0%)" fill-opacity="1"><g transform="translate(253.077565, 128.124519)"><g><path d="M 3.335938 0 L 12.4375 0 L 12.4375 -31.546875 L 3.335938 -31.546875 Z M 3.335938 0 "/></g></g></g><g fill="rgb(0%, 0%, 0%)" fill-opacity="1"><g transform="translate(268.848261, 128.124519)"><g><path d="M 10.863281 0 L 19.921875 0 L 19.921875 -23.121094 L 29.519531 -23.121094 L 29.519531 -31.546875 L 1.261719 -31.546875 L 1.261719 -23.121094 L 10.863281 -23.121094 Z M 10.863281 0 "/></g></g></g><g fill="rgb(0%, 0%, 0%)" fill-opacity="1"><g transform="translate(299.62364, 128.124519)"><g><path d="M 0.226562 0 L 9.871094 0 L 11.582031 -4.460938 L 22.355469 -4.460938 L 24.066406 0 L 33.757812 0 L 21.5 -31.546875 L 12.484375 -31.546875 Z M 13.476562 -11.132812 L 16.992188 -20.914062 L 20.507812 -11.132812 Z M 13.476562 -11.132812 "/></g></g></g><g fill="rgb(0%, 0%, 0%)" fill-opacity="1"><g transform="translate(333.598216, 128.124519)"><g><path d="M 3.335938 0 L 25.328125 0 L 25.328125 -8.429688 L 12.4375 -8.429688 L 12.4375 -31.546875 L 3.335938 -31.546875 Z M 3.335938 0 "/></g></g></g><g fill="rgb(0%, 0%, 0%)" fill-opacity="1"><g transform="translate(23.239126, 153.136405)"><g><path d="M 1.257812 0 L 3.636719 0 L 3.636719 -10.472656 L 1.257812 -10.472656 Z M 1.257812 0 "/></g></g></g><g fill="rgb(0%, 0%, 0%)" fill-opacity="1"><g transform="translate(29.293809, 153.136405)"><g><path d="M 1.257812 0 L 3.621094 0 L 3.621094 -6.417969 L 8.242188 0 L 10.261719 0 L 10.261719 -10.472656 L 7.898438 -10.472656 L 7.898438 -4.097656 L 3.277344 -10.472656 L 1.257812 -10.472656 Z M 1.257812 0 "/></g></g></g><g fill="rgb(0%, 0%, 0%)" fill-opacity="1"><g transform="translate(41.970208, 153.136405)"><g><path d="M 1.257812 0 L 3.621094 0 L 3.621094 -6.417969 L 8.242188 0 L 10.261719 0 L 10.261719 -10.472656 L 7.898438 -10.472656 L 7.898438 -4.097656 L 3.277344 -10.472656 L 1.257812 -10.472656 Z M 1.257812 0 "/></g></g></g><g fill="rgb(0%, 0%, 0%)" fill-opacity="1"><g transform="translate(54.646609, 153.136405)"><g><path d="M 6.222656 0.210938 C 9.5 0.210938 11.816406 -2.035156 11.816406 -5.234375 C 11.816406 -8.4375 9.5 -10.679688 6.222656 -10.679688 C 2.945312 -10.679688 0.644531 -8.4375 0.644531 -5.234375 C 0.644531 -2.035156 2.945312 0.210938 6.222656 0.210938 Z M 3.066406 -5.234375 C 3.066406 -7.121094 4.367188 -8.421875 6.222656 -8.421875 C 8.09375 -8.421875 9.378906 -7.121094 9.378906 -5.234375 C 9.378906 -3.351562 8.09375 -2.050781 6.222656 -2.050781 C 4.367188 -2.050781 3.066406 -3.351562 3.066406 -5.234375 Z M 3.066406 -5.234375 "/></g></g></g><g fill="rgb(0%, 0%, 0%)" fill-opacity="1"><g transform="translate(68.264692, 153.136405)"><g><path d="M 4.160156 0 L 6.492188 0 L 10.515625 -10.472656 L 7.972656 -10.472656 L 5.339844 -3.425781 L 4.082031 -6.746094 L 2.691406 -10.472656 L 0.132812 -10.472656 Z M 4.160156 0 "/></g></g></g><g fill="rgb(0%, 0%, 0%)" fill-opacity="1"><g transform="translate(80.074132, 153.136405)"><g><path d="M 0.132812 0 L 2.675781 0 L 3.378906 -1.808594 L 7.539062 -1.808594 L 8.242188 0 L 10.785156 0 L 6.625 -10.472656 L 4.292969 -10.472656 Z M 3.992188 -3.679688 L 5.460938 -7.507812 L 6.941406 -3.679688 Z M 3.992188 -3.679688 "/></g></g></g><g fill="rgb(0%, 0%, 0%)" fill-opacity="1"><g transform="translate(92.152629, 153.136405)"><g><path d="M 3.769531 0 L 6.148438 0 L 6.148438 -8.242188 L 9.46875 -8.242188 L 9.46875 -10.472656 L 0.449219 -10.472656 L 0.449219 -8.242188 L 3.769531 -8.242188 Z M 3.769531 0 "/></g></g></g><g fill="rgb(0%, 0%, 0%)" fill-opacity="1"><g transform="translate(103.229652, 153.136405)"><g><path d="M 1.257812 0 L 3.636719 0 L 3.636719 -10.472656 L 1.257812 -10.472656 Z M 1.257812 0 "/></g></g></g><g fill="rgb(0%, 0%, 0%)" fill-opacity="1"><g transform="translate(109.284333, 153.136405)"><g><path d="M 4.160156 0 L 6.492188 0 L 10.515625 -10.472656 L 7.972656 -10.472656 L 5.339844 -3.425781 L 4.082031 -6.746094 L 2.691406 -10.472656 L 0.132812 -10.472656 Z M 4.160156 0 "/></g></g></g><g fill="rgb(0%, 0%, 0%)" fill-opacity="1"><g transform="translate(121.093773, 153.136405)"><g><path d="M 1.257812 0 L 8.300781 0 L 8.300781 -2.019531 L 3.621094 -2.019531 L 3.621094 -4.308594 L 7.734375 -4.308594 L 7.734375 -6.296875 L 3.621094 -6.296875 L 3.621094 -8.464844 L 8.136719 -8.464844 L 8.136719 -10.472656 L 1.257812 -10.472656 Z M 1.257812 0 "/></g></g></g><g fill="rgb(2.749634%, 7.058716%, 7.839966%)" fill-opacity="1"><g transform="translate(131.318135, 153.136405)"><g/></g></g><g fill="rgb(98.429871%, 1.568604%, 1.568604%)" fill-opacity="1"><g transform="translate(135.99521, 153.136405)"><g><path d="M 1.257812 0 L 3.636719 0 L 3.636719 -10.472656 L 1.257812 -10.472656 Z M 1.257812 0 "/></g></g></g><g fill="rgb(98.429871%, 1.568604%, 1.568604%)" fill-opacity="1"><g transform="translate(142.049893, 153.136405)"><g><path d="M 1.257812 0 L 3.621094 0 L 3.621094 -6.417969 L 8.242188 0 L 10.261719 0 L 10.261719 -10.472656 L 7.898438 -10.472656 L 7.898438 -4.097656 L 3.277344 -10.472656 L 1.257812 -10.472656 Z M 1.257812 0 "/></g></g></g><g fill="rgb(98.429871%, 1.568604%, 1.568604%)" fill-opacity="1"><g transform="translate(154.726292, 153.136405)"><g><path d="M 4.160156 0 L 6.492188 0 L 10.515625 -10.472656 L 7.972656 -10.472656 L 5.339844 -3.425781 L 4.082031 -6.746094 L 2.691406 -10.472656 L 0.132812 -10.472656 Z M 4.160156 0 "/></g></g></g><g fill="rgb(98.429871%, 1.568604%, 1.568604%)" fill-opacity="1"><g transform="translate(166.535736, 153.136405)"><g><path d="M 1.257812 0 L 8.300781 0 L 8.300781 -2.019531 L 3.621094 -2.019531 L 3.621094 -4.308594 L 7.734375 -4.308594 L 7.734375 -6.296875 L 3.621094 -6.296875 L 3.621094 -8.464844 L 8.136719 -8.464844 L 8.136719 -10.472656 L 1.257812 -10.472656 Z M 1.257812 0 "/></g></g></g><g fill="rgb(98.429871%, 1.568604%, 1.568604%)" fill-opacity="1"><g transform="translate(176.760751, 153.136405)"><g><path d="M 4.90625 0.210938 C 7.390625 0.210938 8.914062 -0.972656 8.914062 -2.945312 C 8.914062 -4.605469 7.824219 -5.59375 5.21875 -6.207031 C 3.621094 -6.582031 3.066406 -6.984375 3.066406 -7.628906 C 3.066406 -8.316406 3.679688 -8.734375 4.683594 -8.734375 C 5.773438 -8.734375 6.433594 -8.167969 6.433594 -7.226562 L 8.722656 -7.226562 C 8.722656 -9.335938 7.136719 -10.679688 4.652344 -10.679688 C 2.242188 -10.679688 0.746094 -9.5 0.746094 -7.585938 C 0.746094 -5.878906 1.898438 -4.863281 4.351562 -4.339844 C 5.832031 -4.023438 6.507812 -3.589844 6.507812 -2.855469 C 6.507812 -2.152344 5.878906 -1.75 4.890625 -1.75 C 3.738281 -1.75 2.992188 -2.332031 2.992188 -3.335938 L 0.65625 -3.335938 C 0.65625 -1.167969 2.273438 0.210938 4.90625 0.210938 Z M 4.90625 0.210938 "/></g></g></g><g fill="rgb(98.429871%, 1.568604%, 1.568604%)" fill-opacity="1"><g transform="translate(187.508929, 153.136405)"><g><path d="M 3.769531 0 L 6.148438 0 L 6.148438 -8.242188 L 9.46875 -8.242188 L 9.46875 -10.472656 L 0.449219 -10.472656 L 0.449219 -8.242188 L 3.769531 -8.242188 Z M 3.769531 0 "/></g></g></g><g fill="rgb(98.429871%, 1.568604%, 1.568604%)" fill-opacity="1"><g transform="translate(198.585952, 153.136405)"><g><path d="M 1.257812 0 L 3.621094 0 L 3.621094 -6.3125 L 6.164062 -2.589844 L 7.808594 -2.589844 L 10.351562 -6.296875 L 10.351562 0 L 12.714844 0 L 12.714844 -10.472656 L 10.710938 -10.472656 L 7 -5.042969 L 3.277344 -10.472656 L 1.257812 -10.472656 Z M 1.257812 0 "/></g></g></g><g fill="rgb(98.429871%, 1.568604%, 1.568604%)" fill-opacity="1"><g transform="translate(213.71372, 153.136405)"><g><path d="M 1.257812 0 L 8.300781 0 L 8.300781 -2.019531 L 3.621094 -2.019531 L 3.621094 -4.308594 L 7.734375 -4.308594 L 7.734375 -6.296875 L 3.621094 -6.296875 L 3.621094 -8.464844 L 8.136719 -8.464844 L 8.136719 -10.472656 L 1.257812 -10.472656 Z M 1.257812 0 "/></g></g></g><g fill="rgb(98.429871%, 1.568604%, 1.568604%)" fill-opacity="1"><g transform="translate(223.938736, 153.136405)"><g><path d="M 1.257812 0 L 3.621094 0 L 3.621094 -6.417969 L 8.242188 0 L 10.261719 0 L 10.261719 -10.472656 L 7.898438 -10.472656 L 7.898438 -4.097656 L 3.277344 -10.472656 L 1.257812 -10.472656 Z M 1.257812 0 "/></g></g></g><g fill="rgb(98.429871%, 1.568604%, 1.568604%)" fill-opacity="1"><g transform="translate(236.61514, 153.136405)"><g><path d="M 3.769531 0 L 6.148438 0 L 6.148438 -8.242188 L 9.46875 -8.242188 L 9.46875 -10.472656 L 0.449219 -10.472656 L 0.449219 -8.242188 L 3.769531 -8.242188 Z M 3.769531 0 "/></g></g></g><g fill="rgb(2.749634%, 7.058716%, 7.839966%)" fill-opacity="1"><g transform="translate(247.690515, 153.136405)"><g/></g></g><g fill="rgb(0%, 0%, 0%)" fill-opacity="1"><g transform="translate(252.36759, 153.136405)"><g><path d="M 4.90625 0.210938 C 7.390625 0.210938 8.914062 -0.972656 8.914062 -2.945312 C 8.914062 -4.605469 7.824219 -5.59375 5.21875 -6.207031 C 3.621094 -6.582031 3.066406 -6.984375 3.066406 -7.628906 C 3.066406 -8.316406 3.679688 -8.734375 4.683594 -8.734375 C 5.773438 -8.734375 6.433594 -8.167969 6.433594 -7.226562 L 8.722656 -7.226562 C 8.722656 -9.335938 7.136719 -10.679688 4.652344 -10.679688 C 2.242188 -10.679688 0.746094 -9.5 0.746094 -7.585938 C 0.746094 -5.878906 1.898438 -4.863281 4.351562 -4.339844 C 5.832031 -4.023438 6.507812 -3.589844 6.507812 -2.855469 C 6.507812 -2.152344 5.878906 -1.75 4.890625 -1.75 C 3.738281 -1.75 2.992188 -2.332031 2.992188 -3.335938 L 0.65625 -3.335938 C 0.65625 -1.167969 2.273438 0.210938 4.90625 0.210938 Z M 4.90625 0.210938 "/></g></g></g><g fill="rgb(0%, 0%, 0%)" fill-opacity="1"><g transform="translate(263.115769, 153.136405)"><g><path d="M 6.222656 0.210938 C 9.5 0.210938 11.816406 -2.035156 11.816406 -5.234375 C 11.816406 -8.4375 9.5 -10.679688 6.222656 -10.679688 C 2.945312 -10.679688 0.644531 -8.4375 0.644531 -5.234375 C 0.644531 -2.035156 2.945312 0.210938 6.222656 0.210938 Z M 3.066406 -5.234375 C 3.066406 -7.121094 4.367188 -8.421875 6.222656 -8.421875 C 8.09375 -8.421875 9.378906 -7.121094 9.378906 -5.234375 C 9.378906 -3.351562 8.09375 -2.050781 6.222656 -2.050781 C 4.367188 -2.050781 3.066406 -3.351562 3.066406 -5.234375 Z M 3.066406 -5.234375 "/></g></g></g><g fill="rgb(0%, 0%, 0%)" fill-opacity="1"><g transform="translate(276.733853, 153.136405)"><g><path d="M 1.257812 0 L 8.210938 0 L 8.210938 -2.230469 L 3.636719 -2.230469 L 3.636719 -10.472656 L 1.257812 -10.472656 Z M 1.257812 0 "/></g></g></g><g fill="rgb(0%, 0%, 0%)" fill-opacity="1"><g transform="translate(286.510448, 153.136405)"><g><path d="M 5.535156 0.210938 C 8.257812 0.210938 9.917969 -1.496094 9.917969 -4.308594 L 9.917969 -10.472656 L 7.539062 -10.472656 L 7.539062 -4.472656 C 7.539062 -2.871094 6.867188 -2.050781 5.535156 -2.050781 C 4.203125 -2.050781 3.53125 -2.871094 3.53125 -4.472656 L 3.53125 -10.472656 L 1.152344 -10.472656 L 1.152344 -4.308594 C 1.152344 -1.496094 2.8125 0.210938 5.535156 0.210938 Z M 5.535156 0.210938 "/></g></g></g><g fill="rgb(0%, 0%, 0%)" fill-opacity="1"><g transform="translate(298.738423, 153.136405)"><g><path d="M 3.769531 0 L 6.148438 0 L 6.148438 -8.242188 L 9.46875 -8.242188 L 9.46875 -10.472656 L 0.449219 -10.472656 L 0.449219 -8.242188 L 3.769531 -8.242188 Z M 3.769531 0 "/></g></g></g><g fill="rgb(0%, 0%, 0%)" fill-opacity="1"><g transform="translate(309.815446, 153.136405)"><g><path d="M 1.257812 0 L 3.636719 0 L 3.636719 -10.472656 L 1.257812 -10.472656 Z M 1.257812 0 "/></g></g></g><g fill="rgb(0%, 0%, 0%)" fill-opacity="1"><g transform="translate(315.870127, 153.136405)"><g><path d="M 6.222656 0.210938 C 9.5 0.210938 11.816406 -2.035156 11.816406 -5.234375 C 11.816406 -8.4375 9.5 -10.679688 6.222656 -10.679688 C 2.945312 -10.679688 0.644531 -8.4375 0.644531 -5.234375 C 0.644531 -2.035156 2.945312 0.210938 6.222656 0.210938 Z M 3.066406 -5.234375 C 3.066406 -7.121094 4.367188 -8.421875 6.222656 -8.421875 C 8.09375 -8.421875 9.378906 -7.121094 9.378906 -5.234375 C 9.378906 -3.351562 8.09375 -2.050781 6.222656 -2.050781 C 4.367188 -2.050781 3.066406 -3.351562 3.066406 -5.234375 Z M 3.066406 -5.234375 "/></g></g></g><g fill="rgb(0%, 0%, 0%)" fill-opacity="1"><g transform="translate(329.48821, 153.136405)"><g><path d="M 1.257812 0 L 3.621094 0 L 3.621094 -6.417969 L 8.242188 0 L 10.261719 0 L 10.261719 -10.472656 L 7.898438 -10.472656 L 7.898438 -4.097656 L 3.277344 -10.472656 L 1.257812 -10.472656 Z M 1.257812 0 "/></g></g></g><g fill="rgb(0%, 0%, 0%)" fill-opacity="1"><g transform="translate(342.164608, 153.136405)"><g><path d="M 4.90625 0.210938 C 7.390625 0.210938 8.914062 -0.972656 8.914062 -2.945312 C 8.914062 -4.605469 7.824219 -5.59375 5.21875 -6.207031 C 3.621094 -6.582031 3.066406 -6.984375 3.066406 -7.628906 C 3.066406 -8.316406 3.679688 -8.734375 4.683594 -8.734375 C 5.773438 -8.734375 6.433594 -8.167969 6.433594 -7.226562 L 8.722656 -7.226562 C 8.722656 -9.335938 7.136719 -10.679688 4.652344 -10.679688 C 2.242188 -10.679688 0.746094 -9.5 0.746094 -7.585938 C 0.746094 -5.878906 1.898438 -4.863281 4.351562 -4.339844 C 5.832031 -4.023438 6.507812 -3.589844 6.507812 -2.855469 C 6.507812 -2.152344 5.878906 -1.75 4.890625 -1.75 C 3.738281 -1.75 2.992188 -2.332031 2.992188 -3.335938 L 0.65625 -3.335938 C 0.65625 -1.167969 2.273438 0.210938 4.90625 0.210938 Z M 4.90625 0.210938 "/></g></g></g></svg>