<svg id="svg" xmlns="http://www.w3.org/2000/svg" xmlns:xlink="http://www.w3.org/1999/xlink" width="400" height="400" viewBox="0, 0, 400,400"><g id="svgg"><path id="path0" d="M185.352 0.262 C 57.620 10.982,-27.467 133.142,7.619 255.433 C 49.590 401.721,234.320 449.053,341.800 341.059 C 438.106 244.291,411.448 81.920,289.215 20.776 C 258.028 5.176,218.898 -2.553,185.352 0.262 M215.644 35.375 C 290.737 42.129,352.886 101.173,363.638 175.977 C 379.316 285.038,286.532 378.601,177.344 363.837 C 105.157 354.076,46.664 296.070,36.358 224.023 C 21.127 117.554,108.396 25.729,215.644 35.375 M189.844 95.060 L 189.844 109.651 185.725 110.327 C 160.722 114.430,145.953 128.605,142.152 152.148 C 140.957 159.547,141.584 174.061,143.343 179.726 C 147.952 194.568,171.644 207.814,213.477 218.937 C 223.123 221.502,231.057 228.778,231.850 235.786 C 232.757 243.804,229.549 251.850,224.484 254.260 C 207.394 262.391,174.536 257.140,162.588 244.368 L 160.218 241.834 147.687 253.377 C 140.795 259.725,135.156 265.148,135.156 265.427 C 135.156 266.385,139.383 271.338,142.055 273.513 C 151.278 281.016,167.160 287.245,184.180 290.032 C 186.328 290.384,188.481 290.753,188.965 290.851 L 189.844 291.031 189.844 305.281 L 189.844 319.531 200.000 319.531 L 210.156 319.531 210.156 305.722 L 210.156 291.913 213.243 291.675 C 236.187 289.905,259.546 272.738,267.309 251.940 C 272.024 239.310,271.809 221.590,266.798 209.828 C 260.097 194.097,247.321 186.018,213.889 176.371 C 185.349 168.136,178.516 164.249,178.516 156.251 C 178.516 147.603,186.565 142.696,201.417 142.292 C 218.218 141.835,227.356 144.306,236.589 151.803 C 237.485 152.530,238.384 153.125,238.587 153.125 C 238.791 153.125,243.835 147.814,249.798 141.323 L 260.638 129.520 257.565 126.568 C 248.102 117.477,225.997 109.375,210.656 109.375 C 210.259 109.375,210.156 106.404,210.156 94.922 L 210.156 80.469 200.000 80.469 L 189.844 80.469 189.844 95.060 " stroke="none" fill="#000000" fill-rule="evenodd"></path></g></svg>