<svg id="svg" xmlns="http://www.w3.org/2000/svg" xmlns:xlink="http://www.w3.org/1999/xlink" width="400" height="503.5460992907801" viewBox="0, 0, 400,503.5460992907801"><g id="svgg"><path id="path0" d="M96.904 1.125 C 63.659 9.172,58.960 55.294,89.892 69.942 L 95.706 72.695 95.725 101.423 L 95.745 130.150 118.085 152.482 L 140.426 174.814 140.426 252.464 L 140.426 330.113 118.085 352.493 L 95.745 374.874 95.725 402.863 L 95.706 430.851 89.892 433.604 C 58.776 448.340,63.701 494.551,97.229 502.454 C 139.300 512.371,160.588 452.827,121.809 433.701 L 116.312 430.990 116.312 409.128 L 116.312 387.267 139.007 364.583 L 161.702 341.899 161.702 252.307 L 161.702 162.714 139.007 140.060 L 116.312 117.406 116.312 94.981 L 116.312 72.556 121.809 69.845 C 160.737 50.646,139.089 -9.086,96.904 1.125 M285.556 1.125 C 252.312 9.172,247.613 55.294,278.545 69.942 L 284.359 72.695 284.378 95.040 L 284.397 117.384 262.057 139.716 L 239.716 162.048 239.716 251.933 L 239.716 341.818 262.057 364.246 L 284.397 386.673 284.378 408.762 L 284.359 430.851 278.545 433.604 C 247.429 448.340,252.353 494.551,285.882 502.454 C 327.953 512.371,349.240 452.827,310.461 433.701 L 304.965 430.990 304.965 402.547 L 304.965 374.105 282.979 352.128 L 260.993 330.150 260.993 251.997 L 260.993 173.843 282.979 151.830 L 304.965 129.817 304.965 101.187 L 304.965 72.556 310.461 69.845 C 349.389 50.646,327.742 -9.086,285.556 1.125 M110.710 22.084 C 119.685 25.089,123.717 35.354,119.326 44.021 C 113.671 55.184,97.881 55.149,91.984 43.961 C 85.441 31.546,97.365 17.616,110.710 22.084 M299.362 22.084 C 308.338 25.089,312.370 35.354,307.979 44.021 C 302.324 55.184,286.534 55.149,280.637 43.961 C 274.093 31.546,286.017 17.616,299.362 22.084 M191.230 69.210 C 158.180 77.210,153.289 122.850,183.865 137.930 L 189.362 140.641 189.362 252.128 L 189.362 363.614 183.865 366.325 C 153.107 381.495,158.221 427.221,191.555 435.078 C 233.627 444.995,254.914 385.451,216.135 366.325 L 210.638 363.614 210.638 252.128 L 210.638 140.641 216.135 137.930 C 255.063 118.731,233.416 58.999,191.230 69.210 M205.036 90.169 C 214.011 93.174,218.043 103.439,213.652 112.106 C 207.997 123.269,192.207 123.234,186.310 112.046 C 179.767 99.631,191.691 85.701,205.036 90.169 M28.109 103.962 C 18.642 106.253,8.960 113.797,4.434 122.406 C -11.128 152.016,17.233 184.990,49.168 174.417 L 54.010 172.814 72.750 191.544 L 91.489 210.274 91.489 253.546 L 91.489 296.819 73.416 314.882 L 55.343 332.944 53.026 331.982 C 14.502 315.992,-18.186 361.988,10.977 391.151 C 38.840 419.014,85.475 388.503,71.286 351.693 C 70.966 350.863,76.587 344.790,91.806 329.525 L 112.766 308.500 112.766 253.368 L 112.766 198.236 91.523 176.955 L 70.280 155.674 71.739 151.418 C 81.012 124.367,56.038 97.202,28.109 103.962 M354.350 103.962 C 334.573 108.749,322.368 129.464,327.644 149.291 L 328.965 154.255 308.099 175.182 L 287.234 196.108 287.234 250.899 L 287.234 305.690 308.563 327.074 C 326.491 345.047,329.815 348.693,329.408 349.938 C 317.956 384.953,349.140 414.140,380.430 397.693 C 419.801 377.000,393.292 316.207,351.118 330.472 L 346.562 332.013 327.536 312.997 L 308.511 293.981 308.511 250.913 L 308.511 207.844 326.641 189.746 L 344.772 171.649 347.541 173.062 C 367.458 183.223,393.634 170.534,398.908 148.161 C 405.166 121.614,380.894 97.537,354.350 103.962 M41.915 124.921 C 50.891 127.926,54.923 138.191,50.532 146.858 C 44.877 158.021,29.087 157.986,23.190 146.798 C 16.646 134.383,28.571 120.453,41.915 124.921 M368.157 124.921 C 377.132 127.926,381.164 138.191,376.773 146.858 C 371.118 158.021,355.328 157.986,349.431 146.798 C 342.888 134.383,354.812 120.453,368.157 124.921 M41.915 350.453 C 50.891 353.458,54.923 363.723,50.532 372.390 C 44.877 383.552,29.087 383.518,23.190 372.329 C 16.646 359.915,28.571 345.985,41.915 350.453 M368.157 350.453 C 377.132 353.458,381.164 363.723,376.773 372.390 C 371.118 383.552,355.328 383.518,349.431 372.329 C 342.888 359.915,354.812 345.985,368.157 350.453 M205.036 384.495 C 214.011 387.500,218.043 397.765,213.652 406.432 C 207.997 417.595,192.207 417.560,186.310 406.372 C 179.767 393.958,191.691 380.027,205.036 384.495 M110.710 451.871 C 119.685 454.876,123.717 465.141,119.326 473.808 C 113.671 484.971,97.881 484.936,91.984 473.748 C 85.441 461.334,97.365 447.403,110.710 451.871 M299.362 451.871 C 308.338 454.876,312.370 465.141,307.979 473.808 C 302.324 484.971,286.534 484.936,280.637 473.748 C 274.093 461.334,286.017 447.403,299.362 451.871 " stroke="none" fill="#000000" fill-rule="evenodd"></path></g></svg>