<svg id="svg" version="1.1" xmlns="http://www.w3.org/2000/svg" xmlns:xlink="http://www.w3.org/1999/xlink" width="400" height="388.32487309644677" viewBox="0, 0, 400,388.32487309644677"><g id="svgg"><path id="path0" d="M179.417 0.893 C 176.748 1.102,174.476 1.399,174.369 1.552 C 174.262 1.705,172.165 2.047,169.709 2.312 C 167.252 2.576,163.845 3.118,162.136 3.515 C 160.427 3.912,158.112 4.355,156.990 4.499 C 155.869 4.642,154.951 4.884,154.951 5.036 C 154.951 5.188,153.466 5.543,151.650 5.825 C 149.835 6.108,148.350 6.466,148.350 6.621 C 148.350 6.776,147.214 7.117,145.825 7.379 C 144.437 7.641,143.301 7.975,143.301 8.122 C 143.301 8.268,142.216 8.612,140.890 8.886 C 139.564 9.160,138.034 9.609,137.492 9.883 C 136.949 10.157,135.587 10.597,134.466 10.860 C 133.345 11.124,132.427 11.473,132.427 11.636 C 132.427 11.799,131.379 12.155,130.097 12.427 C 128.816 12.699,127.767 13.052,127.767 13.211 C 127.767 13.370,126.981 13.698,126.019 13.940 C 125.058 14.182,124.272 14.524,124.272 14.701 C 124.272 14.877,123.290 15.257,122.091 15.545 C 120.891 15.833,119.703 16.274,119.451 16.526 C 119.199 16.779,118.564 17.116,118.040 17.277 C 116.717 17.682,112.857 19.489,112.621 19.814 C 112.515 19.961,111.772 20.295,110.971 20.556 C 110.170 20.817,109.515 21.192,109.515 21.389 C 109.515 21.586,109.302 21.748,109.043 21.748 C 108.783 21.748,107.105 22.490,105.314 23.398 C 100.751 25.710,100.027 26.104,99.806 26.393 C 99.699 26.532,99.044 26.876,98.350 27.157 C 97.655 27.437,97.087 27.809,97.087 27.982 C 97.087 28.155,96.694 28.417,96.214 28.563 C 95.733 28.709,94.816 29.219,94.175 29.698 C 93.534 30.176,92.617 30.692,92.136 30.844 C 91.655 30.996,91.262 31.262,91.262 31.435 C 91.262 31.609,90.738 31.968,90.097 32.233 C 89.456 32.498,88.932 32.848,88.932 33.010 C 88.932 33.171,88.408 33.521,87.767 33.786 C 87.126 34.052,86.602 34.414,86.602 34.592 C 86.602 34.770,85.947 35.220,85.146 35.592 C 84.345 35.964,83.550 36.497,83.379 36.775 C 83.208 37.054,82.809 37.282,82.493 37.282 C 82.176 37.282,81.817 37.544,81.694 37.864 C 81.571 38.184,81.237 38.447,80.951 38.447 C 80.666 38.447,80.196 38.783,79.908 39.195 C 79.620 39.607,78.911 40.159,78.333 40.422 C 77.755 40.686,77.282 41.052,77.282 41.237 C 77.282 41.422,76.840 41.740,76.301 41.946 C 75.761 42.151,75.218 42.583,75.094 42.907 C 74.970 43.230,74.635 43.495,74.349 43.495 C 74.064 43.495,73.602 43.817,73.323 44.210 C 73.044 44.604,72.439 45.125,71.979 45.369 C 71.518 45.613,70.382 46.518,69.454 47.380 C 68.526 48.242,67.112 49.555,66.311 50.299 C 65.510 51.042,64.748 51.650,64.617 51.650 C 64.254 51.650,48.932 67.053,48.932 67.418 C 48.932 67.594,48.488 68.181,47.945 68.723 C 45.931 70.736,43.495 73.575,43.495 73.910 C 43.495 74.101,43.058 74.601,42.524 75.021 C 41.990 75.441,41.553 75.947,41.553 76.145 C 41.553 76.343,41.279 76.811,40.943 77.184 C 39.492 78.798,38.448 80.222,38.447 80.586 C 38.447 80.802,38.097 81.196,37.670 81.463 C 37.243 81.730,36.893 82.190,36.893 82.486 C 36.893 82.782,36.628 83.125,36.305 83.249 C 35.981 83.374,35.549 83.917,35.344 84.456 C 35.138 84.996,34.824 85.437,34.645 85.437 C 34.466 85.437,34.080 86.049,33.786 86.796 C 33.493 87.544,33.107 88.155,32.928 88.155 C 32.749 88.155,32.436 88.592,32.233 89.126 C 32.030 89.660,31.717 90.097,31.538 90.097 C 31.359 90.097,30.976 90.701,30.686 91.440 C 30.396 92.179,29.936 92.869,29.664 92.973 C 29.392 93.077,28.957 93.871,28.698 94.737 C 28.439 95.602,28.070 96.311,27.879 96.311 C 27.689 96.311,27.350 96.835,27.126 97.476 C 26.903 98.117,26.574 98.641,26.395 98.641 C 26.216 98.641,25.849 99.252,25.578 100.000 C 25.308 100.748,24.959 101.359,24.803 101.359 C 24.484 101.359,21.748 106.895,21.748 107.542 C 21.748 107.773,21.590 107.961,21.397 107.961 C 21.205 107.961,20.864 108.485,20.641 109.126 C 20.417 109.767,20.051 110.291,19.826 110.291 C 19.601 110.291,19.417 110.597,19.416 110.971 C 19.415 111.345,18.892 112.699,18.252 113.981 C 17.613 115.262,17.090 116.542,17.089 116.824 C 17.088 117.106,16.847 117.577,16.554 117.870 C 16.261 118.164,15.786 119.200,15.498 120.173 C 15.211 121.146,14.857 121.942,14.711 121.942 C 14.566 121.942,14.237 122.816,13.981 123.883 C 13.724 124.951,13.374 125.825,13.201 125.825 C 13.028 125.825,12.663 126.699,12.390 127.767 C 12.116 128.835,11.774 129.709,11.630 129.709 C 11.486 129.709,11.146 130.757,10.874 132.039 C 10.602 133.320,10.260 134.369,10.115 134.369 C 9.970 134.369,9.542 135.680,9.164 137.282 C 8.786 138.883,8.352 140.194,8.198 140.194 C 8.044 140.194,7.698 141.505,7.429 143.107 C 7.160 144.709,6.797 146.019,6.623 146.019 C 6.449 146.019,6.079 147.417,5.801 149.126 C 5.524 150.835,5.180 152.233,5.037 152.233 C 4.895 152.233,4.566 153.762,4.308 155.631 C 4.049 157.500,3.597 159.903,3.302 160.971 C 3.008 162.039,2.551 165.184,2.286 167.961 C 2.022 170.738,1.618 173.134,1.388 173.287 C 0.796 173.680,0.803 215.064,1.395 215.451 C 1.629 215.603,2.034 217.913,2.296 220.583 C 2.558 223.252,3.012 226.311,3.305 227.379 C 3.598 228.447,4.049 230.850,4.308 232.718 C 4.566 234.587,4.895 236.117,5.037 236.117 C 5.180 236.117,5.524 237.515,5.801 239.223 C 6.079 240.932,6.432 242.330,6.586 242.330 C 6.740 242.330,7.100 243.597,7.387 245.146 C 7.674 246.694,8.019 248.049,8.153 248.155 C 8.288 248.262,8.620 249.367,8.893 250.610 C 9.165 251.853,9.709 253.601,10.100 254.494 C 10.492 255.386,10.933 256.772,11.080 257.573 C 11.228 258.374,11.471 259.029,11.620 259.029 C 11.770 259.029,12.126 259.941,12.412 261.056 C 12.697 262.171,13.151 263.304,13.420 263.573 C 13.690 263.842,14.028 264.765,14.173 265.623 C 14.319 266.482,14.569 267.184,14.729 267.184 C 14.890 267.184,15.252 267.927,15.533 268.835 C 15.815 269.743,16.265 270.851,16.535 271.297 C 16.804 271.744,17.220 272.836,17.459 273.724 C 17.698 274.613,18.034 275.340,18.205 275.340 C 18.376 275.340,18.747 276.039,19.029 276.893 C 19.311 277.748,19.661 278.447,19.806 278.447 C 19.951 278.447,20.301 279.146,20.583 280.000 C 20.864 280.854,21.228 281.553,21.390 281.553 C 21.552 281.553,21.975 282.427,22.330 283.495 C 22.685 284.563,23.103 285.437,23.260 285.437 C 23.416 285.437,23.784 286.049,24.078 286.796 C 24.371 287.544,24.736 288.155,24.889 288.155 C 25.042 288.155,25.349 288.680,25.573 289.320 C 25.796 289.961,26.149 290.485,26.357 290.485 C 26.564 290.485,26.849 291.009,26.990 291.648 C 27.130 292.288,27.453 292.943,27.706 293.104 C 27.960 293.266,28.514 294.139,28.938 295.044 C 29.362 295.949,29.840 296.692,30.000 296.695 C 30.160 296.697,30.291 296.901,30.291 297.148 C 30.291 297.395,30.728 298.169,31.262 298.869 C 31.796 299.570,32.233 300.334,32.233 300.569 C 32.233 300.803,32.479 301.090,32.780 301.205 C 33.081 301.321,33.539 301.927,33.798 302.552 C 34.057 303.178,34.403 303.689,34.566 303.689 C 34.729 303.689,35.153 304.301,35.508 305.049 C 35.863 305.796,36.320 306.408,36.523 306.408 C 36.727 306.408,36.893 306.648,36.893 306.942 C 36.893 307.236,37.592 308.219,38.447 309.126 C 39.301 310.033,40.000 310.890,40.000 311.029 C 40.000 311.252,40.831 312.293,42.901 314.660 C 43.228 315.034,43.495 315.465,43.495 315.617 C 43.495 315.770,43.827 316.251,44.234 316.685 C 44.640 317.120,45.791 318.350,46.791 319.417 C 47.791 320.485,48.988 321.858,49.451 322.469 C 50.559 323.931,64.035 337.475,64.387 337.480 C 64.537 337.482,65.253 338.094,65.977 338.839 C 66.701 339.584,67.449 340.194,67.639 340.194 C 67.830 340.194,68.628 340.893,69.414 341.748 C 70.199 342.602,70.986 343.301,71.162 343.301 C 71.338 343.301,71.969 343.782,72.564 344.369 C 73.671 345.462,74.696 346.210,75.728 346.676 C 76.049 346.821,76.539 347.256,76.818 347.644 C 77.097 348.032,77.490 348.350,77.692 348.350 C 77.893 348.350,78.395 348.655,78.807 349.029 C 79.968 350.082,80.443 350.440,82.727 351.976 C 83.897 352.762,85.204 353.674,85.631 354.001 C 86.058 354.328,86.801 354.694,87.282 354.815 C 87.762 354.937,88.155 355.196,88.155 355.392 C 88.155 355.587,88.592 355.913,89.126 356.117 C 89.660 356.320,90.097 356.632,90.097 356.811 C 90.097 356.990,90.701 357.374,91.440 357.664 C 92.179 357.953,92.869 358.413,92.973 358.685 C 93.077 358.957,93.871 359.392,94.737 359.651 C 95.602 359.911,96.311 360.279,96.311 360.470 C 96.311 360.661,96.835 361.000,97.476 361.223 C 98.117 361.447,98.641 361.754,98.641 361.907 C 98.641 362.060,99.252 362.425,100.000 362.718 C 100.748 363.012,101.359 363.387,101.359 363.552 C 101.359 363.717,102.058 364.062,102.913 364.318 C 103.767 364.574,104.466 364.913,104.466 365.071 C 104.466 365.229,105.340 365.673,106.408 366.057 C 107.476 366.441,108.350 366.868,108.350 367.005 C 108.350 367.142,109.049 367.485,109.903 367.767 C 110.757 368.049,111.456 368.398,111.456 368.544 C 111.456 368.689,112.155 369.038,113.010 369.320 C 113.864 369.602,114.563 369.977,114.563 370.154 C 114.563 370.330,115.350 370.672,116.311 370.914 C 117.272 371.156,118.058 371.487,118.058 371.648 C 118.058 371.810,119.194 372.268,120.583 372.665 C 121.971 373.063,123.107 373.502,123.107 373.642 C 123.107 373.781,123.893 374.127,124.854 374.411 C 125.816 374.695,126.602 375.036,126.602 375.168 C 126.602 375.301,127.563 375.641,128.738 375.922 C 129.913 376.204,130.874 376.549,130.874 376.688 C 130.874 376.827,131.770 377.170,132.865 377.451 C 133.959 377.731,135.289 378.186,135.820 378.461 C 136.350 378.737,137.901 379.184,139.266 379.455 C 140.631 379.726,141.748 380.071,141.748 380.221 C 141.748 380.372,142.883 380.709,144.272 380.971 C 145.660 381.233,146.796 381.571,146.796 381.722 C 146.796 381.872,148.194 382.223,149.903 382.501 C 151.612 382.778,153.010 383.126,153.010 383.273 C 153.010 383.420,154.581 383.763,156.501 384.035 C 158.422 384.307,160.076 384.663,160.177 384.827 C 160.278 384.991,162.770 385.430,165.715 385.803 C 168.659 386.177,171.417 386.632,171.845 386.815 C 176.091 388.633,229.515 388.568,229.515 386.745 C 229.515 386.559,230.121 386.408,230.862 386.408 C 232.803 386.408,240.442 385.276,241.359 384.852 C 241.786 384.655,243.578 384.292,245.340 384.047 C 247.102 383.801,248.544 383.473,248.544 383.318 C 248.544 383.164,249.811 382.814,251.359 382.541 C 252.908 382.269,254.374 381.886,254.617 381.691 C 254.860 381.495,256.127 381.147,257.433 380.918 C 258.738 380.688,259.806 380.366,259.806 380.203 C 259.806 380.040,260.898 379.693,262.233 379.431 C 263.568 379.170,265.403 378.618,266.311 378.206 C 267.218 377.794,268.485 377.351,269.126 377.223 C 269.767 377.095,270.291 376.870,270.291 376.724 C 270.291 376.577,271.165 376.234,272.233 375.960 C 273.301 375.686,274.175 375.337,274.175 375.183 C 274.175 375.030,275.049 374.680,276.117 374.406 C 277.184 374.133,278.058 373.788,278.058 373.641 C 278.058 373.494,278.888 373.130,279.903 372.833 C 280.917 372.536,282.516 371.886,283.456 371.389 C 284.395 370.892,285.400 370.485,285.689 370.485 C 285.977 370.485,286.214 370.333,286.214 370.148 C 286.214 369.962,287.000 369.589,287.961 369.320 C 288.922 369.051,289.709 368.686,289.709 368.509 C 289.709 368.332,290.408 367.977,291.262 367.721 C 292.117 367.465,292.816 367.142,292.816 367.004 C 292.816 366.865,293.558 366.428,294.466 366.032 C 295.374 365.636,296.204 365.185,296.311 365.030 C 296.417 364.874,297.117 364.475,297.864 364.143 C 299.314 363.497,301.427 362.283,301.748 361.911 C 301.854 361.787,302.510 361.438,303.204 361.136 C 303.898 360.834,304.466 360.482,304.466 360.353 C 304.466 360.224,305.209 359.791,306.117 359.390 C 307.024 358.990,307.907 358.440,308.078 358.166 C 308.248 357.893,308.647 357.670,308.964 357.670 C 309.280 357.670,309.640 357.408,309.762 357.087 C 309.885 356.767,310.157 356.505,310.366 356.505 C 310.684 356.505,313.305 354.807,314.748 353.666 C 315.117 353.375,316.964 352.168,318.430 351.262 C 319.195 350.789,320.185 349.975,321.299 348.903 C 321.759 348.460,322.442 347.985,322.816 347.847 C 323.189 347.710,323.495 347.438,323.495 347.244 C 323.495 347.049,324.026 346.670,324.675 346.402 C 325.324 346.133,326.029 345.587,326.242 345.189 C 326.455 344.792,326.821 344.466,327.055 344.466 C 327.289 344.466,328.058 343.854,328.763 343.107 C 329.468 342.359,330.222 341.748,330.437 341.748 C 330.653 341.748,331.058 341.442,331.337 341.068 C 331.616 340.694,332.715 339.689,333.779 338.835 C 335.774 337.233,338.641 334.353,338.641 333.951 C 338.641 333.826,339.121 333.476,339.709 333.172 C 340.841 332.588,342.913 330.722,342.913 330.286 C 342.913 329.985,344.640 328.038,345.966 326.845 C 348.087 324.937,351.068 321.834,351.068 321.534 C 351.068 321.356,351.854 320.370,352.814 319.343 C 353.775 318.316,355.173 316.820,355.921 316.019 C 356.669 315.218,357.282 314.401,357.282 314.203 C 357.282 314.005,357.718 313.499,358.252 313.079 C 358.786 312.659,359.224 312.166,359.224 311.983 C 359.224 311.800,359.653 311.126,360.178 310.485 C 360.703 309.845,361.445 308.906,361.828 308.400 C 362.211 307.895,362.786 307.180,363.107 306.813 C 363.965 305.829,364.653 304.750,364.911 303.981 C 365.036 303.607,365.298 303.301,365.492 303.301 C 365.686 303.301,366.011 302.864,366.214 302.330 C 366.417 301.796,366.727 301.359,366.903 301.359 C 367.079 301.359,367.444 300.748,367.714 300.000 C 367.984 299.252,368.348 298.641,368.522 298.641 C 368.696 298.641,369.055 298.117,369.320 297.476 C 369.586 296.835,369.917 296.311,370.056 296.311 C 370.195 296.311,370.653 295.655,371.073 294.854 C 371.493 294.053,371.927 293.311,372.036 293.204 C 372.145 293.097,372.496 292.485,372.816 291.845 C 373.136 291.204,373.617 290.449,373.883 290.166 C 374.150 289.884,374.369 289.412,374.369 289.118 C 374.369 288.823,374.598 288.443,374.877 288.272 C 375.157 288.101,375.629 287.350,375.927 286.602 C 376.225 285.854,376.676 285.068,376.929 284.854 C 377.183 284.641,377.598 283.811,377.851 283.010 C 378.105 282.209,378.446 281.553,378.609 281.553 C 378.772 281.553,379.136 280.854,379.417 280.000 C 379.699 279.146,380.049 278.447,380.194 278.447 C 380.339 278.447,380.689 277.748,380.971 276.893 C 381.253 276.039,381.592 275.340,381.725 275.340 C 381.858 275.340,382.199 274.553,382.482 273.592 C 382.766 272.631,383.121 271.845,383.270 271.845 C 383.420 271.845,383.856 270.796,384.240 269.515 C 384.624 268.233,385.063 267.184,385.214 267.184 C 385.366 267.184,385.729 266.311,386.019 265.243 C 386.310 264.175,386.679 263.301,386.838 263.301 C 386.998 263.301,387.344 262.340,387.607 261.165 C 387.870 259.990,388.216 259.029,388.377 259.029 C 388.538 259.029,388.788 258.327,388.933 257.468 C 389.078 256.609,389.429 255.675,389.712 255.392 C 389.996 255.108,390.534 253.451,390.908 251.710 C 391.282 249.969,391.706 248.544,391.849 248.544 C 391.991 248.544,392.343 247.277,392.630 245.728 C 392.917 244.180,393.301 242.811,393.485 242.686 C 393.668 242.561,394.005 241.250,394.234 239.773 C 394.463 238.296,394.772 237.000,394.920 236.893 C 395.068 236.786,395.425 235.214,395.713 233.398 C 396.001 231.583,396.369 229.835,396.532 229.515 C 396.894 228.801,398.058 219.402,398.058 217.197 C 398.058 216.318,398.222 215.540,398.421 215.469 C 399.610 215.045,399.664 174.024,398.477 173.204 C 398.322 173.097,397.894 170.220,397.524 166.811 C 397.154 163.402,396.705 160.431,396.526 160.209 C 396.347 159.987,395.982 158.189,395.715 156.214 C 395.448 154.238,395.080 152.621,394.896 152.621 C 394.713 152.621,394.563 152.239,394.563 151.771 C 394.563 150.447,393.662 146.408,393.367 146.408 C 393.221 146.408,392.875 145.010,392.598 143.301 C 392.320 141.592,391.965 140.194,391.808 140.194 C 391.651 140.194,391.214 138.883,390.836 137.282 C 390.458 135.680,390.030 134.369,389.885 134.369 C 389.740 134.369,389.398 133.320,389.126 132.039 C 388.854 130.757,388.514 129.709,388.370 129.709 C 388.226 129.709,387.884 128.835,387.610 127.767 C 387.337 126.699,386.967 125.825,386.788 125.825 C 386.610 125.825,386.248 124.864,385.985 123.689 C 385.723 122.515,385.388 121.553,385.243 121.553 C 385.098 121.553,384.740 120.811,384.447 119.903 C 384.155 118.995,383.355 117.163,382.670 115.832 C 381.985 114.501,381.209 112.754,380.947 111.949 C 380.685 111.144,380.356 110.398,380.216 110.291 C 380.076 110.184,379.276 108.699,378.437 106.990 C 377.599 105.282,376.808 103.796,376.681 103.689 C 376.553 103.583,375.878 102.316,375.182 100.874 C 374.486 99.432,373.775 98.252,373.602 98.252 C 373.429 98.252,373.181 97.828,373.051 97.309 C 372.921 96.790,372.573 96.123,372.277 95.828 C 371.982 95.533,371.327 94.536,370.822 93.612 C 369.018 90.316,368.175 89.025,367.149 87.986 C 366.915 87.750,366.499 87.135,366.222 86.618 C 365.946 86.102,365.568 85.494,365.383 85.267 C 365.198 85.040,364.405 83.897,363.621 82.727 C 361.924 80.194,361.626 79.808,360.485 78.657 C 360.005 78.172,359.612 77.585,359.612 77.353 C 359.612 77.122,359.377 76.792,359.090 76.621 C 358.803 76.450,358.240 75.786,357.837 75.146 C 357.435 74.505,356.883 73.841,356.611 73.670 C 356.339 73.499,356.115 73.150,356.113 72.893 C 356.111 72.637,355.413 71.816,354.563 71.068 C 353.713 70.320,353.016 69.568,353.014 69.396 C 353.011 69.223,352.136 68.195,351.068 67.110 C 350.000 66.025,349.126 64.981,349.126 64.790 C 349.126 64.598,348.402 63.792,347.517 62.998 C 346.632 62.203,345.539 61.137,345.090 60.628 C 344.640 60.119,343.162 58.634,341.806 57.327 C 340.450 56.020,338.977 54.558,338.532 54.078 C 338.088 53.597,337.598 53.204,337.444 53.204 C 337.290 53.204,336.055 52.150,334.699 50.862 C 330.332 46.714,329.327 45.825,329.002 45.825 C 328.827 45.825,328.320 45.432,327.874 44.951 C 327.429 44.471,326.415 43.641,325.620 43.107 C 324.825 42.573,323.783 41.743,323.305 41.262 C 322.827 40.782,322.245 40.388,322.014 40.388 C 321.782 40.388,321.452 40.170,321.281 39.903 C 320.880 39.276,317.466 36.893,316.968 36.893 C 316.759 36.893,316.487 36.631,316.364 36.311 C 316.241 35.990,315.917 35.728,315.643 35.727 C 315.370 35.727,314.534 35.203,313.786 34.563 C 313.039 33.923,312.227 33.399,311.983 33.399 C 311.739 33.398,311.445 33.152,311.330 32.852 C 311.215 32.552,310.584 32.189,309.929 32.045 C 309.274 31.901,308.738 31.613,308.738 31.405 C 308.738 31.198,308.214 30.845,307.573 30.621 C 306.932 30.398,306.408 30.066,306.408 29.883 C 306.408 29.700,305.752 29.246,304.951 28.873 C 304.150 28.501,303.408 28.085,303.301 27.950 C 303.194 27.815,302.539 27.458,301.845 27.156 C 301.150 26.854,300.583 26.488,300.583 26.343 C 300.583 26.198,299.971 25.878,299.223 25.631 C 298.476 25.384,297.864 25.035,297.864 24.855 C 297.864 24.675,297.341 24.413,296.701 24.272 C 296.062 24.132,295.406 23.796,295.245 23.525 C 295.084 23.255,294.121 22.720,293.107 22.338 C 292.092 21.955,291.262 21.519,291.262 21.368 C 291.262 21.217,290.563 20.884,289.709 20.628 C 288.854 20.372,288.155 20.023,288.155 19.852 C 288.155 19.682,287.456 19.311,286.602 19.029 C 285.748 18.747,285.049 18.370,285.049 18.190 C 285.049 18.011,284.760 17.864,284.406 17.864 C 284.053 17.864,282.867 17.440,281.770 16.921 C 280.674 16.402,279.041 15.748,278.141 15.467 C 277.241 15.186,276.505 14.842,276.505 14.701 C 276.505 14.561,275.592 14.227,274.476 13.960 C 273.360 13.692,272.227 13.253,271.959 12.985 C 271.691 12.717,270.769 12.379,269.911 12.234 C 269.052 12.089,268.350 11.839,268.350 11.678 C 268.350 11.517,267.391 11.171,266.221 10.909 C 265.050 10.647,263.608 10.196,263.017 9.907 C 262.425 9.617,260.850 9.170,259.515 8.912 C 258.180 8.654,257.087 8.319,257.087 8.167 C 257.087 8.016,255.864 7.661,254.369 7.379 C 252.874 7.097,251.650 6.750,251.650 6.610 C 251.650 6.469,250.252 6.126,248.544 5.849 C 246.835 5.572,245.437 5.222,245.437 5.071 C 245.437 4.921,243.733 4.570,241.650 4.290 C 239.568 4.011,237.165 3.556,236.311 3.279 C 235.456 3.002,232.660 2.559,230.097 2.295 C 227.534 2.030,225.350 1.692,225.243 1.542 C 224.502 0.506,190.515 0.024,179.417 0.893 M220.583 35.749 C 223.252 36.006,225.524 36.334,225.631 36.477 C 225.738 36.621,227.659 36.962,229.899 37.235 C 232.140 37.509,234.062 37.857,234.171 38.010 C 234.280 38.162,235.767 38.516,237.476 38.796 C 239.184 39.076,240.670 39.439,240.777 39.604 C 240.883 39.769,242.238 40.116,243.786 40.375 C 245.335 40.635,246.602 40.966,246.602 41.113 C 246.602 41.259,248.087 41.704,249.903 42.102 C 251.718 42.500,253.204 42.949,253.204 43.098 C 253.204 43.248,254.165 43.602,255.340 43.883 C 256.515 44.165,257.476 44.525,257.476 44.683 C 257.476 44.842,258.389 45.190,259.505 45.458 C 260.621 45.726,261.763 46.173,262.042 46.452 C 262.321 46.731,263.155 47.073,263.896 47.212 C 264.637 47.351,265.243 47.602,265.243 47.768 C 265.243 47.935,266.291 48.386,267.573 48.769 C 268.854 49.153,269.903 49.602,269.903 49.767 C 269.903 49.931,270.602 50.275,271.456 50.531 C 272.311 50.787,273.010 51.130,273.010 51.293 C 273.010 51.457,273.621 51.792,274.369 52.039 C 275.117 52.286,275.728 52.635,275.728 52.815 C 275.728 52.995,276.254 53.258,276.897 53.399 C 277.540 53.540,278.283 53.863,278.548 54.116 C 278.812 54.370,279.772 54.906,280.680 55.309 C 281.587 55.711,282.330 56.156,282.330 56.297 C 282.330 56.438,282.942 56.794,283.689 57.087 C 284.437 57.381,285.049 57.763,285.049 57.937 C 285.049 58.110,285.280 58.252,285.562 58.252 C 285.844 58.252,286.762 58.772,287.601 59.407 C 288.440 60.042,289.345 60.566,289.612 60.572 C 289.879 60.578,290.097 60.749,290.097 60.953 C 290.097 61.156,290.752 61.627,291.553 62.000 C 292.354 62.372,293.149 62.904,293.320 63.183 C 293.491 63.461,293.876 63.689,294.175 63.689 C 294.474 63.689,294.858 63.908,295.029 64.175 C 295.200 64.443,295.864 64.923,296.505 65.243 C 297.146 65.563,297.898 66.131,298.177 66.505 C 298.456 66.879,298.842 67.184,299.033 67.184 C 299.225 67.184,299.804 67.578,300.319 68.058 C 301.646 69.296,303.449 70.668,303.756 70.674 C 303.899 70.677,304.773 71.390,305.697 72.259 C 306.622 73.128,308.109 74.526,309.002 75.366 C 309.895 76.206,310.741 76.893,310.883 76.893 C 311.210 76.893,323.495 89.142,323.495 89.468 C 323.495 89.600,324.150 90.394,324.951 91.232 C 327.489 93.887,329.320 96.022,329.320 96.324 C 329.320 96.486,329.754 97.029,330.285 97.532 C 330.815 98.035,331.252 98.659,331.255 98.918 C 331.259 99.178,331.612 99.577,332.039 99.806 C 332.466 100.034,332.816 100.476,332.816 100.787 C 332.816 101.098,333.165 101.571,333.592 101.838 C 334.019 102.104,334.369 102.499,334.369 102.715 C 334.370 102.930,334.802 103.609,335.329 104.222 C 335.857 104.836,336.388 105.650,336.509 106.031 C 336.630 106.412,336.984 106.822,337.296 106.942 C 337.609 107.062,337.864 107.352,337.864 107.587 C 337.864 107.821,338.301 108.586,338.835 109.286 C 339.369 109.986,339.806 110.708,339.806 110.890 C 339.806 111.243,341.641 114.049,342.395 114.850 C 342.645 115.115,342.965 115.858,343.106 116.501 C 343.247 117.144,343.501 117.670,343.669 117.670 C 343.837 117.670,344.994 119.723,346.240 122.233 C 347.485 124.743,348.619 126.883,348.759 126.990 C 348.899 127.097,349.227 127.840,349.488 128.641 C 349.750 129.442,350.110 130.097,350.291 130.097 C 350.471 130.097,350.738 130.665,350.885 131.359 C 351.032 132.053,351.471 133.233,351.861 133.981 C 352.251 134.728,352.782 136.039,353.043 136.893 C 353.303 137.748,353.739 138.796,354.011 139.223 C 354.283 139.650,354.625 140.655,354.772 141.456 C 354.918 142.257,355.169 142.913,355.330 142.913 C 355.491 142.913,355.845 143.961,356.117 145.243 C 356.388 146.524,356.740 147.573,356.897 147.573 C 357.054 147.573,357.499 149.102,357.886 150.971 C 358.273 152.840,358.726 154.463,358.893 154.578 C 359.061 154.693,359.415 156.091,359.682 157.685 C 359.948 159.279,360.270 160.670,360.397 160.777 C 360.686 161.019,361.553 165.763,361.553 167.100 C 361.553 167.645,361.715 168.149,361.912 168.220 C 362.110 168.291,362.484 170.883,362.744 173.981 C 363.003 177.078,363.405 179.733,363.636 179.882 C 364.221 180.258,364.246 208.848,363.662 209.237 C 363.433 209.390,363.024 211.961,362.752 214.951 C 362.480 217.941,362.125 220.475,361.963 220.582 C 361.800 220.689,361.436 222.481,361.153 224.563 C 360.870 226.646,360.523 228.350,360.381 228.350 C 360.240 228.350,359.901 229.617,359.629 231.165 C 359.356 232.714,359.007 234.155,358.852 234.369 C 358.698 234.583,358.259 236.286,357.877 238.155 C 357.495 240.024,357.058 241.553,356.906 241.553 C 356.753 241.553,356.398 242.515,356.117 243.689 C 355.835 244.864,355.485 245.825,355.340 245.825 C 355.194 245.825,354.845 246.786,354.563 247.961 C 354.281 249.136,353.942 250.097,353.809 250.097 C 353.676 250.097,353.323 250.927,353.023 251.942 C 352.724 252.956,352.179 254.311,351.811 254.951 C 351.444 255.592,351.025 256.684,350.881 257.379 C 350.736 258.073,350.485 258.641,350.323 258.641 C 350.160 258.641,349.797 259.340,349.515 260.194 C 349.233 261.049,348.877 261.748,348.724 261.748 C 348.572 261.748,348.350 262.231,348.232 262.821 C 348.114 263.411,347.666 264.299,347.236 264.795 C 346.807 265.290,346.343 266.205,346.207 266.828 C 346.070 267.451,345.821 267.961,345.653 267.961 C 345.485 267.961,345.048 268.748,344.681 269.709 C 344.314 270.670,343.870 271.456,343.695 271.456 C 343.520 271.456,343.194 271.981,342.971 272.621 C 342.747 273.262,342.416 273.786,342.234 273.786 C 342.052 273.786,341.682 274.398,341.412 275.146 C 341.142 275.893,340.769 276.505,340.584 276.505 C 340.398 276.505,340.127 276.898,339.981 277.379 C 339.835 277.859,339.299 278.809,338.790 279.489 C 338.281 280.169,337.864 280.903,337.864 281.120 C 337.864 281.337,337.645 281.655,337.378 281.825 C 337.111 281.996,336.630 282.660,336.311 283.301 C 335.991 283.942,335.511 284.606,335.243 284.777 C 334.976 284.947,334.757 285.277,334.757 285.509 C 334.757 285.741,334.364 286.339,333.883 286.839 C 332.400 288.383,331.728 289.226,331.235 290.165 C 330.974 290.662,330.524 291.208,330.235 291.379 C 329.945 291.549,329.709 291.868,329.709 292.087 C 329.709 292.305,329.101 293.127,328.359 293.912 C 325.927 296.485,324.272 298.410,324.272 298.666 C 324.272 299.006,310.240 313.010,309.899 313.010 C 309.626 313.010,308.145 314.274,305.563 316.711 C 304.777 317.452,303.986 318.058,303.804 318.058 C 303.622 318.058,303.200 318.377,302.867 318.767 C 302.533 319.157,301.358 320.060,300.256 320.774 C 299.154 321.488,298.252 322.218,298.252 322.396 C 298.252 322.573,298.000 322.718,297.692 322.718 C 297.384 322.718,296.903 323.024,296.624 323.398 C 296.345 323.772,295.592 324.340,294.951 324.660 C 294.311 324.980,293.647 325.460,293.476 325.728 C 293.305 325.995,292.972 326.214,292.736 326.214 C 292.500 326.214,291.766 326.620,291.105 327.116 C 290.444 327.612,289.597 328.131,289.223 328.269 C 288.850 328.407,288.544 328.700,288.544 328.920 C 288.544 329.140,288.282 329.320,287.961 329.320 C 287.641 329.320,287.034 329.665,286.612 330.087 C 286.190 330.509,285.390 330.968,284.833 331.108 C 284.276 331.248,283.738 331.577,283.638 331.839 C 283.537 332.102,282.746 332.550,281.880 332.836 C 281.014 333.122,280.228 333.559,280.133 333.807 C 280.037 334.055,279.270 334.486,278.426 334.764 C 277.583 335.042,276.893 335.389,276.893 335.534 C 276.893 335.679,276.194 336.029,275.340 336.311 C 274.485 336.593,273.786 336.963,273.786 337.134 C 273.786 337.305,273.087 337.654,272.233 337.910 C 271.379 338.166,270.680 338.510,270.680 338.675 C 270.680 338.839,269.718 339.253,268.544 339.595 C 267.369 339.936,266.408 340.372,266.408 340.563 C 266.408 340.753,265.840 341.034,265.146 341.186 C 264.451 341.338,263.275 341.789,262.531 342.187 C 261.788 342.585,260.608 343.018,259.910 343.149 C 259.212 343.280,258.641 343.510,258.641 343.659 C 258.641 343.809,257.767 344.155,256.699 344.428 C 255.631 344.702,254.757 345.061,254.757 345.225 C 254.757 345.389,253.272 345.849,251.456 346.247 C 249.641 346.645,248.155 347.083,248.155 347.219 C 248.155 347.355,247.063 347.691,245.728 347.966 C 244.393 348.241,243.126 348.594,242.913 348.751 C 242.699 348.908,241.257 349.259,239.709 349.532 C 238.160 349.804,236.893 350.143,236.893 350.284 C 236.893 350.426,235.189 350.773,233.107 351.056 C 231.024 351.339,229.233 351.694,229.126 351.845 C 228.884 352.189,217.630 353.398,214.676 353.398 C 213.475 353.398,212.432 353.577,212.360 353.795 C 212.190 354.304,187.699 354.366,187.055 353.859 C 186.806 353.663,184.942 353.386,182.913 353.246 C 176.916 352.829,170.874 352.126,170.874 351.844 C 170.874 351.700,169.126 351.351,166.990 351.068 C 164.854 350.785,163.107 350.435,163.107 350.291 C 163.107 350.146,161.840 349.804,160.291 349.532 C 158.743 349.259,157.301 348.904,157.087 348.743 C 156.874 348.582,155.519 348.221,154.078 347.941 C 152.636 347.660,151.456 347.316,151.456 347.177 C 151.456 347.037,150.058 346.604,148.350 346.214 C 146.641 345.823,145.243 345.375,145.243 345.218 C 145.243 345.061,144.369 344.722,143.301 344.466 C 142.233 344.210,141.359 343.858,141.359 343.685 C 141.359 343.511,140.657 343.251,139.798 343.105 C 138.940 342.960,137.998 342.603,137.707 342.311 C 137.415 342.020,136.370 341.578,135.384 341.330 C 134.399 341.082,133.592 340.737,133.592 340.564 C 133.592 340.391,132.631 339.970,131.456 339.628 C 130.282 339.287,129.320 338.865,129.320 338.691 C 129.320 338.518,128.621 338.166,127.767 337.910 C 126.913 337.654,126.214 337.305,126.214 337.134 C 126.214 336.963,125.515 336.593,124.660 336.311 C 123.806 336.029,123.107 335.679,123.107 335.534 C 123.107 335.389,122.417 335.042,121.574 334.764 C 120.730 334.486,119.963 334.055,119.867 333.807 C 119.772 333.559,118.986 333.122,118.120 332.836 C 117.254 332.550,116.463 332.102,116.362 331.839 C 116.262 331.577,115.724 331.248,115.167 331.108 C 114.610 330.968,113.810 330.509,113.388 330.087 C 112.966 329.665,112.378 329.320,112.080 329.320 C 111.783 329.320,111.439 329.058,111.316 328.738 C 111.193 328.417,110.846 328.155,110.545 328.155 C 110.244 328.155,109.794 327.909,109.544 327.609 C 109.295 327.308,108.487 326.775,107.749 326.425 C 107.011 326.075,106.408 325.622,106.408 325.419 C 106.408 325.215,106.156 325.049,105.847 325.049 C 105.539 325.049,105.058 324.743,104.779 324.369 C 104.500 323.995,103.753 323.427,103.119 323.107 C 102.025 322.555,101.596 322.241,99.835 320.709 C 99.424 320.351,98.681 319.843,98.185 319.579 C 97.688 319.316,97.053 318.778,96.774 318.385 C 96.495 317.992,96.090 317.670,95.874 317.670 C 95.658 317.670,94.905 317.058,94.200 316.311 C 93.495 315.563,92.764 314.949,92.576 314.945 C 92.387 314.942,91.386 314.068,90.350 313.004 C 89.315 311.939,88.335 311.068,88.173 311.068 C 87.784 311.068,79.612 302.878,79.612 302.488 C 79.612 302.322,78.301 300.892,76.699 299.310 C 75.097 297.729,73.786 296.283,73.786 296.096 C 73.786 295.910,73.345 295.314,72.806 294.772 C 70.984 292.940,69.126 290.809,69.125 290.549 C 69.125 290.407,68.601 289.680,67.961 288.932 C 67.321 288.184,66.798 287.469,66.797 287.342 C 66.797 287.215,66.359 286.603,65.826 285.983 C 65.292 285.362,64.855 284.636,64.855 284.369 C 64.855 284.102,64.675 283.883,64.456 283.883 C 64.238 283.883,63.892 283.447,63.689 282.913 C 63.486 282.379,63.168 281.942,62.981 281.942 C 62.795 281.942,62.327 281.243,61.942 280.388 C 61.556 279.534,61.114 278.835,60.959 278.835 C 60.804 278.835,60.460 278.311,60.194 277.670 C 59.929 277.029,59.591 276.505,59.443 276.505 C 59.295 276.505,58.934 275.893,58.641 275.146 C 58.347 274.398,57.987 273.786,57.839 273.786 C 57.691 273.786,57.353 273.262,57.087 272.621 C 56.822 271.981,56.465 271.456,56.294 271.456 C 56.124 271.456,55.865 270.914,55.719 270.252 C 55.574 269.589,55.143 268.736,54.763 268.355 C 54.382 267.974,53.862 267.031,53.607 266.259 C 53.352 265.486,53.010 264.854,52.847 264.854 C 52.684 264.854,52.341 264.155,52.085 263.301 C 51.829 262.447,51.472 261.748,51.293 261.748 C 51.113 261.748,50.768 260.961,50.526 260.000 C 50.284 259.039,49.942 258.252,49.766 258.252 C 49.590 258.252,49.113 257.248,48.706 256.019 C 48.298 254.791,47.851 253.699,47.712 253.592 C 47.573 253.485,47.259 252.655,47.016 251.748 C 46.772 250.840,46.428 250.097,46.252 250.097 C 46.076 250.097,45.709 249.049,45.437 247.767 C 45.165 246.485,44.834 245.437,44.702 245.437 C 44.388 245.437,43.495 242.569,43.495 241.560 C 43.495 241.129,43.339 240.777,43.148 240.777 C 42.956 240.777,42.482 239.204,42.093 237.282 C 41.705 235.359,41.270 233.786,41.128 233.786 C 40.986 233.786,40.642 232.388,40.365 230.680 C 40.087 228.971,39.736 227.573,39.585 227.573 C 39.434 227.573,39.086 225.782,38.812 223.592 C 38.537 221.403,38.195 219.524,38.052 219.417 C 37.759 219.200,36.893 211.133,36.893 208.618 C 36.893 207.723,36.718 206.990,36.505 206.990 C 36.254 206.990,36.117 202.589,36.117 194.563 C 36.117 187.728,36.255 182.136,36.424 182.136 C 36.593 182.136,36.955 179.299,37.229 175.831 C 37.503 172.363,37.859 169.435,38.020 169.326 C 38.180 169.216,38.545 167.335,38.831 165.146 C 39.116 162.956,39.471 161.165,39.620 161.165 C 39.768 161.165,40.118 159.811,40.397 158.155 C 40.676 156.500,41.018 155.058,41.158 154.951 C 41.297 154.845,41.727 153.228,42.114 151.359 C 42.501 149.490,42.947 147.961,43.106 147.961 C 43.264 147.961,43.600 146.913,43.853 145.631 C 44.105 144.350,44.462 143.301,44.646 143.301 C 44.830 143.301,45.099 142.598,45.244 141.740 C 45.389 140.881,45.727 139.959,45.995 139.691 C 46.263 139.423,46.702 138.291,46.969 137.175 C 47.237 136.059,47.575 135.146,47.721 135.146 C 47.867 135.146,48.221 134.350,48.508 133.377 C 48.795 132.404,49.237 131.399,49.489 131.144 C 49.741 130.888,50.179 129.850,50.461 128.835 C 50.744 127.820,51.113 126.990,51.282 126.990 C 51.452 126.990,51.792 126.379,52.039 125.631 C 52.286 124.883,52.635 124.272,52.815 124.272 C 52.995 124.272,53.258 123.746,53.399 123.103 C 53.540 122.460,53.863 121.717,54.116 121.452 C 54.370 121.188,54.906 120.228,55.309 119.320 C 55.711 118.413,56.175 117.670,56.339 117.670 C 56.503 117.670,56.755 117.134,56.899 116.479 C 57.043 115.823,57.406 115.193,57.707 115.078 C 58.007 114.963,58.252 114.625,58.252 114.327 C 58.252 114.030,58.558 113.475,58.932 113.095 C 59.306 112.715,59.874 111.885,60.194 111.250 C 60.514 110.616,60.975 109.968,61.218 109.811 C 61.462 109.653,61.782 109.043,61.929 108.455 C 62.077 107.866,62.438 107.121,62.731 106.799 C 64.306 105.071,64.711 104.536,65.243 103.483 C 65.563 102.849,66.131 102.102,66.505 101.823 C 66.879 101.544,67.184 101.069,67.184 100.768 C 67.184 100.468,67.534 100.034,67.961 99.806 C 68.388 99.577,68.741 99.178,68.745 98.918 C 68.748 98.659,69.185 98.035,69.715 97.532 C 70.246 97.029,70.680 96.475,70.680 96.301 C 70.680 96.126,71.382 95.227,72.241 94.303 C 73.099 93.378,74.410 91.966,75.153 91.165 C 75.897 90.364,76.505 89.600,76.505 89.468 C 76.505 89.142,88.790 76.893,89.117 76.893 C 89.259 76.893,90.105 76.197,90.998 75.346 C 93.421 73.036,95.285 71.456,95.587 71.456 C 95.735 71.456,96.485 70.845,97.255 70.097 C 98.025 69.350,98.783 68.737,98.939 68.737 C 99.095 68.736,99.835 68.213,100.583 67.573 C 101.330 66.933,102.160 66.409,102.427 66.409 C 102.694 66.408,102.913 66.229,102.913 66.010 C 102.913 65.791,103.350 65.446,103.883 65.243 C 104.417 65.040,104.854 64.695,104.854 64.476 C 104.854 64.257,105.107 64.078,105.415 64.078 C 105.723 64.078,106.204 63.764,106.483 63.380 C 106.762 62.997,107.646 62.377,108.447 62.003 C 109.248 61.629,109.903 61.175,109.903 60.995 C 109.903 60.814,110.308 60.565,110.802 60.441 C 111.297 60.317,112.110 59.861,112.609 59.428 C 113.108 58.995,113.744 58.641,114.021 58.641 C 114.298 58.641,114.664 58.412,114.835 58.133 C 115.006 57.853,115.714 57.395,116.408 57.115 C 117.102 56.834,117.670 56.475,117.670 56.316 C 117.670 56.158,118.500 55.714,119.515 55.331 C 120.529 54.948,121.447 54.531,121.553 54.404 C 121.660 54.277,122.272 53.912,122.913 53.592 C 123.553 53.272,124.302 52.798,124.576 52.540 C 124.849 52.281,125.680 51.956,126.420 51.817 C 127.161 51.678,127.767 51.416,127.767 51.235 C 127.767 51.053,128.466 50.696,129.320 50.440 C 130.175 50.184,130.874 49.832,130.874 49.658 C 130.874 49.484,131.835 49.063,133.010 48.721 C 134.184 48.380,135.146 47.957,135.146 47.783 C 135.146 47.608,135.752 47.351,136.492 47.212 C 137.233 47.073,138.068 46.731,138.349 46.450 C 138.629 46.170,139.770 45.707,140.885 45.421 C 142.000 45.136,142.913 44.784,142.913 44.640 C 142.913 44.496,143.961 44.155,145.243 43.883 C 146.524 43.612,147.573 43.265,147.573 43.114 C 147.573 42.962,148.917 42.543,150.559 42.182 C 152.202 41.821,153.731 41.383,153.957 41.209 C 154.184 41.035,155.505 40.663,156.893 40.381 C 158.282 40.099,159.505 39.760,159.612 39.626 C 159.718 39.492,161.204 39.154,162.913 38.874 C 164.621 38.594,166.107 38.235,166.214 38.075 C 166.320 37.915,168.417 37.558,170.874 37.282 C 173.330 37.005,175.427 36.647,175.534 36.487 C 175.641 36.326,178.437 35.992,181.748 35.743 C 185.058 35.494,188.204 35.229,188.738 35.154 C 190.921 34.845,216.077 35.315,220.583 35.749 " stroke="none" fill="#fc0404" fill-rule="evenodd"></path><path id="path1" d="M186.019 89.449 L 186.019 103.558 185.146 103.988 C 184.665 104.225,182.743 104.622,180.874 104.870 C 179.005 105.119,177.476 105.448,177.476 105.600 C 177.476 105.752,176.296 106.106,174.854 106.386 C 173.413 106.665,171.500 107.222,170.604 107.622 C 169.708 108.022,168.867 108.350,168.735 108.350 C 168.339 108.350,164.093 110.400,163.883 110.692 C 163.777 110.841,163.273 111.093,162.765 111.252 C 157.900 112.772,145.371 125.384,144.237 129.904 C 144.103 130.437,143.845 130.874,143.663 130.874 C 143.481 130.874,143.113 131.617,142.845 132.524 C 142.577 133.432,142.154 134.385,141.905 134.641 C 141.657 134.898,141.329 135.771,141.177 136.583 C 141.025 137.394,140.737 138.257,140.536 138.500 C 140.335 138.744,139.821 140.666,139.394 142.772 C 136.269 158.176,138.196 176.078,143.689 182.669 C 144.878 184.095,150.196 189.347,151.212 190.097 C 151.790 190.524,152.719 191.267,153.276 191.748 C 153.833 192.228,154.425 192.621,154.592 192.621 C 154.759 192.621,155.127 192.848,155.409 193.126 C 155.691 193.403,156.971 194.217,158.252 194.934 C 159.534 195.650,160.845 196.450,161.165 196.710 C 161.485 196.970,162.403 197.394,163.204 197.651 C 164.005 197.908,164.660 198.252,164.660 198.415 C 164.660 198.577,165.359 198.941,166.214 199.223 C 167.068 199.505,167.767 199.883,167.767 200.062 C 167.767 200.242,167.937 200.388,168.144 200.388 C 168.351 200.388,169.443 200.806,170.571 201.316 C 175.344 203.475,176.198 203.828,177.767 204.293 C 178.675 204.563,179.417 204.911,179.417 205.067 C 179.417 205.223,180.073 205.473,180.874 205.623 C 181.675 205.773,183.035 206.217,183.897 206.609 C 184.759 207.001,185.982 207.446,186.615 207.598 C 187.249 207.750,187.944 208.012,188.161 208.180 C 188.377 208.348,189.425 208.699,190.491 208.959 C 191.556 209.220,192.607 209.571,192.826 209.740 C 193.045 209.910,194.531 210.344,196.127 210.705 C 197.723 211.066,199.117 211.484,199.223 211.635 C 199.330 211.785,200.553 212.138,201.942 212.420 C 203.330 212.701,204.645 213.069,204.863 213.236 C 205.081 213.403,206.436 213.757,207.873 214.022 C 209.310 214.287,210.485 214.625,210.485 214.775 C 210.485 214.924,211.215 215.163,212.106 215.306 C 213.630 215.549,218.592 217.615,219.025 218.186 C 219.134 218.330,219.739 218.710,220.368 219.030 C 221.698 219.706,225.522 223.566,225.849 224.563 C 225.971 224.937,226.218 225.243,226.396 225.243 C 226.812 225.243,227.573 227.414,227.573 228.602 C 227.573 229.104,227.748 229.515,227.961 229.515 C 228.443 229.515,228.474 232.002,228.003 232.918 C 227.812 233.289,227.447 234.728,227.191 236.115 C 226.935 237.503,226.591 238.726,226.425 238.834 C 226.260 238.941,226.004 239.414,225.857 239.884 C 225.457 241.167,223.066 243.384,221.540 243.888 C 220.800 244.132,220.194 244.473,220.194 244.646 C 220.194 244.819,219.015 245.178,217.573 245.444 C 216.131 245.710,214.757 246.081,214.519 246.268 C 213.001 247.464,190.697 247.444,189.911 246.246 C 189.800 246.076,188.325 245.734,186.633 245.486 C 184.941 245.237,183.368 244.885,183.138 244.704 C 182.907 244.522,181.757 244.152,180.583 243.882 C 179.408 243.611,177.835 243.085,177.087 242.713 C 176.340 242.341,175.160 241.914,174.466 241.764 C 173.772 241.614,173.204 241.348,173.204 241.172 C 173.204 240.996,172.704 240.678,172.093 240.465 C 170.104 239.772,165.693 236.476,162.833 233.546 C 159.563 230.196,159.570 230.198,157.232 232.337 C 156.243 233.241,154.254 235.029,152.811 236.311 C 151.369 237.592,149.525 239.270,148.714 240.040 C 147.903 240.809,146.659 241.925,145.950 242.519 C 137.320 249.755,131.650 255.686,131.650 257.479 C 131.650 258.331,131.783 259.029,131.944 259.029 C 132.105 259.029,132.470 259.554,132.754 260.196 C 133.424 261.710,139.844 268.129,141.357 268.799 C 141.999 269.083,142.524 269.457,142.524 269.630 C 142.524 269.802,143.049 270.126,143.689 270.349 C 144.330 270.573,144.854 270.892,144.854 271.059 C 144.854 271.226,145.422 271.592,146.117 271.873 C 146.811 272.153,147.466 272.493,147.573 272.628 C 147.880 273.014,156.179 276.893,156.699 276.893 C 156.829 276.893,157.675 277.230,158.578 277.642 C 159.482 278.053,160.739 278.514,161.373 278.666 C 162.006 278.818,162.699 279.070,162.913 279.226 C 163.126 279.382,164.262 279.730,165.437 280.000 C 166.612 280.270,167.753 280.632,167.973 280.804 C 168.193 280.977,170.028 281.416,172.051 281.779 C 174.073 282.141,175.903 282.570,176.117 282.731 C 176.330 282.891,178.165 283.235,180.194 283.495 C 182.223 283.755,184.364 284.166,184.951 284.408 L 186.019 284.850 186.019 298.736 L 186.019 312.621 199.029 312.621 L 212.039 312.621 212.039 299.101 L 212.039 285.581 216.291 285.136 C 218.629 284.892,220.857 284.525,221.242 284.321 C 221.627 284.117,222.990 283.741,224.272 283.485 C 225.553 283.230,226.777 282.894,226.990 282.739 C 227.204 282.584,228.427 282.140,229.709 281.752 C 230.990 281.363,232.126 280.934,232.233 280.798 C 232.340 280.661,233.170 280.311,234.078 280.019 C 234.985 279.726,235.728 279.369,235.728 279.223 C 235.728 279.078,236.427 278.729,237.282 278.447 C 238.136 278.165,238.835 277.822,238.835 277.686 C 238.835 277.549,239.447 277.216,240.194 276.946 C 240.942 276.676,241.553 276.303,241.553 276.118 C 241.553 275.932,241.924 275.663,242.377 275.519 C 243.411 275.191,246.692 272.979,247.107 272.330 C 247.277 272.063,247.665 271.845,247.967 271.845 C 248.269 271.845,248.703 271.495,248.932 271.068 C 249.161 270.641,249.532 270.291,249.757 270.291 C 249.982 270.291,250.806 269.708,251.588 268.995 C 256.168 264.819,257.476 263.542,257.476 263.244 C 257.476 263.060,258.175 262.279,259.029 261.507 C 259.883 260.735,260.583 259.881,260.583 259.608 C 260.583 259.335,260.847 259.011,261.171 258.886 C 261.494 258.762,261.927 258.219,262.132 257.680 C 262.337 257.140,262.652 256.699,262.831 256.699 C 263.010 256.699,263.393 256.095,263.683 255.356 C 263.973 254.617,264.442 253.924,264.726 253.815 C 265.010 253.706,265.243 253.361,265.243 253.050 C 265.243 252.738,265.468 252.252,265.743 251.969 C 266.018 251.687,266.573 250.583,266.977 249.515 C 267.381 248.447,267.926 247.358,268.189 247.095 C 268.452 246.832,268.786 245.915,268.931 245.056 C 269.076 244.198,269.338 243.495,269.513 243.495 C 269.689 243.495,270.055 242.228,270.326 240.680 C 270.598 239.131,270.952 237.773,271.115 237.662 C 272.499 236.710,272.461 210.874,271.075 210.874 C 270.926 210.874,270.585 209.650,270.318 208.155 C 270.051 206.660,269.695 205.437,269.528 205.437 C 269.360 205.437,269.119 204.915,268.991 204.277 C 268.663 202.636,265.353 195.936,264.598 195.384 C 264.418 195.253,264.012 194.645,263.696 194.033 C 262.547 191.807,253.782 183.689,252.528 183.689 C 252.305 183.689,252.028 183.444,251.912 183.143 C 251.797 182.843,251.167 182.480,250.512 182.336 C 249.856 182.192,249.320 181.904,249.320 181.697 C 249.320 181.489,248.796 181.136,248.155 180.913 C 247.515 180.689,246.990 180.349,246.990 180.156 C 246.990 179.963,246.816 179.806,246.603 179.806 C 246.390 179.806,245.123 179.293,243.787 178.666 C 242.452 178.039,240.879 177.409,240.291 177.265 C 239.704 177.121,239.223 176.879,239.223 176.727 C 239.223 176.575,238.350 176.213,237.282 175.922 C 236.214 175.632,235.340 175.263,235.340 175.103 C 235.340 174.944,234.379 174.598,233.204 174.335 C 232.029 174.072,231.068 173.743,231.068 173.604 C 231.068 173.465,230.150 173.120,229.029 172.838 C 227.908 172.555,226.546 172.100,226.003 171.825 C 225.461 171.551,223.932 171.102,222.605 170.828 C 221.279 170.554,220.194 170.214,220.194 170.072 C 220.194 169.931,219.102 169.590,217.767 169.315 C 216.432 169.041,215.165 168.686,214.951 168.528 C 214.738 168.369,213.525 168.027,212.256 167.766 C 210.987 167.506,209.677 167.141,209.344 166.954 C 209.010 166.768,207.777 166.357,206.602 166.040 C 200.713 164.452,198.235 163.708,198.058 163.474 C 197.951 163.333,196.947 162.985,195.825 162.700 C 194.704 162.416,193.786 162.062,193.786 161.914 C 193.786 161.767,193.044 161.456,192.136 161.225 C 191.228 160.993,189.793 160.448,188.947 160.014 C 188.101 159.579,187.178 159.223,186.896 159.223 C 186.614 159.223,186.283 158.961,186.160 158.641 C 186.037 158.320,185.702 158.058,185.415 158.058 C 184.309 158.058,181.309 154.708,180.939 153.060 C 180.253 150.008,182.914 144.466,185.064 144.466 C 185.324 144.466,185.735 144.226,185.979 143.932 C 186.223 143.638,187.249 143.174,188.260 142.901 C 189.270 142.627,190.272 142.273,190.485 142.114 C 192.412 140.676,216.512 140.680,218.447 142.119 C 218.660 142.278,219.927 142.633,221.262 142.908 C 222.597 143.182,223.689 143.530,223.689 143.680 C 223.689 143.830,224.397 144.187,225.262 144.472 C 226.127 144.758,226.926 145.138,227.036 145.317 C 227.147 145.496,227.833 145.892,228.562 146.196 C 229.290 146.500,230.108 146.941,230.380 147.176 C 237.750 153.536,237.155 153.787,251.845 138.113 C 253.767 136.062,257.131 132.534,259.320 130.275 C 263.892 125.556,263.907 125.509,261.496 123.358 C 260.504 122.472,258.963 121.049,258.072 120.194 C 257.181 119.340,255.983 118.393,255.410 118.090 C 254.838 117.787,254.369 117.415,254.369 117.263 C 254.369 117.111,253.845 116.770,253.204 116.505 C 252.563 116.239,252.039 115.901,252.039 115.754 C 252.039 115.606,251.427 115.245,250.680 114.951 C 249.932 114.658,249.320 114.294,249.320 114.141 C 249.320 113.989,248.447 113.550,247.379 113.166 C 246.311 112.782,245.437 112.328,245.437 112.156 C 245.437 111.985,245.267 111.845,245.058 111.845 C 244.850 111.845,243.535 111.320,242.136 110.680 C 240.737 110.039,239.345 109.515,239.042 109.515 C 238.740 109.515,238.399 109.364,238.285 109.179 C 238.171 108.995,237.244 108.619,236.224 108.343 C 235.204 108.066,234.184 107.699,233.957 107.526 C 233.731 107.354,232.158 106.912,230.462 106.544 C 228.766 106.177,227.291 105.750,227.184 105.596 C 227.077 105.442,225.286 105.087,223.203 104.807 C 221.121 104.528,219.417 104.184,219.417 104.044 C 219.417 103.904,217.866 103.668,215.969 103.520 L 212.521 103.250 212.284 101.819 C 212.154 101.032,212.045 94.752,212.043 87.864 L 212.039 75.340 199.029 75.340 L 186.019 75.340 186.019 89.449 " stroke="none" fill="#73ac44" fill-rule="evenodd"></path></g></svg>